weathericons-regular-webfont.ufo
<glyph name="uniF000" format="2">
  <advance width="3126"/>
  <unicode hex="E300"/>
  <note>
uniF000
</note>
  <outline>
    <contour>
      <point x="0" y="127"/>
      <point x="56" y="182"/>
      <point x="94" y="182" type="qcurve" smooth="yes"/>
      <point x="721" y="182" type="line" smooth="yes"/>
      <point x="839" y="182"/>
      <point x="1005" y="14"/>
      <point x="1005" y="-222"/>
      <point x="839" y="-389"/>
      <point x="721" y="-389" type="qcurve" smooth="yes"/>
      <point x="604" y="-389"/>
      <point x="519" y="-304" type="qcurve" smooth="yes"/>
      <point x="493" y="-278"/>
      <point x="493" y="-202"/>
      <point x="545" y="-151"/>
      <point x="583" y="-151" type="qcurve" smooth="yes"/>
      <point x="619" y="-151"/>
      <point x="648" y="-177" type="qcurve" smooth="yes"/>
      <point x="680" y="-209"/>
      <point x="762" y="-209"/>
      <point x="825" y="-147"/>
      <point x="825" y="-61"/>
      <point x="762" y="-1"/>
      <point x="721" y="-1" type="qcurve" smooth="yes"/>
      <point x="94" y="-1" type="line" smooth="yes"/>
      <point x="56" y="-1"/>
      <point x="29" y="26" type="qcurve" smooth="yes"/>
      <point x="0" y="52"/>
      <point x="0" y="90" type="qcurve" smooth="yes"/>
    </contour>
    <contour>
      <point x="0" y="448"/>
      <point x="56" y="503"/>
      <point x="94" y="503" type="qcurve" smooth="yes"/>
      <point x="1264" y="503" type="line" smooth="yes"/>
      <point x="1306" y="503"/>
      <point x="1367" y="565"/>
      <point x="1367" y="651"/>
      <point x="1306" y="711"/>
      <point x="1222" y="711"/>
      <point x="1192" y="681" type="qcurve" smooth="yes"/>
      <point x="1164" y="656"/>
      <point x="1126" y="656" type="qcurve" smooth="yes"/>
      <point x="1087" y="656"/>
      <point x="1038" y="705"/>
      <point x="1038" y="783"/>
      <point x="1063" y="809" type="qcurve" smooth="yes"/>
      <point x="1143" y="890"/>
      <point x="1264" y="890" type="qcurve" smooth="yes"/>
      <point x="1383" y="890"/>
      <point x="1549" y="726"/>
      <point x="1549" y="490"/>
      <point x="1382" y="323"/>
      <point x="1264" y="323" type="qcurve" smooth="yes"/>
      <point x="94" y="323" type="line" smooth="yes"/>
      <point x="56" y="323"/>
      <point x="29" y="350" type="qcurve" smooth="yes"/>
      <point x="0" y="376"/>
      <point x="0" y="411" type="qcurve" smooth="yes"/>
    </contour>
    <contour>
      <point x="283" y="666"/>
      <point x="286" y="671" type="qcurve"/>
      <point x="286" y="675" type="line"/>
      <point x="327" y="810"/>
      <point x="536" y="1008"/>
      <point x="672" y="1040" type="qcurve"/>
      <point x="719" y="1257"/>
      <point x="1065" y="1536"/>
      <point x="1290" y="1536" type="qcurve" smooth="yes"/>
      <point x="1447" y="1536"/>
      <point x="1575" y="1471" type="qcurve"/>
      <point x="1740" y="1656"/>
      <point x="1987" y="1656" type="qcurve" smooth="yes"/>
      <point x="2137" y="1656"/>
      <point x="2395" y="1505"/>
      <point x="2546" y="1247"/>
      <point x="2546" y="1097" type="qcurve" smooth="yes"/>
      <point x="2546" y="903"/>
      <point x="2425" y="744" type="qcurve"/>
      <point x="2470" y="646"/>
      <point x="2470" y="528" type="qcurve" smooth="yes"/>
      <point x="2470" y="385"/>
      <point x="2329" y="141"/>
      <point x="2086" y="-1"/>
      <point x="1943" y="-1" type="qcurve" smooth="yes"/>
      <point x="1207" y="-1" type="line" smooth="yes"/>
      <point x="1187" y="-1"/>
      <point x="1187" y="17" type="qcurve" smooth="yes"/>
      <point x="1187" y="163" type="line" smooth="yes"/>
      <point x="1187" y="182"/>
      <point x="1207" y="182" type="qcurve" smooth="yes"/>
      <point x="1943" y="182" type="line" smooth="yes"/>
      <point x="2087" y="182"/>
      <point x="2290" y="385"/>
      <point x="2290" y="528" type="qcurve" smooth="yes"/>
      <point x="2290" y="670"/>
      <point x="2087" y="871"/>
      <point x="1943" y="871" type="qcurve" smooth="yes"/>
      <point x="1769" y="871" type="line" smooth="yes"/>
      <point x="1750" y="871"/>
      <point x="1750" y="890" type="qcurve"/>
      <point x="1743" y="952" type="line" smooth="yes"/>
      <point x="1725" y="1126"/>
      <point x="1466" y="1357"/>
      <point x="1290" y="1357" type="qcurve" smooth="yes"/>
      <point x="1115" y="1357"/>
      <point x="857" y="1125"/>
      <point x="840" y="952" type="qcurve" smooth="yes"/>
      <point x="833" y="897" type="line"/>
      <point x="833" y="879"/>
      <point x="813" y="879" type="qcurve"/>
      <point x="757" y="871" type="line"/>
      <point x="662" y="864"/>
      <point x="511" y="751"/>
      <point x="475" y="664" type="qcurve"/>
      <point x="465" y="649"/>
      <point x="454" y="649" type="qcurve" smooth="yes"/>
      <point x="301" y="649" type="line" smooth="yes"/>
      <point x="283" y="649"/>
      <point x="283" y="662" type="qcurve" smooth="yes"/>
    </contour>
    <contour>
      <point x="1210" y="1929"/>
      <point x="1286" y="1929"/>
      <point x="1311" y="1901" type="qcurve"/>
      <point x="1381" y="1832" type="line" smooth="yes"/>
      <point x="1405" y="1806"/>
      <point x="1405" y="1768" type="qcurve" smooth="yes"/>
      <point x="1405" y="1728"/>
      <point x="1354" y="1679"/>
      <point x="1314" y="1679" type="qcurve" smooth="yes"/>
      <point x="1275" y="1679"/>
      <point x="1249" y="1705" type="qcurve" smooth="yes"/>
      <point x="1184" y="1774" type="line"/>
      <point x="1155" y="1801"/>
      <point x="1155" y="1875"/>
    </contour>
    <contour>
      <point x="1869" y="1228"/>
      <point x="1907" y="1055" type="qcurve"/>
      <point x="1943" y="1055" type="line" smooth="yes"/>
      <point x="2159" y="1055"/>
      <point x="2312" y="902" type="qcurve"/>
      <point x="2367" y="993"/>
      <point x="2367" y="1097" type="qcurve" smooth="yes"/>
      <point x="2367" y="1253"/>
      <point x="2142" y="1477"/>
      <point x="1987" y="1477" type="qcurve" smooth="yes"/>
      <point x="1838" y="1477"/>
      <point x="1723" y="1368" type="qcurve"/>
    </contour>
    <contour>
      <point x="1896" y="2145" type="line" smooth="yes"/>
      <point x="1896" y="2183"/>
      <point x="1949" y="2237"/>
      <point x="2025" y="2237"/>
      <point x="2079" y="2183"/>
      <point x="2079" y="2145" type="qcurve" smooth="yes"/>
      <point x="2079" y="1927" type="line" smooth="yes"/>
      <point x="2079" y="1890"/>
      <point x="2025" y="1839"/>
      <point x="1949" y="1839"/>
      <point x="1896" y="1890"/>
      <point x="1896" y="1927" type="qcurve" smooth="yes"/>
    </contour>
    <contour>
      <point x="2488" y="1722"/>
      <point x="2512" y="1747" type="qcurve" smooth="yes"/>
      <point x="2665" y="1904" type="line" smooth="yes"/>
      <point x="2691" y="1930"/>
      <point x="2767" y="1930"/>
      <point x="2821" y="1876"/>
      <point x="2821" y="1839" type="qcurve" smooth="yes"/>
      <point x="2821" y="1801"/>
      <point x="2794" y="1774" type="qcurve" smooth="yes"/>
      <point x="2638" y="1621" type="line"/>
      <point x="2615" y="1593"/>
      <point x="2539" y="1594"/>
      <point x="2512" y="1621" type="qcurve" smooth="yes"/>
      <point x="2488" y="1646"/>
      <point x="2488" y="1685" type="qcurve" smooth="yes"/>
    </contour>
    <contour>
      <point x="2570" y="461"/>
      <point x="2624" y="514"/>
      <point x="2664" y="514" type="qcurve" smooth="yes"/>
      <point x="2700" y="514"/>
      <point x="2726" y="488" type="qcurve" smooth="yes"/>
      <point x="2794" y="419" type="line" smooth="yes"/>
      <point x="2821" y="389"/>
      <point x="2821" y="354" type="qcurve" smooth="yes"/>
      <point x="2821" y="317"/>
      <point x="2794" y="290" type="qcurve"/>
      <point x="2762" y="264"/>
      <point x="2731" y="264" type="qcurve" smooth="yes"/>
      <point x="2697" y="264"/>
      <point x="2665" y="290" type="qcurve"/>
      <point x="2597" y="359" type="line" smooth="yes"/>
      <point x="2570" y="386"/>
      <point x="2570" y="423" type="qcurve" smooth="yes"/>
    </contour>
    <contour>
      <point x="2781" y="1189"/>
      <point x="2819" y="1189" type="qcurve" smooth="yes"/>
      <point x="3035" y="1189" type="line" smooth="yes"/>
      <point x="3072" y="1189"/>
      <point x="3127" y="1134"/>
      <point x="3127" y="1060"/>
      <point x="3073" y="1006"/>
      <point x="3035" y="1006" type="qcurve" smooth="yes"/>
      <point x="2819" y="1006" type="line" smooth="yes"/>
      <point x="2782" y="1006"/>
      <point x="2758" y="1034" type="qcurve"/>
      <point x="2731" y="1059"/>
      <point x="2731" y="1135"/>
    </contour>
  </outline>
</glyph>
<glyph name="uniF001" format="2">
  <advance width="3105"/>
  <unicode hex="E301"/>
  <note>
uniF001
</note>
  <outline>
    <contour>
      <point x="0" y="130"/>
      <point x="78" y="181"/>
      <point x="120" y="181" type="qcurve" smooth="yes"/>
      <point x="960" y="181" type="line" smooth="yes"/>
      <point x="998" y="181"/>
      <point x="1051" y="130"/>
      <point x="1051" y="93" type="qcurve" smooth="yes"/>
      <point x="1051" y="55"/>
      <point x="998" y="0"/>
      <point x="960" y="0" type="qcurve" smooth="yes"/>
      <point x="120" y="0" type="line" smooth="yes"/>
      <point x="96" y="0"/>
      <point x="26" y="29" type="qcurve"/>
      <point x="0" y="55"/>
      <point x="0" y="94" type="qcurve" smooth="yes"/>
    </contour>
    <contour>
      <point x="201" y="506"/>
      <point x="238" y="506" type="qcurve" smooth="yes"/>
      <point x="1241" y="506" type="line" smooth="yes"/>
      <point x="1279" y="506"/>
      <point x="1333" y="452"/>
      <point x="1333" y="376"/>
      <point x="1279" y="323"/>
      <point x="1241" y="323" type="qcurve" smooth="yes"/>
      <point x="238" y="323" type="line" smooth="yes"/>
      <point x="200" y="323"/>
      <point x="176" y="351" type="qcurve"/>
      <point x="149" y="376"/>
      <point x="149" y="452"/>
    </contour>
    <contour>
      <point x="261" y="672"/>
      <point x="263" y="674" type="qcurve"/>
      <point x="304" y="810"/>
      <point x="511" y="1009"/>
      <point x="647" y="1043" type="qcurve"/>
      <point x="695" y="1261"/>
      <point x="1045" y="1541"/>
      <point x="1271" y="1541" type="qcurve" smooth="yes"/>
      <point x="1427" y="1541"/>
      <point x="1559" y="1472" type="qcurve"/>
      <point x="1638" y="1558"/>
      <point x="1851" y="1653"/>
      <point x="1968" y="1653" type="qcurve" smooth="yes"/>
      <point x="2119" y="1653"/>
      <point x="2378" y="1502"/>
      <point x="2529" y="1244"/>
      <point x="2529" y="1094" type="qcurve" smooth="yes"/>
      <point x="2529" y="898"/>
      <point x="2405" y="744" type="qcurve"/>
      <point x="2451" y="646"/>
      <point x="2451" y="530" type="qcurve" smooth="yes"/>
      <point x="2451" y="386"/>
      <point x="2309" y="142"/>
      <point x="2065" y="0"/>
      <point x="1921" y="0" type="qcurve" smooth="yes"/>
      <point x="1186" y="0" type="line" smooth="yes"/>
      <point x="1168" y="0"/>
      <point x="1168" y="19" type="qcurve" smooth="yes"/>
      <point x="1168" y="161" type="line" smooth="yes"/>
      <point x="1168" y="181"/>
      <point x="1186" y="181" type="qcurve" smooth="yes"/>
      <point x="1921" y="181" type="line" smooth="yes"/>
      <point x="2064" y="181"/>
      <point x="2270" y="386"/>
      <point x="2270" y="530" type="qcurve" smooth="yes"/>
      <point x="2270" y="670"/>
      <point x="2063" y="874"/>
      <point x="1921" y="874" type="qcurve" smooth="yes"/>
      <point x="1750" y="874" type="line" smooth="yes"/>
      <point x="1731" y="874"/>
      <point x="1731" y="894" type="qcurve"/>
      <point x="1723" y="954" type="line" smooth="yes"/>
      <point x="1705" y="1127"/>
      <point x="1445" y="1361"/>
      <point x="1271" y="1361" type="qcurve" smooth="yes"/>
      <point x="1156" y="1361"/>
      <point x="955" y="1255"/>
      <point x="829" y="1068"/>
      <point x="818" y="954" type="qcurve" smooth="yes"/>
      <point x="810" y="894" type="line"/>
      <point x="810" y="874"/>
      <point x="793" y="874" type="qcurve" smooth="yes"/>
      <point x="735" y="874" type="line"/>
      <point x="641" y="863"/>
      <point x="491" y="752"/>
      <point x="450" y="667" type="qcurve"/>
      <point x="446" y="653"/>
      <point x="427" y="653" type="qcurve" smooth="yes"/>
      <point x="279" y="653" type="line" smooth="yes"/>
      <point x="261" y="653"/>
      <point x="261" y="667" type="qcurve" smooth="yes"/>
    </contour>
    <contour>
      <point x="337" y="-206"/>
      <point x="389" y="-153"/>
      <point x="427" y="-153" type="qcurve" smooth="yes"/>
      <point x="1432" y="-153" type="line" smooth="yes"/>
      <point x="1470" y="-153"/>
      <point x="1521" y="-206"/>
      <point x="1521" y="-246" type="qcurve" smooth="yes"/>
      <point x="1521" y="-283"/>
      <point x="1469" y="-336"/>
      <point x="1432" y="-336" type="qcurve" smooth="yes"/>
      <point x="427" y="-336" type="line" smooth="yes"/>
      <point x="390" y="-336"/>
      <point x="365" y="-309" type="qcurve"/>
      <point x="337" y="-284"/>
      <point x="337" y="-246" type="qcurve" smooth="yes"/>
    </contour>
    <contour>
      <point x="1135" y="1872"/>
      <point x="1189" y="1925"/>
      <point x="1229" y="1925" type="qcurve" smooth="yes"/>
      <point x="1263" y="1925"/>
      <point x="1290" y="1898" type="qcurve" smooth="yes"/>
      <point x="1359" y="1829" type="line" smooth="yes"/>
      <point x="1385" y="1803"/>
      <point x="1385" y="1766" type="qcurve" smooth="yes"/>
      <point x="1385" y="1726"/>
      <point x="1334" y="1675"/>
      <point x="1293" y="1675" type="qcurve" smooth="yes"/>
      <point x="1255" y="1675"/>
      <point x="1229" y="1701" type="qcurve" smooth="yes"/>
      <point x="1161" y="1771" type="line" smooth="yes"/>
      <point x="1135" y="1795"/>
      <point x="1135" y="1835" type="qcurve" smooth="yes"/>
    </contour>
    <contour>
      <point x="1843" y="1237"/>
      <point x="1889" y="1053" type="qcurve"/>
      <point x="1921" y="1053" type="line" smooth="yes"/>
      <point x="2143" y="1053"/>
      <point x="2294" y="901" type="qcurve"/>
      <point x="2343" y="987"/>
      <point x="2343" y="1094" type="qcurve" smooth="yes"/>
      <point x="2343" y="1250"/>
      <point x="2124" y="1469"/>
      <point x="1968" y="1469" type="qcurve" smooth="yes"/>
      <point x="1813" y="1469"/>
      <point x="1707" y="1368" type="qcurve"/>
    </contour>
    <contour>
      <point x="1878" y="2143" type="line" smooth="yes"/>
      <point x="1878" y="2181"/>
      <point x="1931" y="2235"/>
      <point x="1968" y="2235" type="qcurve" smooth="yes"/>
      <point x="2007" y="2235"/>
      <point x="2057" y="2182"/>
      <point x="2057" y="2143" type="qcurve" smooth="yes"/>
      <point x="2057" y="1925" type="line" smooth="yes"/>
      <point x="2057" y="1886"/>
      <point x="2008" y="1837"/>
      <point x="1968" y="1837" type="qcurve" smooth="yes"/>
      <point x="1931" y="1837"/>
      <point x="1878" y="1887"/>
      <point x="1878" y="1925" type="qcurve" smooth="yes"/>
    </contour>
    <contour>
      <point x="2467" y="1718"/>
      <point x="2494" y="1744" type="qcurve" smooth="yes"/>
      <point x="2647" y="1902" type="line"/>
      <point x="2674" y="1927"/>
      <point x="2750" y="1927"/>
      <point x="2803" y="1874"/>
      <point x="2803" y="1837" type="qcurve" smooth="yes"/>
      <point x="2803" y="1795"/>
      <point x="2777" y="1771" type="qcurve" smooth="yes"/>
      <point x="2621" y="1617" type="line"/>
      <point x="2601" y="1591"/>
      <point x="2558" y="1591" type="qcurve" smooth="yes"/>
      <point x="2514" y="1591"/>
      <point x="2494" y="1617" type="qcurve"/>
      <point x="2467" y="1642"/>
      <point x="2467" y="1681" type="qcurve" smooth="yes"/>
    </contour>
    <contour>
      <point x="2602" y="507"/>
      <point x="2640" y="507" type="qcurve" smooth="yes"/>
      <point x="2679" y="507"/>
      <point x="2709" y="479" type="qcurve" smooth="yes"/>
      <point x="2777" y="414" type="line"/>
      <point x="2803" y="386"/>
      <point x="2803" y="349" type="qcurve" smooth="yes"/>
      <point x="2803" y="311"/>
      <point x="2777" y="285" type="qcurve"/>
      <point x="2738" y="256"/>
      <point x="2686" y="256"/>
      <point x="2647" y="285" type="qcurve"/>
      <point x="2577" y="352" type="line" smooth="yes"/>
      <point x="2552" y="377"/>
      <point x="2552" y="455"/>
    </contour>
    <contour>
      <point x="2706" y="1126"/>
      <point x="2760" y="1175"/>
      <point x="2799" y="1175" type="qcurve" smooth="yes"/>
      <point x="3016" y="1175" type="line" smooth="yes"/>
      <point x="3053" y="1175"/>
      <point x="3105" y="1126"/>
      <point x="3105" y="1090" type="qcurve" smooth="yes"/>
      <point x="3105" y="1052"/>
      <point x="3052" y="998"/>
      <point x="3016" y="998" type="qcurve" smooth="yes"/>
      <point x="2799" y="998" type="line" smooth="yes"/>
      <point x="2764" y="998"/>
      <point x="2735" y="1025" type="qcurve" smooth="yes"/>
      <point x="2706" y="1051"/>
      <point x="2706" y="1090" type="qcurve" smooth="yes"/>
    </contour>
  </outline>
</glyph>
<glyph name="uniF002" format="2">
  <advance width="2867"/>
  <unicode hex="E302"/>
  <note>
uniF002
</note>
  <outline>
    <contour>
      <point x="0" y="713"/>
      <point x="227" y="999"/>
      <point x="406" y="1040" type="qcurve"/>
      <point x="455" y="1258"/>
      <point x="801" y="1537"/>
      <point x="1026" y="1537" type="qcurve" smooth="yes"/>
      <point x="1190" y="1537"/>
      <point x="1314" y="1467" type="qcurve"/>
      <point x="1491" y="1653"/>
      <point x="1728" y="1653" type="qcurve" smooth="yes"/>
      <point x="1842" y="1653"/>
      <point x="2049" y="1565"/>
      <point x="2199" y="1415"/>
      <point x="2287" y="1208"/>
      <point x="2287" y="1094" type="qcurve" smooth="yes"/>
      <point x="2287" y="890"/>
      <point x="2165" y="741" type="qcurve"/>
      <point x="2210" y="634"/>
      <point x="2210" y="528" type="qcurve" smooth="yes"/>
      <point x="2210" y="384"/>
      <point x="2068" y="140"/>
      <point x="1824" y="-1"/>
      <point x="1681" y="-1" type="qcurve" smooth="yes"/>
      <point x="526" y="-1" type="line" smooth="yes"/>
      <point x="383" y="-1"/>
      <point x="141" y="140"/>
      <point x="0" y="384"/>
      <point x="0" y="528" type="qcurve" smooth="yes"/>
    </contour>
    <contour>
      <point x="182" y="385"/>
      <point x="386" y="178"/>
      <point x="526" y="178" type="qcurve" smooth="yes"/>
      <point x="1681" y="178" type="line" smooth="yes"/>
      <point x="1823" y="178"/>
      <point x="2026" y="383"/>
      <point x="2026" y="528" type="qcurve" smooth="yes"/>
      <point x="2026" y="668"/>
      <point x="1822" y="872"/>
      <point x="1681" y="872" type="qcurve" smooth="yes"/>
      <point x="1509" y="872" type="line" smooth="yes"/>
      <point x="1491" y="872"/>
      <point x="1487" y="890" type="qcurve"/>
      <point x="1479" y="952" type="line" smooth="yes"/>
      <point x="1463" y="1124"/>
      <point x="1202" y="1358"/>
      <point x="1026" y="1358" type="qcurve" smooth="yes"/>
      <point x="854" y="1358"/>
      <point x="598" y="1125"/>
      <point x="576" y="952" type="qcurve" smooth="yes"/>
      <point x="569" y="894" type="line"/>
      <point x="569" y="875"/>
      <point x="549" y="875" type="qcurve" smooth="yes"/>
      <point x="496" y="872" type="line"/>
      <point x="361" y="856"/>
      <point x="182" y="662"/>
      <point x="182" y="528" type="qcurve" smooth="yes"/>
    </contour>
    <contour>
      <point x="897" y="1875"/>
      <point x="951" y="1928"/>
      <point x="990" y="1928" type="qcurve" smooth="yes"/>
      <point x="1026" y="1928"/>
      <point x="1055" y="1902" type="qcurve"/>
      <point x="1118" y="1832" type="line"/>
      <point x="1146" y="1808"/>
      <point x="1146" y="1730"/>
      <point x="1094" y="1675"/>
      <point x="1061" y="1675" type="qcurve"/>
      <point x="1033" y="1672"/>
      <point x="993" y="1702" type="qcurve"/>
      <point x="923" y="1770" type="line" smooth="yes"/>
      <point x="897" y="1798"/>
      <point x="897" y="1837" type="qcurve" smooth="yes"/>
    </contour>
    <contour>
      <point x="1607" y="1225"/>
      <point x="1647" y="1051" type="qcurve"/>
      <point x="1681" y="1051" type="line" smooth="yes"/>
      <point x="1898" y="1051"/>
      <point x="2053" y="898" type="qcurve"/>
      <point x="2107" y="994"/>
      <point x="2107" y="1094" type="qcurve" smooth="yes"/>
      <point x="2107" y="1252"/>
      <point x="1886" y="1472"/>
      <point x="1728" y="1472" type="qcurve" smooth="yes"/>
      <point x="1578" y="1472"/>
      <point x="1467" y="1365" type="qcurve"/>
    </contour>
    <contour>
      <point x="1640" y="2146" type="line" smooth="yes"/>
      <point x="1640" y="2184"/>
      <point x="1690" y="2234"/>
      <point x="1728" y="2234" type="qcurve" smooth="yes"/>
      <point x="1768" y="2234"/>
      <point x="1819" y="2184"/>
      <point x="1819" y="2146" type="qcurve" smooth="yes"/>
      <point x="1819" y="1928" type="line" smooth="yes"/>
      <point x="1819" y="1887"/>
      <point x="1769" y="1837"/>
      <point x="1728" y="1837" type="qcurve" smooth="yes"/>
      <point x="1690" y="1837"/>
      <point x="1640" y="1887"/>
      <point x="1640" y="1928" type="qcurve" smooth="yes"/>
    </contour>
    <contour>
      <point x="2229" y="1720"/>
      <point x="2253" y="1749" type="qcurve"/>
      <point x="2410" y="1902" type="line"/>
      <point x="2434" y="1928"/>
      <point x="2472" y="1928" type="qcurve" smooth="yes"/>
      <point x="2509" y="1928"/>
      <point x="2561" y="1876"/>
      <point x="2561" y="1838" type="qcurve" smooth="yes"/>
      <point x="2561" y="1799"/>
      <point x="2535" y="1770" type="qcurve"/>
      <point x="2382" y="1617" type="line"/>
      <point x="2348" y="1591"/>
      <point x="2319" y="1591" type="qcurve" smooth="yes"/>
      <point x="2287" y="1591"/>
      <point x="2253" y="1617" type="qcurve"/>
      <point x="2229" y="1642"/>
      <point x="2229" y="1683" type="qcurve" smooth="yes"/>
    </contour>
    <contour>
      <point x="2367" y="511"/>
      <point x="2405" y="511" type="qcurve" smooth="yes"/>
      <point x="2440" y="511"/>
      <point x="2466" y="485" type="qcurve" smooth="yes"/>
      <point x="2535" y="416" type="line" smooth="yes"/>
      <point x="2561" y="390"/>
      <point x="2561" y="354" type="qcurve" smooth="yes"/>
      <point x="2561" y="314"/>
      <point x="2510" y="261"/>
      <point x="2434" y="261"/>
      <point x="2410" y="287" type="qcurve" smooth="yes"/>
      <point x="2341" y="354" type="line" smooth="yes"/>
      <point x="2314" y="383"/>
      <point x="2314" y="459"/>
    </contour>
    <contour>
      <point x="2525" y="1185"/>
      <point x="2563" y="1185" type="qcurve" smooth="yes"/>
      <point x="2781" y="1185" type="line" smooth="yes"/>
      <point x="2818" y="1185"/>
      <point x="2867" y="1132"/>
      <point x="2867" y="1056"/>
      <point x="2818" y="1006"/>
      <point x="2781" y="1006" type="qcurve" smooth="yes"/>
      <point x="2563" y="1006" type="line" smooth="yes"/>
      <point x="2524" y="1006"/>
      <point x="2498" y="1032" type="qcurve" smooth="yes"/>
      <point x="2470" y="1057"/>
      <point x="2470" y="1131"/>
    </contour>
  </outline>
</glyph>
<glyph name="uniF003" format="2">
  <advance width="3132"/>
  <unicode hex="E303"/>
  <note>
uniF003
</note>
  <outline>
    <contour>
      <point x="0" y="123"/>
      <point x="54" y="176"/>
      <point x="94" y="176" type="qcurve" smooth="yes"/>
      <point x="2090" y="176" type="line" smooth="yes"/>
      <point x="2128" y="176"/>
      <point x="2182" y="123"/>
      <point x="2182" y="85" type="qcurve" smooth="yes"/>
      <point x="2182" y="48"/>
      <point x="2128" y="-3"/>
      <point x="2090" y="-3" type="qcurve" smooth="yes"/>
      <point x="94" y="-3" type="line" smooth="yes"/>
      <point x="54" y="-3"/>
      <point x="0" y="48"/>
      <point x="0" y="85" type="qcurve" smooth="yes"/>
    </contour>
    <contour>
      <point x="333" y="507"/>
      <point x="371" y="507" type="qcurve" smooth="yes"/>
      <point x="2368" y="507" type="line" smooth="yes"/>
      <point x="2406" y="507"/>
      <point x="2456" y="456"/>
      <point x="2456" y="419" type="qcurve" smooth="yes"/>
      <point x="2456" y="381"/>
      <point x="2405" y="328"/>
      <point x="2368" y="328" type="qcurve" smooth="yes"/>
      <point x="371" y="328" type="line" smooth="yes"/>
      <point x="334" y="328"/>
      <point x="307" y="357" type="qcurve" smooth="yes"/>
      <point x="280" y="382"/>
      <point x="280" y="456"/>
    </contour>
    <contour>
      <point x="293" y="682"/>
      <point x="295" y="685" type="qcurve"/>
      <point x="392" y="967"/>
      <point x="677" y="1042" type="qcurve"/>
      <point x="726" y="1261"/>
      <point x="1075" y="1542"/>
      <point x="1299" y="1542" type="qcurve" smooth="yes"/>
      <point x="1450" y="1542"/>
      <point x="1585" y="1475" type="qcurve"/>
      <point x="1746" y="1654"/>
      <point x="1993" y="1654" type="qcurve" smooth="yes"/>
      <point x="2107" y="1654"/>
      <point x="2315" y="1566"/>
      <point x="2463" y="1416"/>
      <point x="2551" y="1210"/>
      <point x="2551" y="1097" type="qcurve" smooth="yes"/>
      <point x="2551" y="894"/>
      <point x="2430" y="744" type="qcurve"/>
      <point x="2451" y="685" type="line" smooth="yes"/>
      <point x="2458" y="661"/>
      <point x="2437" y="661" type="qcurve" smooth="yes"/>
      <point x="2283" y="661" type="line" smooth="yes"/>
      <point x="2273" y="661"/>
      <point x="2262" y="678" type="qcurve"/>
      <point x="2221" y="769"/>
      <point x="2052" y="879"/>
      <point x="1949" y="879" type="qcurve" smooth="yes"/>
      <point x="1777" y="879" type="line" smooth="yes"/>
      <point x="1757" y="879"/>
      <point x="1757" y="897" type="qcurve"/>
      <point x="1749" y="959" type="line" smooth="yes"/>
      <point x="1731" y="1130"/>
      <point x="1472" y="1360"/>
      <point x="1299" y="1360" type="qcurve" smooth="yes"/>
      <point x="1124" y="1360"/>
      <point x="865" y="1128"/>
      <point x="848" y="955" type="qcurve" smooth="yes"/>
      <point x="841" y="901" type="line"/>
      <point x="841" y="882"/>
      <point x="823" y="882" type="qcurve"/>
      <point x="765" y="874" type="line"/>
      <point x="674" y="867"/>
      <point x="523" y="761"/>
      <point x="485" y="678" type="qcurve"/>
      <point x="474" y="661"/>
      <point x="463" y="661" type="qcurve" smooth="yes"/>
      <point x="310" y="661" type="line" smooth="yes"/>
      <point x="293" y="661"/>
      <point x="293" y="675" type="qcurve" smooth="yes"/>
    </contour>
    <contour>
      <point x="466" y="-206"/>
      <point x="520" y="-157"/>
      <point x="558" y="-157" type="qcurve" smooth="yes"/>
      <point x="2557" y="-157" type="line" smooth="yes"/>
      <point x="2595" y="-157"/>
      <point x="2648" y="-206"/>
      <point x="2648" y="-243" type="qcurve" smooth="yes"/>
      <point x="2648" y="-281"/>
      <point x="2594" y="-335"/>
      <point x="2557" y="-335" type="qcurve" smooth="yes"/>
      <point x="558" y="-335" type="line" smooth="yes"/>
      <point x="520" y="-335"/>
      <point x="495" y="-307" type="qcurve"/>
      <point x="466" y="-281"/>
      <point x="466" y="-243" type="qcurve" smooth="yes"/>
    </contour>
    <contour>
      <point x="1167" y="1873"/>
      <point x="1216" y="1926"/>
      <point x="1255" y="1926" type="qcurve" smooth="yes"/>
      <point x="1293" y="1926"/>
      <point x="1319" y="1898" type="qcurve"/>
      <point x="1387" y="1833" type="line"/>
      <point x="1414" y="1804"/>
      <point x="1414" y="1766" type="qcurve" smooth="yes"/>
      <point x="1414" y="1727"/>
      <point x="1359" y="1674"/>
      <point x="1323" y="1674" type="qcurve" smooth="yes"/>
      <point x="1288" y="1674"/>
      <point x="1261" y="1703" type="qcurve" smooth="yes"/>
      <point x="1192" y="1771" type="line" smooth="yes"/>
      <point x="1167" y="1796"/>
      <point x="1167" y="1834" type="qcurve" smooth="yes"/>
    </contour>
    <contour>
      <point x="1868" y="1245"/>
      <point x="1913" y="1057" type="qcurve"/>
      <point x="1949" y="1057" type="line" smooth="yes"/>
      <point x="2167" y="1057"/>
      <point x="2319" y="905" type="qcurve"/>
      <point x="2371" y="993"/>
      <point x="2371" y="1097" type="qcurve" smooth="yes"/>
      <point x="2371" y="1253"/>
      <point x="2150" y="1475"/>
      <point x="1993" y="1475" type="qcurve" smooth="yes"/>
      <point x="1842" y="1475"/>
      <point x="1734" y="1367" type="qcurve"/>
    </contour>
    <contour>
      <point x="1905" y="2143" type="line" smooth="yes"/>
      <point x="1905" y="2181"/>
      <point x="1956" y="2234"/>
      <point x="1993" y="2234" type="qcurve" smooth="yes"/>
      <point x="2031" y="2234"/>
      <point x="2087" y="2180"/>
      <point x="2087" y="2143" type="qcurve" smooth="yes"/>
      <point x="2087" y="1925" type="line" smooth="yes"/>
      <point x="2087" y="1888"/>
      <point x="2033" y="1837"/>
      <point x="1993" y="1837" type="qcurve" smooth="yes"/>
      <point x="1956" y="1837"/>
      <point x="1905" y="1888"/>
      <point x="1905" y="1925" type="qcurve" smooth="yes"/>
    </contour>
    <contour>
      <point x="2491" y="1717"/>
      <point x="2517" y="1745" type="qcurve" smooth="yes"/>
      <point x="2673" y="1902" type="line" smooth="yes"/>
      <point x="2699" y="1928"/>
      <point x="2737" y="1928" type="qcurve" smooth="yes"/>
      <point x="2774" y="1928"/>
      <point x="2826" y="1876"/>
      <point x="2826" y="1839" type="qcurve" smooth="yes"/>
      <point x="2826" y="1799"/>
      <point x="2800" y="1771" type="qcurve" smooth="yes"/>
      <point x="2648" y="1618" type="line"/>
      <point x="2576" y="1561"/>
      <point x="2517" y="1618" type="qcurve" smooth="yes"/>
      <point x="2491" y="1646"/>
      <point x="2491" y="1682" type="qcurve" smooth="yes"/>
    </contour>
    <contour>
      <point x="2629" y="515"/>
      <point x="2667" y="515" type="qcurve" smooth="yes"/>
      <point x="2703" y="515"/>
      <point x="2731" y="489" type="qcurve" smooth="yes"/>
      <point x="2800" y="419" type="line" smooth="yes"/>
      <point x="2826" y="395"/>
      <point x="2826" y="359" type="qcurve" smooth="yes"/>
      <point x="2826" y="319"/>
      <point x="2800" y="291" type="qcurve"/>
      <point x="2768" y="265"/>
      <point x="2735" y="265" type="qcurve" smooth="yes"/>
      <point x="2699" y="265"/>
      <point x="2673" y="291" type="qcurve" smooth="yes"/>
      <point x="2605" y="360" type="line" smooth="yes"/>
      <point x="2577" y="386"/>
      <point x="2577" y="462"/>
    </contour>
    <contour>
      <point x="2735" y="1134"/>
      <point x="2788" y="1187"/>
      <point x="2826" y="1187" type="qcurve" smooth="yes"/>
      <point x="3045" y="1187" type="line" smooth="yes"/>
      <point x="3082" y="1187"/>
      <point x="3133" y="1135"/>
      <point x="3133" y="1059"/>
      <point x="3082" y="1006"/>
      <point x="3045" y="1006" type="qcurve" smooth="yes"/>
      <point x="2826" y="1006" type="line" smooth="yes"/>
      <point x="2787" y="1006"/>
      <point x="2763" y="1033" type="qcurve"/>
      <point x="2735" y="1058"/>
      <point x="2735" y="1097" type="qcurve" smooth="yes"/>
    </contour>
  </outline>
</glyph>
<glyph name="uniF004" format="2">
  <advance width="2884"/>
  <unicode hex="E304"/>
  <note>
uniF004
</note>
  <outline>
    <contour>
      <point x="0" y="715"/>
      <point x="230" y="1003"/>
      <point x="407" y="1045" type="qcurve"/>
      <point x="457" y="1264"/>
      <point x="808" y="1544"/>
      <point x="1034" y="1544" type="qcurve" smooth="yes"/>
      <point x="1195" y="1544"/>
      <point x="1323" y="1474" type="qcurve"/>
      <point x="1489" y="1661"/>
      <point x="1739" y="1661" type="qcurve" smooth="yes"/>
      <point x="1890" y="1661"/>
      <point x="2149" y="1509"/>
      <point x="2301" y="1250"/>
      <point x="2301" y="1099" type="qcurve" smooth="yes"/>
      <point x="2301" y="898"/>
      <point x="2175" y="744" type="qcurve"/>
      <point x="2219" y="649"/>
      <point x="2219" y="530" type="qcurve" smooth="yes"/>
      <point x="2219" y="315"/>
      <point x="1923" y="6"/>
      <point x="1709" y="-1" type="qcurve" smooth="yes"/>
      <point x="1688" y="-1"/>
      <point x="1688" y="17" type="qcurve" smooth="yes"/>
      <point x="1688" y="160" type="line" smooth="yes"/>
      <point x="1688" y="179"/>
      <point x="1709" y="179" type="qcurve" smooth="yes"/>
      <point x="1846" y="186"/>
      <point x="2040" y="391"/>
      <point x="2040" y="530" type="qcurve" smooth="yes"/>
      <point x="2040" y="670"/>
      <point x="1831" y="875"/>
      <point x="1688" y="875" type="qcurve" smooth="yes"/>
      <point x="1515" y="875" type="line" smooth="yes"/>
      <point x="1497" y="875"/>
      <point x="1497" y="895" type="qcurve"/>
      <point x="1489" y="957" type="line" smooth="yes"/>
      <point x="1471" y="1130"/>
      <point x="1208" y="1363"/>
      <point x="1034" y="1363" type="qcurve" smooth="yes"/>
      <point x="858" y="1363"/>
      <point x="599" y="1130"/>
      <point x="582" y="957" type="qcurve" smooth="yes"/>
      <point x="575" y="898" type="line"/>
      <point x="575" y="879"/>
      <point x="554" y="879" type="qcurve" smooth="yes"/>
      <point x="497" y="875" type="line"/>
      <point x="363" y="859"/>
      <point x="182" y="663"/>
      <point x="182" y="530" type="qcurve" smooth="yes"/>
      <point x="182" y="391"/>
      <point x="375" y="186"/>
      <point x="512" y="179" type="qcurve" smooth="yes"/>
      <point x="531" y="179"/>
      <point x="531" y="160" type="qcurve" smooth="yes"/>
      <point x="531" y="17" type="line" smooth="yes"/>
      <point x="531" y="-1"/>
      <point x="512" y="-1" type="qcurve" smooth="yes"/>
      <point x="298" y="9"/>
      <point x="0" y="316"/>
      <point x="0" y="530" type="qcurve" smooth="yes"/>
    </contour>
    <contour>
      <point x="556" y="-184"/>
      <point x="571" y="-157" type="qcurve"/>
      <point x="587" y="-121"/>
      <point x="656" y="-93"/>
      <point x="688" y="-110" type="qcurve"/>
      <point x="722" y="-123"/>
      <point x="749" y="-191"/>
      <point x="733" y="-226" type="qcurve"/>
      <point x="721" y="-260"/>
      <point x="650" y="-287"/>
      <point x="618" y="-271" type="qcurve"/>
      <point x="585" y="-258"/>
      <point x="569" y="-223" type="qcurve"/>
    </contour>
    <contour>
      <point x="638" y="94"/>
      <point x="641" y="109" type="qcurve"/>
      <point x="751" y="453" type="line" smooth="yes"/>
      <point x="762" y="489"/>
      <point x="827" y="524"/>
      <point x="862" y="513" type="qcurve"/>
      <point x="900" y="506"/>
      <point x="941" y="441"/>
      <point x="928" y="402" type="qcurve" smooth="yes"/>
      <point x="817" y="59" type="line" smooth="yes"/>
      <point x="794" y="-10"/>
      <point x="743" y="-10" type="qcurve" smooth="yes"/>
      <point x="679" y="-10"/>
      <point x="648" y="39" type="qcurve"/>
      <point x="638" y="58"/>
      <point x="638" y="80" type="qcurve" smooth="yes"/>
    </contour>
    <contour>
      <point x="837" y="-496"/>
      <point x="864" y="-445"/>
      <point x="895" y="-433" type="qcurve" smooth="yes"/>
      <point x="929" y="-419"/>
      <point x="993" y="-446"/>
      <point x="1025" y="-516"/>
      <point x="994" y="-587"/>
      <point x="959" y="-600" type="qcurve"/>
      <point x="937" y="-606"/>
      <point x="927" y="-606" type="qcurve" smooth="yes"/>
      <point x="905" y="-606"/>
      <point x="890" y="-598" type="qcurve"/>
      <point x="856" y="-585"/>
      <point x="842" y="-550" type="qcurve" smooth="yes"/>
      <point x="837" y="-540"/>
      <point x="837" y="-519" type="qcurve" smooth="yes"/>
    </contour>
    <contour>
      <point x="902" y="1881"/>
      <point x="954" y="1933"/>
      <point x="993" y="1933" type="qcurve" smooth="yes"/>
      <point x="1029" y="1933"/>
      <point x="1059" y="1906" type="qcurve" smooth="yes"/>
      <point x="1127" y="1838" type="line" smooth="yes"/>
      <point x="1153" y="1812"/>
      <point x="1153" y="1774" type="qcurve" smooth="yes"/>
      <point x="1153" y="1735"/>
      <point x="1088" y="1676"/>
      <point x="1055" y="1681" type="qcurve" smooth="yes"/>
      <point x="1023" y="1684"/>
      <point x="997" y="1710" type="qcurve" smooth="yes"/>
      <point x="928" y="1779" type="line" smooth="yes"/>
      <point x="902" y="1803"/>
      <point x="902" y="1843" type="qcurve" smooth="yes"/>
    </contour>
    <contour>
      <point x="915" y="-227"/>
      <point x="919" y="-207" type="qcurve"/>
      <point x="1115" y="453" type="line" smooth="yes"/>
      <point x="1126" y="490"/>
      <point x="1191" y="524"/>
      <point x="1229" y="513" type="qcurve" smooth="yes"/>
      <point x="1265" y="503"/>
      <point x="1299" y="440"/>
      <point x="1288" y="402" type="qcurve" smooth="yes"/>
      <point x="1096" y="-253" type="line" smooth="yes"/>
      <point x="1082" y="-301"/>
      <point x="1050" y="-314" type="qcurve" smooth="yes"/>
      <point x="1033" y="-322"/>
      <point x="1009" y="-322" type="qcurve" smooth="yes"/>
      <point x="1001" y="-322"/>
      <point x="983" y="-318" type="qcurve" smooth="yes"/>
      <point x="949" y="-308"/>
      <point x="915" y="-258"/>
      <point x="915" y="-232" type="qcurve" smooth="yes"/>
    </contour>
    <contour>
      <point x="1283" y="-170"/>
      <point x="1290" y="-157" type="qcurve" smooth="yes"/>
      <point x="1307" y="-121"/>
      <point x="1375" y="-93"/>
      <point x="1411" y="-110" type="qcurve" smooth="yes"/>
      <point x="1443" y="-126"/>
      <point x="1469" y="-191"/>
      <point x="1456" y="-226" type="qcurve" smooth="yes"/>
      <point x="1443" y="-259"/>
      <point x="1407" y="-273" type="qcurve"/>
      <point x="1385" y="-279"/>
      <point x="1375" y="-279" type="qcurve" smooth="yes"/>
      <point x="1355" y="-279"/>
      <point x="1338" y="-271" type="qcurve" smooth="yes"/>
      <point x="1304" y="-257"/>
      <point x="1290" y="-224" type="qcurve"/>
      <point x="1283" y="-211"/>
      <point x="1283" y="-191" type="qcurve" smooth="yes"/>
    </contour>
    <contour>
      <point x="1360" y="90"/>
      <point x="1365" y="112" type="qcurve"/>
      <point x="1474" y="453" type="line" smooth="yes"/>
      <point x="1486" y="490"/>
      <point x="1547" y="524"/>
      <point x="1585" y="513" type="qcurve" smooth="yes"/>
      <point x="1621" y="503"/>
      <point x="1659" y="439"/>
      <point x="1647" y="402" type="qcurve" smooth="yes"/>
      <point x="1537" y="63" type="line" smooth="yes"/>
      <point x="1515" y="-2"/>
      <point x="1453" y="-2" type="qcurve" smooth="yes"/>
      <point x="1440" y="-2"/>
      <point x="1426" y="1" type="qcurve" smooth="yes"/>
      <point x="1393" y="11"/>
      <point x="1360" y="58"/>
      <point x="1360" y="83" type="qcurve" smooth="yes"/>
    </contour>
    <contour>
      <point x="1608" y="1241"/>
      <point x="1655" y="1056" type="qcurve"/>
      <point x="1688" y="1056" type="line" smooth="yes"/>
      <point x="1909" y="1056"/>
      <point x="2062" y="902" type="qcurve"/>
      <point x="2117" y="999"/>
      <point x="2117" y="1099" type="qcurve" smooth="yes"/>
      <point x="2117" y="1255"/>
      <point x="1895" y="1474"/>
      <point x="1739" y="1474" type="qcurve" smooth="yes"/>
      <point x="1581" y="1474"/>
      <point x="1474" y="1371" type="qcurve"/>
    </contour>
    <contour>
      <point x="1647" y="2153" type="line" smooth="yes"/>
      <point x="1647" y="2191"/>
      <point x="1701" y="2245"/>
      <point x="1739" y="2245" type="qcurve" smooth="yes"/>
      <point x="1776" y="2245"/>
      <point x="1827" y="2191"/>
      <point x="1827" y="2153" type="qcurve" smooth="yes"/>
      <point x="1827" y="1933" type="line" smooth="yes"/>
      <point x="1827" y="1895"/>
      <point x="1776" y="1841"/>
      <point x="1739" y="1841" type="qcurve" smooth="yes"/>
      <point x="1701" y="1841"/>
      <point x="1647" y="1895"/>
      <point x="1647" y="1933" type="qcurve" smooth="yes"/>
    </contour>
    <contour>
      <point x="2266" y="1753" type="qcurve" smooth="yes"/>
      <point x="2421" y="1906" type="line"/>
      <point x="2447" y="1935"/>
      <point x="2482" y="1935" type="qcurve" smooth="yes"/>
      <point x="2520" y="1935"/>
      <point x="2575" y="1881"/>
      <point x="2575" y="1843" type="qcurve" smooth="yes"/>
      <point x="2575" y="1803"/>
      <point x="2546" y="1779" type="qcurve"/>
      <point x="2392" y="1625" type="line" smooth="yes"/>
      <point x="2365" y="1598"/>
      <point x="2290" y="1597"/>
      <point x="2266" y="1625" type="qcurve"/>
      <point x="2239" y="1650"/>
      <point x="2239" y="1728"/>
    </contour>
    <contour>
      <point x="2325" y="457"/>
      <point x="2378" y="511"/>
      <point x="2452" y="511"/>
      <point x="2477" y="483" type="qcurve"/>
      <point x="2546" y="417" type="line" smooth="yes"/>
      <point x="2575" y="390"/>
      <point x="2575" y="314"/>
      <point x="2546" y="288" type="qcurve"/>
      <point x="2523" y="259"/>
      <point x="2485" y="259" type="qcurve" smooth="yes"/>
      <point x="2444" y="259"/>
      <point x="2421" y="288" type="qcurve"/>
      <point x="2351" y="355" type="line"/>
      <point x="2325" y="383"/>
      <point x="2325" y="419" type="qcurve" smooth="yes"/>
    </contour>
    <contour>
      <point x="2481" y="1136"/>
      <point x="2535" y="1187"/>
      <point x="2575" y="1187" type="qcurve" smooth="yes"/>
      <point x="2792" y="1187" type="line" smooth="yes"/>
      <point x="2831" y="1187"/>
      <point x="2885" y="1136"/>
      <point x="2885" y="1099" type="qcurve" smooth="yes"/>
      <point x="2885" y="1061"/>
      <point x="2830" y="1007"/>
      <point x="2792" y="1007" type="qcurve" smooth="yes"/>
      <point x="2575" y="1007" type="line" smooth="yes"/>
      <point x="2537" y="1007"/>
      <point x="2509" y="1035" type="qcurve" smooth="yes"/>
      <point x="2481" y="1061"/>
      <point x="2481" y="1099" type="qcurve" smooth="yes"/>
    </contour>
  </outline>
</glyph>
<glyph name="uniF005" format="2">
  <advance width="2868"/>
  <unicode hex="E305"/>
  <note>
uniF005
</note>
  <outline>
    <contour>
      <point x="0" y="712"/>
      <point x="230" y="999"/>
      <point x="406" y="1040" type="qcurve"/>
      <point x="455" y="1260"/>
      <point x="804" y="1538"/>
      <point x="1031" y="1538" type="qcurve" smooth="yes"/>
      <point x="1177" y="1538"/>
      <point x="1314" y="1472" type="qcurve"/>
      <point x="1481" y="1657"/>
      <point x="1728" y="1657" type="qcurve" smooth="yes"/>
      <point x="1841" y="1657"/>
      <point x="2048" y="1569"/>
      <point x="2198" y="1419"/>
      <point x="2287" y="1212"/>
      <point x="2287" y="1098" type="qcurve" smooth="yes"/>
      <point x="2287" y="900"/>
      <point x="2160" y="749" type="qcurve"/>
      <point x="2210" y="636"/>
      <point x="2210" y="528" type="qcurve" smooth="yes"/>
      <point x="2210" y="314"/>
      <point x="1915" y="6"/>
      <point x="1702" y="-1" type="qcurve" smooth="yes"/>
      <point x="1681" y="-1"/>
      <point x="1681" y="17" type="qcurve" smooth="yes"/>
      <point x="1681" y="163" type="line" smooth="yes"/>
      <point x="1681" y="182"/>
      <point x="1702" y="182" type="qcurve"/>
      <point x="1841" y="193"/>
      <point x="2031" y="392"/>
      <point x="2031" y="528" type="qcurve" smooth="yes"/>
      <point x="2031" y="670"/>
      <point x="1826" y="872"/>
      <point x="1681" y="872" type="qcurve" smooth="yes"/>
      <point x="1510" y="872" type="line" smooth="yes"/>
      <point x="1490" y="872"/>
      <point x="1490" y="890" type="qcurve"/>
      <point x="1483" y="952" type="line" smooth="yes"/>
      <point x="1464" y="1126"/>
      <point x="1205" y="1358"/>
      <point x="1031" y="1358" type="qcurve" smooth="yes"/>
      <point x="855" y="1358"/>
      <point x="596" y="1125"/>
      <point x="579" y="952" type="qcurve" smooth="yes"/>
      <point x="573" y="898" type="line"/>
      <point x="573" y="880"/>
      <point x="552" y="880" type="qcurve"/>
      <point x="496" y="872" type="line"/>
      <point x="363" y="861"/>
      <point x="182" y="662"/>
      <point x="182" y="528" type="qcurve" smooth="yes"/>
      <point x="182" y="392"/>
      <point x="372" y="193"/>
      <point x="511" y="182" type="qcurve"/>
      <point x="529" y="182"/>
      <point x="529" y="163" type="qcurve" smooth="yes"/>
      <point x="529" y="17" type="line" smooth="yes"/>
      <point x="529" y="-1"/>
      <point x="511" y="-1" type="qcurve" smooth="yes"/>
      <point x="297" y="9"/>
      <point x="0" y="315"/>
      <point x="0" y="528" type="qcurve" smooth="yes"/>
    </contour>
    <contour>
      <point x="1063" y="10" type="line"/>
      <point x="832" y="10" type="line" smooth="yes"/>
      <point x="813" y="10"/>
      <point x="817" y="32" type="qcurve"/>
      <point x="1047" y="642" type="line"/>
      <point x="1057" y="657"/>
      <point x="1070" y="657" type="qcurve" smooth="yes"/>
      <point x="1384" y="657" type="line" smooth="yes"/>
      <point x="1411" y="657"/>
      <point x="1399" y="634" type="qcurve" smooth="yes"/>
      <point x="1154" y="185" type="line"/>
      <point x="1387" y="185" type="line" smooth="yes"/>
      <point x="1398" y="185"/>
      <point x="1405" y="170"/>
      <point x="1399" y="163" type="qcurve"/>
      <point x="832" y="-674" type="line"/>
      <point x="800" y="-674" type="line"/>
    </contour>
    <contour>
      <point x="894" y="1879"/>
      <point x="948" y="1933"/>
      <point x="985" y="1933" type="qcurve" smooth="yes"/>
      <point x="1021" y="1933"/>
      <point x="1051" y="1906" type="qcurve"/>
      <point x="1119" y="1837" type="line" smooth="yes"/>
      <point x="1145" y="1811"/>
      <point x="1145" y="1774" type="qcurve" smooth="yes"/>
      <point x="1145" y="1735"/>
      <point x="1119" y="1706" type="qcurve"/>
      <point x="1057" y="1655"/>
      <point x="990" y="1706" type="qcurve"/>
      <point x="920" y="1775" type="line" smooth="yes"/>
      <point x="894" y="1801"/>
      <point x="894" y="1841" type="qcurve" smooth="yes"/>
    </contour>
    <contour>
      <point x="1605" y="1237"/>
      <point x="1648" y="1055" type="qcurve"/>
      <point x="1681" y="1055" type="line" smooth="yes"/>
      <point x="1894" y="1055"/>
      <point x="2050" y="905" type="qcurve"/>
      <point x="2104" y="1001"/>
      <point x="2104" y="1098" type="qcurve" smooth="yes"/>
      <point x="2104" y="1256"/>
      <point x="1884" y="1478"/>
      <point x="1728" y="1478" type="qcurve" smooth="yes"/>
      <point x="1573" y="1478"/>
      <point x="1464" y="1369" type="qcurve"/>
    </contour>
    <contour>
      <point x="1637" y="2151" type="line" smooth="yes"/>
      <point x="1637" y="2189"/>
      <point x="1690" y="2239"/>
      <point x="1766" y="2239"/>
      <point x="1816" y="2189"/>
      <point x="1816" y="2151" type="qcurve" smooth="yes"/>
      <point x="1816" y="1933" type="line" smooth="yes"/>
      <point x="1816" y="1892"/>
      <point x="1766" y="1841"/>
      <point x="1728" y="1841" type="qcurve" smooth="yes"/>
      <point x="1688" y="1841"/>
      <point x="1637" y="1893"/>
      <point x="1637" y="1933" type="qcurve" smooth="yes"/>
    </contour>
    <contour>
      <point x="2225" y="1722"/>
      <point x="2254" y="1753" type="qcurve" smooth="yes"/>
      <point x="2407" y="1906" type="line" smooth="yes"/>
      <point x="2434" y="1933"/>
      <point x="2469" y="1933" type="qcurve" smooth="yes"/>
      <point x="2507" y="1933"/>
      <point x="2560" y="1881"/>
      <point x="2560" y="1842" type="qcurve" smooth="yes"/>
      <point x="2560" y="1804"/>
      <point x="2533" y="1775" type="qcurve" smooth="yes"/>
      <point x="2379" y="1622" type="line"/>
      <point x="2339" y="1595"/>
      <point x="2313" y="1595" type="qcurve" smooth="yes"/>
      <point x="2283" y="1595"/>
      <point x="2225" y="1649"/>
      <point x="2225" y="1686" type="qcurve" smooth="yes"/>
    </contour>
    <contour>
      <point x="2364" y="514"/>
      <point x="2401" y="514" type="qcurve" smooth="yes"/>
      <point x="2437" y="514"/>
      <point x="2467" y="489" type="qcurve"/>
      <point x="2533" y="419" type="line"/>
      <point x="2560" y="394"/>
      <point x="2560" y="358" type="qcurve" smooth="yes"/>
      <point x="2560" y="318"/>
      <point x="2507" y="264"/>
      <point x="2469" y="264" type="qcurve" smooth="yes"/>
      <point x="2433" y="264"/>
      <point x="2407" y="290" type="qcurve" smooth="yes"/>
      <point x="2338" y="360" type="line" smooth="yes"/>
      <point x="2312" y="388"/>
      <point x="2312" y="462"/>
    </contour>
    <contour>
      <point x="2467" y="1136"/>
      <point x="2522" y="1190"/>
      <point x="2559" y="1190" type="qcurve" smooth="yes"/>
      <point x="2777" y="1190" type="line" smooth="yes"/>
      <point x="2814" y="1190"/>
      <point x="2869" y="1136"/>
      <point x="2869" y="1098" type="qcurve" smooth="yes"/>
      <point x="2869" y="1061"/>
      <point x="2815" y="1010"/>
      <point x="2777" y="1010" type="qcurve" smooth="yes"/>
      <point x="2559" y="1010" type="line" smooth="yes"/>
      <point x="2522" y="1010"/>
      <point x="2495" y="1037" type="qcurve" smooth="yes"/>
      <point x="2467" y="1063"/>
      <point x="2467" y="1098" type="qcurve" smooth="yes"/>
    </contour>
  </outline>
</glyph>
<glyph name="uniF006" format="2">
  <advance width="2885"/>
  <unicode hex="E306"/>
  <note>
uniF006
</note>
  <outline>
    <contour>
      <point x="0" y="709"/>
      <point x="226" y="996"/>
      <point x="406" y="1037" type="qcurve"/>
      <point x="455" y="1257"/>
      <point x="800" y="1537"/>
      <point x="1026" y="1537" type="qcurve" smooth="yes"/>
      <point x="1175" y="1537"/>
      <point x="1318" y="1467" type="qcurve"/>
      <point x="1484" y="1653"/>
      <point x="1730" y="1653" type="qcurve" smooth="yes"/>
      <point x="1844" y="1653"/>
      <point x="2051" y="1564"/>
      <point x="2201" y="1414"/>
      <point x="2289" y="1207"/>
      <point x="2289" y="1094" type="qcurve" smooth="yes"/>
      <point x="2289" y="891"/>
      <point x="2165" y="737" type="qcurve"/>
      <point x="2206" y="631"/>
      <point x="2206" y="523" type="qcurve" smooth="yes"/>
      <point x="2206" y="310"/>
      <point x="1914" y="6"/>
      <point x="1701" y="-1" type="qcurve" smooth="yes"/>
      <point x="1680" y="-1"/>
      <point x="1680" y="17" type="qcurve" smooth="yes"/>
      <point x="1680" y="159" type="line" smooth="yes"/>
      <point x="1680" y="178"/>
      <point x="1701" y="178" type="qcurve" smooth="yes"/>
      <point x="1838" y="185"/>
      <point x="2026" y="384"/>
      <point x="2026" y="523" type="qcurve" smooth="yes"/>
      <point x="2026" y="667"/>
      <point x="1822" y="872"/>
      <point x="1680" y="872" type="qcurve" smooth="yes"/>
      <point x="1509" y="872" type="line" smooth="yes"/>
      <point x="1490" y="872"/>
      <point x="1486" y="890" type="qcurve"/>
      <point x="1479" y="952" type="line" smooth="yes"/>
      <point x="1462" y="1124"/>
      <point x="1201" y="1354"/>
      <point x="851" y="1354"/>
      <point x="596" y="1124"/>
      <point x="576" y="949" type="qcurve" smooth="yes"/>
      <point x="568" y="890" type="line"/>
      <point x="568" y="875"/>
      <point x="551" y="875" type="qcurve"/>
      <point x="495" y="867" type="line"/>
      <point x="361" y="856"/>
      <point x="181" y="658"/>
      <point x="181" y="523" type="qcurve" smooth="yes"/>
      <point x="181" y="384"/>
      <point x="369" y="185"/>
      <point x="506" y="178" type="qcurve" smooth="yes"/>
      <point x="525" y="178"/>
      <point x="525" y="159" type="qcurve" smooth="yes"/>
      <point x="525" y="17" type="line" smooth="yes"/>
      <point x="525" y="-1"/>
      <point x="506" y="-1" type="qcurve" smooth="yes"/>
      <point x="292" y="9"/>
      <point x="0" y="311"/>
      <point x="0" y="523" type="qcurve" smooth="yes"/>
    </contour>
    <contour>
      <point x="571" y="-216"/>
      <point x="574" y="-207" type="qcurve" smooth="yes"/>
      <point x="589" y="-144" type="line" smooth="yes"/>
      <point x="599" y="-106"/>
      <point x="663" y="-68"/>
      <point x="699" y="-79" type="qcurve" smooth="yes"/>
      <point x="736" y="-90"/>
      <point x="773" y="-153"/>
      <point x="765" y="-189" type="qcurve" smooth="yes"/>
      <point x="750" y="-254" type="line" smooth="yes"/>
      <point x="739" y="-299"/>
      <point x="676" y="-329"/>
      <point x="639" y="-318" type="qcurve" smooth="yes"/>
      <point x="606" y="-308"/>
      <point x="571" y="-254"/>
      <point x="571" y="-227" type="qcurve" smooth="yes"/>
    </contour>
    <contour>
      <point x="653" y="120"/>
      <point x="702" y="170"/>
      <point x="739" y="170" type="qcurve" smooth="yes"/>
      <point x="777" y="170"/>
      <point x="830" y="119"/>
      <point x="830" y="45"/>
      <point x="777" y="-6"/>
      <point x="739" y="-6" type="qcurve" smooth="yes"/>
      <point x="704" y="-6"/>
      <point x="679" y="21" type="qcurve" smooth="yes"/>
      <point x="653" y="47"/>
      <point x="653" y="82" type="qcurve" smooth="yes"/>
    </contour>
    <contour>
      <point x="718" y="326"/>
      <point x="721" y="353" type="qcurve"/>
      <point x="747" y="451" type="line" smooth="yes"/>
      <point x="758" y="486"/>
      <point x="823" y="522"/>
      <point x="858" y="511" type="qcurve" smooth="yes"/>
      <point x="897" y="500"/>
      <point x="935" y="439"/>
      <point x="923" y="400" type="qcurve" smooth="yes"/>
      <point x="894" y="304" type="line" smooth="yes"/>
      <point x="883" y="267"/>
      <point x="816" y="232"/>
      <point x="783" y="242" type="qcurve" smooth="yes"/>
      <point x="748" y="253"/>
      <point x="716" y="300"/>
      <point x="718" y="325" type="qcurve" smooth="yes"/>
    </contour>
    <contour>
      <point x="841" y="-554"/>
      <point x="845" y="-536" type="qcurve" smooth="yes"/>
      <point x="859" y="-473" type="line"/>
      <point x="870" y="-437"/>
      <point x="936" y="-400"/>
      <point x="970" y="-411" type="qcurve"/>
      <point x="1007" y="-418"/>
      <point x="1045" y="-482"/>
      <point x="1035" y="-523" type="qcurve" smooth="yes"/>
      <point x="1021" y="-586" type="line" smooth="yes"/>
      <point x="1005" y="-651"/>
      <point x="936" y="-651" type="qcurve" smooth="yes"/>
      <point x="924" y="-651"/>
      <point x="910" y="-648" type="qcurve" smooth="yes"/>
      <point x="875" y="-638"/>
      <point x="841" y="-587"/>
      <point x="841" y="-560" type="qcurve" smooth="yes"/>
    </contour>
    <contour>
      <point x="954" y="1926"/>
      <point x="991" y="1926" type="qcurve" smooth="yes"/>
      <point x="1029" y="1923"/>
      <point x="1054" y="1898" type="qcurve" smooth="yes"/>
      <point x="1121" y="1829" type="line" smooth="yes"/>
      <point x="1147" y="1803"/>
      <point x="1147" y="1765" type="qcurve" smooth="yes"/>
      <point x="1147" y="1728"/>
      <point x="1121" y="1702" type="qcurve" smooth="yes"/>
      <point x="1090" y="1672"/>
      <point x="1019" y="1677"/>
      <point x="997" y="1702" type="qcurve"/>
      <point x="927" y="1770" type="line" smooth="yes"/>
      <point x="901" y="1796"/>
      <point x="901" y="1872"/>
    </contour>
    <contour>
      <point x="925" y="-213"/>
      <point x="975" y="-163"/>
      <point x="1051" y="-163"/>
      <point x="1101" y="-213"/>
      <point x="1101" y="-250" type="qcurve" smooth="yes"/>
      <point x="1101" y="-288"/>
      <point x="1051" y="-338"/>
      <point x="1013" y="-338" type="qcurve" smooth="yes"/>
      <point x="977" y="-338"/>
      <point x="925" y="-286"/>
      <point x="925" y="-250" type="qcurve" smooth="yes"/>
    </contour>
    <contour>
      <point x="991" y="8"/>
      <point x="994" y="21" type="qcurve" smooth="yes"/>
      <point x="1018" y="117" type="line" smooth="yes"/>
      <point x="1029" y="154"/>
      <point x="1095" y="193"/>
      <point x="1130" y="182" type="qcurve" smooth="yes"/>
      <point x="1168" y="171"/>
      <point x="1205" y="107"/>
      <point x="1194" y="72" type="qcurve" smooth="yes"/>
      <point x="1166" y="-24" type="line" smooth="yes"/>
      <point x="1153" y="-68"/>
      <point x="1091" y="-100"/>
      <point x="1054" y="-90" type="qcurve" smooth="yes"/>
      <point x="1022" y="-84"/>
      <point x="989" y="-32"/>
      <point x="991" y="-8" type="qcurve" smooth="yes"/>
    </contour>
    <contour>
      <point x="1286" y="-232"/>
      <point x="1289" y="-212"/>
      <point x="1289" y="-210" type="qcurve" smooth="yes"/>
      <point x="1299" y="-147" type="line"/>
      <point x="1310" y="-109"/>
      <point x="1375" y="-72"/>
      <point x="1415" y="-82" type="qcurve" smooth="yes"/>
      <point x="1451" y="-93"/>
      <point x="1488" y="-159"/>
      <point x="1477" y="-193" type="qcurve"/>
      <point x="1462" y="-257" type="line" smooth="yes"/>
      <point x="1446" y="-327"/>
      <point x="1381" y="-327" type="qcurve" smooth="yes"/>
      <point x="1376" y="-327"/>
      <point x="1356" y="-323"/>
      <point x="1351" y="-323" type="qcurve"/>
      <point x="1318" y="-313"/>
      <point x="1286" y="-264"/>
      <point x="1286" y="-237" type="qcurve" smooth="yes"/>
    </contour>
    <contour>
      <point x="1365" y="116"/>
      <point x="1415" y="166"/>
      <point x="1491" y="166"/>
      <point x="1541" y="116"/>
      <point x="1541" y="78" type="qcurve" smooth="yes"/>
      <point x="1541" y="41"/>
      <point x="1491" y="-9"/>
      <point x="1415" y="-9"/>
      <point x="1391" y="17" type="qcurve" smooth="yes"/>
      <point x="1365" y="41"/>
      <point x="1365" y="78" type="qcurve" smooth="yes"/>
    </contour>
    <contour>
      <point x="1430" y="330"/>
      <point x="1433" y="347"/>
      <point x="1433" y="350" type="qcurve"/>
      <point x="1463" y="447" type="line" smooth="yes"/>
      <point x="1474" y="484"/>
      <point x="1537" y="518"/>
      <point x="1574" y="507" type="qcurve" smooth="yes"/>
      <point x="1610" y="496"/>
      <point x="1645" y="433"/>
      <point x="1635" y="397" type="qcurve" smooth="yes"/>
      <point x="1609" y="301" type="line" smooth="yes"/>
      <point x="1599" y="262"/>
      <point x="1566" y="245" type="qcurve" smooth="yes"/>
      <point x="1544" y="235"/>
      <point x="1527" y="235" type="qcurve" smooth="yes"/>
      <point x="1522" y="235"/>
      <point x="1502" y="239"/>
      <point x="1499" y="239" type="qcurve"/>
      <point x="1464" y="249"/>
      <point x="1430" y="298"/>
      <point x="1430" y="325" type="qcurve" smooth="yes"/>
    </contour>
    <contour>
      <point x="1602" y="1226"/>
      <point x="1647" y="1051" type="qcurve"/>
      <point x="1680" y="1051" type="line" smooth="yes"/>
      <point x="1896" y="1051"/>
      <point x="2053" y="894" type="qcurve"/>
      <point x="2110" y="988"/>
      <point x="2110" y="1094" type="qcurve" smooth="yes"/>
      <point x="2110" y="1250"/>
      <point x="1888" y="1467"/>
      <point x="1730" y="1467" type="qcurve" smooth="yes"/>
      <point x="1573" y="1467"/>
      <point x="1467" y="1361" type="qcurve"/>
    </contour>
    <contour>
      <point x="1643" y="2143" type="line" smooth="yes"/>
      <point x="1643" y="2181"/>
      <point x="1693" y="2234"/>
      <point x="1730" y="2234" type="qcurve" smooth="yes"/>
      <point x="1768" y="2234"/>
      <point x="1823" y="2180"/>
      <point x="1823" y="2143" type="qcurve" smooth="yes"/>
      <point x="1823" y="1923" type="line" smooth="yes"/>
      <point x="1823" y="1886"/>
      <point x="1769" y="1837"/>
      <point x="1730" y="1837" type="qcurve" smooth="yes"/>
      <point x="1692" y="1837"/>
      <point x="1643" y="1886"/>
      <point x="1643" y="1923" type="qcurve" smooth="yes"/>
    </contour>
    <contour>
      <point x="2256" y="1744" type="qcurve" smooth="yes"/>
      <point x="2409" y="1902" type="line"/>
      <point x="2437" y="1928"/>
      <point x="2474" y="1928" type="qcurve" smooth="yes"/>
      <point x="2512" y="1928"/>
      <point x="2565" y="1875"/>
      <point x="2565" y="1837" type="qcurve" smooth="yes"/>
      <point x="2565" y="1797"/>
      <point x="2538" y="1770" type="qcurve" smooth="yes"/>
      <point x="2385" y="1617" type="line"/>
      <point x="2313" y="1560"/>
      <point x="2256" y="1617" type="qcurve" smooth="yes"/>
      <point x="2232" y="1641"/>
      <point x="2232" y="1721"/>
    </contour>
    <contour>
      <point x="2344" y="481" type="qcurve" smooth="yes"/>
      <point x="2371" y="508"/>
      <point x="2445" y="508"/>
      <point x="2469" y="481" type="qcurve"/>
      <point x="2538" y="416" type="line"/>
      <point x="2565" y="386"/>
      <point x="2565" y="350" type="qcurve" smooth="yes"/>
      <point x="2565" y="312"/>
      <point x="2538" y="287" type="qcurve" smooth="yes"/>
      <point x="2506" y="261"/>
      <point x="2474" y="261" type="qcurve" smooth="yes"/>
      <point x="2441" y="261"/>
      <point x="2409" y="287" type="qcurve"/>
      <point x="2344" y="354" type="line"/>
      <point x="2315" y="380"/>
      <point x="2315" y="454"/>
    </contour>
    <contour>
      <point x="2473" y="1131"/>
      <point x="2529" y="1185"/>
      <point x="2567" y="1185" type="qcurve" smooth="yes"/>
      <point x="2783" y="1185" type="line" smooth="yes"/>
      <point x="2820" y="1185"/>
      <point x="2871" y="1132"/>
      <point x="2871" y="1056"/>
      <point x="2820" y="1002"/>
      <point x="2783" y="1002" type="qcurve" smooth="yes"/>
      <point x="2567" y="1002" type="line" smooth="yes"/>
      <point x="2530" y="1002"/>
      <point x="2501" y="1031" type="qcurve" smooth="yes"/>
      <point x="2473" y="1056"/>
      <point x="2473" y="1094" type="qcurve" smooth="yes"/>
    </contour>
  </outline>
</glyph>
<glyph name="uniF007" format="2">
  <advance width="2885"/>
  <unicode hex="E307"/>
  <note>
uniF007
</note>
  <outline>
    <contour>
      <point x="0" y="712"/>
      <point x="233" y="1000"/>
      <point x="414" y="1041" type="qcurve"/>
      <point x="461" y="1260"/>
      <point x="809" y="1541"/>
      <point x="1035" y="1541" type="qcurve" smooth="yes"/>
      <point x="1198" y="1541"/>
      <point x="1325" y="1471" type="qcurve"/>
      <point x="1499" y="1657"/>
      <point x="1739" y="1657" type="qcurve" smooth="yes"/>
      <point x="1853" y="1657"/>
      <point x="2061" y="1567"/>
      <point x="2212" y="1417"/>
      <point x="2302" y="1209"/>
      <point x="2302" y="1096" type="qcurve" smooth="yes"/>
      <point x="2302" y="894"/>
      <point x="2176" y="741" type="qcurve"/>
      <point x="2221" y="642"/>
      <point x="2221" y="527" type="qcurve" smooth="yes"/>
      <point x="2221" y="394"/>
      <point x="2095" y="160"/>
      <point x="1878" y="12"/>
      <point x="1747" y="-1" type="qcurve"/>
      <point x="1542" y="-263" type="line" smooth="yes"/>
      <point x="1518" y="-296"/>
      <point x="1439" y="-306"/>
      <point x="1415" y="-279" type="qcurve"/>
      <point x="1387" y="-256"/>
      <point x="1377" y="-182"/>
      <point x="1399" y="-152" type="qcurve" smooth="yes"/>
      <point x="1633" y="149" type="line" smooth="yes"/>
      <point x="1651" y="170"/>
      <point x="1729" y="179" type="qcurve" smooth="yes"/>
      <point x="1859" y="190"/>
      <point x="2040" y="392"/>
      <point x="2040" y="527" type="qcurve" smooth="yes"/>
      <point x="2040" y="669"/>
      <point x="1836" y="872"/>
      <point x="1695" y="872" type="qcurve" smooth="yes"/>
      <point x="1520" y="872" type="line" smooth="yes"/>
      <point x="1504" y="872"/>
      <point x="1497" y="890" type="qcurve"/>
      <point x="1490" y="953" type="line" smooth="yes"/>
      <point x="1473" y="1126"/>
      <point x="1211" y="1360"/>
      <point x="1035" y="1360" type="qcurve" smooth="yes"/>
      <point x="860" y="1360"/>
      <point x="600" y="1126"/>
      <point x="583" y="953" type="qcurve" smooth="yes"/>
      <point x="575" y="895" type="line"/>
      <point x="575" y="875"/>
      <point x="554" y="875" type="qcurve" smooth="yes"/>
      <point x="502" y="872" type="line"/>
      <point x="367" y="856"/>
      <point x="186" y="660"/>
      <point x="186" y="527" type="qcurve" smooth="yes"/>
      <point x="186" y="382"/>
      <point x="390" y="175"/>
      <point x="533" y="175" type="qcurve"/>
      <point x="408" y="25" type="line"/>
      <point x="397" y="15"/>
      <point x="382" y="17" type="qcurve"/>
      <point x="214" y="64"/>
      <point x="0" y="347"/>
      <point x="0" y="527" type="qcurve" smooth="yes"/>
    </contour>
    <contour>
      <point x="406" y="-326"/>
      <point x="419" y="-285" type="qcurve" smooth="yes"/>
      <point x="432" y="-250"/>
      <point x="503" y="-222"/>
      <point x="538" y="-238" type="qcurve" smooth="yes"/>
      <point x="571" y="-254"/>
      <point x="600" y="-321"/>
      <point x="585" y="-354" type="qcurve" smooth="yes"/>
      <point x="572" y="-389"/>
      <point x="500" y="-419"/>
      <point x="465" y="-403" type="qcurve" smooth="yes"/>
      <point x="428" y="-387"/>
      <point x="416" y="-352" type="qcurve" smooth="yes"/>
    </contour>
    <contour>
      <point x="609" y="-29"/>
      <point x="630" y="-3" type="qcurve" smooth="yes"/>
      <point x="859" y="296" type="line"/>
      <point x="885" y="325"/>
      <point x="962" y="333"/>
      <point x="991" y="309" type="qcurve" smooth="yes"/>
      <point x="1019" y="287"/>
      <point x="1025" y="210"/>
      <point x="1002" y="181" type="qcurve" smooth="yes"/>
      <point x="769" y="-120" type="line" smooth="yes"/>
      <point x="747" y="-148"/>
      <point x="669" y="-154"/>
      <point x="641" y="-130" type="qcurve" smooth="yes"/>
      <point x="612" y="-106"/>
      <point x="609" y="-71" type="qcurve" smooth="yes"/>
      <point x="609" y="-59" type="line" smooth="yes"/>
    </contour>
    <contour>
      <point x="664" y="-558"/>
      <point x="672" y="-541" type="qcurve"/>
      <point x="684" y="-507"/>
      <point x="757" y="-478"/>
      <point x="792" y="-494" type="qcurve" smooth="yes"/>
      <point x="826" y="-507"/>
      <point x="853" y="-579"/>
      <point x="837" y="-614" type="qcurve" smooth="yes"/>
      <point x="824" y="-648"/>
      <point x="790" y="-661" type="qcurve"/>
      <point x="772" y="-666"/>
      <point x="757" y="-666" type="qcurve" smooth="yes"/>
      <point x="737" y="-666"/>
      <point x="719" y="-659" type="qcurve" smooth="yes"/>
      <point x="684" y="-645"/>
      <point x="670" y="-610" type="qcurve"/>
      <point x="664" y="-588"/>
      <point x="664" y="-578" type="qcurve" smooth="yes"/>
    </contour>
    <contour>
      <point x="842" y="-294"/>
      <point x="862" y="-270" type="qcurve" smooth="yes"/>
      <point x="1306" y="291" type="line" smooth="yes"/>
      <point x="1329" y="320"/>
      <point x="1403" y="329"/>
      <point x="1432" y="306" type="qcurve" smooth="yes"/>
      <point x="1461" y="280"/>
      <point x="1469" y="207"/>
      <point x="1447" y="175" type="qcurve"/>
      <point x="1005" y="-383" type="line" smooth="yes"/>
      <point x="981" y="-415"/>
      <point x="901" y="-424"/>
      <point x="877" y="-398" type="qcurve"/>
      <point x="845" y="-372"/>
      <point x="842" y="-336" type="qcurve" smooth="yes"/>
      <point x="842" y="-325" type="line" smooth="yes"/>
    </contour>
    <contour>
      <point x="904" y="1877"/>
      <point x="958" y="1929"/>
      <point x="997" y="1929" type="qcurve" smooth="yes"/>
      <point x="1035" y="1929"/>
      <point x="1059" y="1903" type="qcurve" smooth="yes"/>
      <point x="1128" y="1834" type="line" smooth="yes"/>
      <point x="1154" y="1806"/>
      <point x="1154" y="1770" type="qcurve" smooth="yes"/>
      <point x="1154" y="1731"/>
      <point x="1089" y="1673"/>
      <point x="1056" y="1678" type="qcurve" smooth="yes"/>
      <point x="1023" y="1681"/>
      <point x="998" y="1706" type="qcurve" smooth="yes"/>
      <point x="933" y="1776" type="line"/>
      <point x="904" y="1800"/>
      <point x="904" y="1839" type="qcurve" smooth="yes"/>
    </contour>
    <contour>
      <point x="1218" y="-427"/>
      <point x="1225" y="-409" type="qcurve" smooth="yes"/>
      <point x="1238" y="-375"/>
      <point x="1311" y="-347"/>
      <point x="1346" y="-363" type="qcurve" smooth="yes"/>
      <point x="1380" y="-376"/>
      <point x="1407" y="-447"/>
      <point x="1391" y="-482" type="qcurve" smooth="yes"/>
      <point x="1378" y="-517"/>
      <point x="1342" y="-531" type="qcurve"/>
      <point x="1320" y="-537"/>
      <point x="1310" y="-537" type="qcurve" smooth="yes"/>
      <point x="1290" y="-537"/>
      <point x="1273" y="-529" type="qcurve" smooth="yes"/>
      <point x="1239" y="-515"/>
      <point x="1225" y="-480" type="qcurve" smooth="yes"/>
      <point x="1218" y="-466"/>
      <point x="1218" y="-447" type="qcurve" smooth="yes"/>
    </contour>
    <contour>
      <point x="1615" y="1237"/>
      <point x="1659" y="1053" type="qcurve"/>
      <point x="1695" y="1053" type="line" smooth="yes"/>
      <point x="1911" y="1053"/>
      <point x="2066" y="898" type="qcurve"/>
      <point x="2121" y="990"/>
      <point x="2121" y="1096" type="qcurve" smooth="yes"/>
      <point x="2121" y="1252"/>
      <point x="1897" y="1471"/>
      <point x="1739" y="1471" type="qcurve" smooth="yes"/>
      <point x="1588" y="1471"/>
      <point x="1475" y="1368" type="qcurve"/>
    </contour>
    <contour>
      <point x="1648" y="2150" type="line" smooth="yes"/>
      <point x="1648" y="2188"/>
      <point x="1702" y="2241"/>
      <point x="1739" y="2241" type="qcurve" smooth="yes"/>
      <point x="1777" y="2241"/>
      <point x="1832" y="2187"/>
      <point x="1832" y="2150" type="qcurve" smooth="yes"/>
      <point x="1832" y="1929" type="line" smooth="yes"/>
      <point x="1832" y="1892"/>
      <point x="1778" y="1841"/>
      <point x="1739" y="1841" type="qcurve" smooth="yes"/>
      <point x="1701" y="1841"/>
      <point x="1648" y="1892"/>
      <point x="1648" y="1929" type="qcurve" smooth="yes"/>
    </contour>
    <contour>
      <point x="2267" y="1750" type="qcurve" smooth="yes"/>
      <point x="2422" y="1907" type="line" smooth="yes"/>
      <point x="2451" y="1934"/>
      <point x="2486" y="1934" type="qcurve" smooth="yes"/>
      <point x="2523" y="1934"/>
      <point x="2578" y="1879"/>
      <point x="2578" y="1841" type="qcurve" smooth="yes"/>
      <point x="2578" y="1802"/>
      <point x="2552" y="1776" type="qcurve" smooth="yes"/>
      <point x="2393" y="1622" type="line"/>
      <point x="2370" y="1594"/>
      <point x="2295" y="1595"/>
      <point x="2267" y="1622" type="qcurve" smooth="yes"/>
      <point x="2243" y="1648"/>
      <point x="2243" y="1724"/>
    </contour>
    <contour>
      <point x="2380" y="507"/>
      <point x="2419" y="507" type="qcurve" smooth="yes"/>
      <point x="2456" y="507"/>
      <point x="2482" y="480" type="qcurve" smooth="yes"/>
      <point x="2552" y="414" type="line"/>
      <point x="2578" y="385"/>
      <point x="2578" y="347" type="qcurve" smooth="yes"/>
      <point x="2578" y="311"/>
      <point x="2552" y="285" type="qcurve"/>
      <point x="2514" y="256"/>
      <point x="2486" y="256" type="qcurve" smooth="yes"/>
      <point x="2480" y="256" type="line" smooth="yes"/>
      <point x="2448" y="259"/>
      <point x="2422" y="285" type="qcurve" smooth="yes"/>
      <point x="2352" y="352" type="line" smooth="yes"/>
      <point x="2326" y="378"/>
      <point x="2326" y="454"/>
    </contour>
    <contour>
      <point x="2486" y="1133"/>
      <point x="2538" y="1184"/>
      <point x="2576" y="1184" type="qcurve" smooth="yes"/>
      <point x="2794" y="1184" type="line" smooth="yes"/>
      <point x="2832" y="1184"/>
      <point x="2886" y="1133"/>
      <point x="2886" y="1096" type="qcurve" smooth="yes"/>
      <point x="2886" y="1058"/>
      <point x="2832" y="1003"/>
      <point x="2794" y="1003" type="qcurve" smooth="yes"/>
      <point x="2576" y="1003" type="line" smooth="yes"/>
      <point x="2538" y="1003"/>
      <point x="2512" y="1032" type="qcurve" smooth="yes"/>
      <point x="2486" y="1058"/>
      <point x="2486" y="1096" type="qcurve" smooth="yes"/>
    </contour>
  </outline>
</glyph>
<glyph name="uniF008" format="2">
  <advance width="2877"/>
  <unicode hex="E308"/>
  <note>
uniF008
</note>
  <outline>
    <contour>
      <point x="0" y="713"/>
      <point x="230" y="1000"/>
      <point x="407" y="1042" type="qcurve"/>
      <point x="456" y="1260"/>
      <point x="806" y="1541"/>
      <point x="1032" y="1541" type="qcurve" smooth="yes"/>
      <point x="1190" y="1541"/>
      <point x="1321" y="1471" type="qcurve"/>
      <point x="1486" y="1657"/>
      <point x="1735" y="1657" type="qcurve" smooth="yes"/>
      <point x="1886" y="1657"/>
      <point x="2144" y="1507"/>
      <point x="2295" y="1248"/>
      <point x="2295" y="1096" type="qcurve" smooth="yes"/>
      <point x="2295" y="898"/>
      <point x="2170" y="743" type="qcurve"/>
      <point x="2215" y="644"/>
      <point x="2215" y="529" type="qcurve" smooth="yes"/>
      <point x="2215" y="315"/>
      <point x="1918" y="6"/>
      <point x="1705" y="-1" type="qcurve" smooth="yes"/>
      <point x="1685" y="-1"/>
      <point x="1685" y="17" type="qcurve" smooth="yes"/>
      <point x="1685" y="160" type="line" smooth="yes"/>
      <point x="1685" y="178"/>
      <point x="1705" y="178" type="qcurve" smooth="yes"/>
      <point x="1842" y="185"/>
      <point x="2034" y="390"/>
      <point x="2034" y="529" type="qcurve" smooth="yes"/>
      <point x="2034" y="669"/>
      <point x="1827" y="873"/>
      <point x="1685" y="873" type="qcurve" smooth="yes"/>
      <point x="1512" y="873" type="line" smooth="yes"/>
      <point x="1494" y="873"/>
      <point x="1494" y="893" type="qcurve"/>
      <point x="1486" y="954" type="line" smooth="yes"/>
      <point x="1468" y="1127"/>
      <point x="1206" y="1361"/>
      <point x="1032" y="1361" type="qcurve" smooth="yes"/>
      <point x="857" y="1361"/>
      <point x="598" y="1127"/>
      <point x="581" y="954" type="qcurve" smooth="yes"/>
      <point x="574" y="896" type="line"/>
      <point x="574" y="878"/>
      <point x="553" y="878" type="qcurve"/>
      <point x="497" y="873" type="line" smooth="yes"/>
      <point x="363" y="857"/>
      <point x="182" y="661"/>
      <point x="182" y="529" type="qcurve" smooth="yes"/>
      <point x="182" y="390"/>
      <point x="375" y="185"/>
      <point x="512" y="178" type="qcurve" smooth="yes"/>
      <point x="530" y="178"/>
      <point x="530" y="160" type="qcurve" smooth="yes"/>
      <point x="530" y="17" type="line" smooth="yes"/>
      <point x="530" y="-1"/>
      <point x="512" y="-1" type="qcurve" smooth="yes"/>
      <point x="297" y="9"/>
      <point x="0" y="316"/>
      <point x="0" y="529" type="qcurve" smooth="yes"/>
    </contour>
    <contour>
      <point x="576" y="-199"/>
      <point x="581" y="-179" type="qcurve" smooth="yes"/>
      <point x="750" y="451" type="line" smooth="yes"/>
      <point x="761" y="487"/>
      <point x="826" y="523"/>
      <point x="861" y="512" type="qcurve"/>
      <point x="898" y="505"/>
      <point x="937" y="439"/>
      <point x="926" y="401" type="qcurve" smooth="yes"/>
      <point x="757" y="-226" type="line" smooth="yes"/>
      <point x="738" y="-294"/>
      <point x="675" y="-294" type="qcurve" smooth="yes"/>
      <point x="664" y="-294"/>
      <point x="646" y="-290" type="qcurve" smooth="yes"/>
      <point x="611" y="-280"/>
      <point x="576" y="-229"/>
      <point x="576" y="-202" type="qcurve" smooth="yes"/>
    </contour>
    <contour>
      <point x="854" y="-529"/>
      <point x="857" y="-502" type="qcurve"/>
      <point x="1113" y="451" type="line" smooth="yes"/>
      <point x="1123" y="487"/>
      <point x="1188" y="523"/>
      <point x="1225" y="512" type="qcurve" smooth="yes"/>
      <point x="1261" y="501"/>
      <point x="1296" y="438"/>
      <point x="1286" y="401" type="qcurve" smooth="yes"/>
      <point x="1030" y="-552" type="line"/>
      <point x="1024" y="-585"/>
      <point x="978" y="-622"/>
      <point x="953" y="-622" type="qcurve" smooth="yes"/>
      <point x="943" y="-622"/>
      <point x="925" y="-618" type="qcurve" smooth="yes"/>
      <point x="886" y="-612"/>
      <point x="854" y="-561"/>
      <point x="854" y="-531" type="qcurve" smooth="yes"/>
    </contour>
    <contour>
      <point x="954" y="1933"/>
      <point x="993" y="1933" type="qcurve" smooth="yes"/>
      <point x="1028" y="1933"/>
      <point x="1057" y="1906" type="qcurve" smooth="yes"/>
      <point x="1125" y="1837" type="line" smooth="yes"/>
      <point x="1151" y="1808"/>
      <point x="1151" y="1769" type="qcurve" smooth="yes"/>
      <point x="1151" y="1731"/>
      <point x="1095" y="1681"/>
      <point x="1061" y="1681" type="qcurve" smooth="yes"/>
      <point x="1026" y="1681"/>
      <point x="995" y="1705" type="qcurve"/>
      <point x="926" y="1775" type="line" smooth="yes"/>
      <point x="899" y="1802"/>
      <point x="899" y="1878"/>
    </contour>
    <contour>
      <point x="1297" y="-202"/>
      <point x="1302" y="-179" type="qcurve" smooth="yes"/>
      <point x="1471" y="451" type="line" smooth="yes"/>
      <point x="1481" y="487"/>
      <point x="1544" y="523"/>
      <point x="1582" y="512" type="qcurve" smooth="yes"/>
      <point x="1618" y="501"/>
      <point x="1653" y="438"/>
      <point x="1643" y="401" type="qcurve" smooth="yes"/>
      <point x="1474" y="-226" type="line"/>
      <point x="1467" y="-263"/>
      <point x="1418" y="-294"/>
      <point x="1390" y="-294" type="qcurve" smooth="yes"/>
      <point x="1381" y="-294"/>
      <point x="1363" y="-290" type="qcurve" smooth="yes"/>
      <point x="1330" y="-280"/>
      <point x="1297" y="-231"/>
      <point x="1297" y="-205" type="qcurve" smooth="yes"/>
    </contour>
    <contour>
      <point x="1605" y="1240"/>
      <point x="1650" y="1054" type="qcurve"/>
      <point x="1685" y="1054" type="line" smooth="yes"/>
      <point x="1902" y="1054"/>
      <point x="2057" y="899" type="qcurve"/>
      <point x="2112" y="996"/>
      <point x="2112" y="1096" type="qcurve" smooth="yes"/>
      <point x="2112" y="1254"/>
      <point x="1892" y="1475"/>
      <point x="1735" y="1475" type="qcurve" smooth="yes"/>
      <point x="1584" y="1475"/>
      <point x="1471" y="1368" type="qcurve"/>
    </contour>
    <contour>
      <point x="1643" y="2147" type="line" smooth="yes"/>
      <point x="1643" y="2187"/>
      <point x="1695" y="2240"/>
      <point x="1735" y="2240" type="qcurve" smooth="yes"/>
      <point x="1773" y="2240"/>
      <point x="1823" y="2188"/>
      <point x="1823" y="2147" type="qcurve" smooth="yes"/>
      <point x="1823" y="1928" type="line" smooth="yes"/>
      <point x="1823" y="1890"/>
      <point x="1772" y="1840"/>
      <point x="1735" y="1840" type="qcurve" smooth="yes"/>
      <point x="1697" y="1840"/>
      <point x="1643" y="1891"/>
      <point x="1643" y="1928" type="qcurve" smooth="yes"/>
    </contour>
    <contour>
      <point x="2233" y="1725"/>
      <point x="2262" y="1752" type="qcurve" smooth="yes"/>
      <point x="2415" y="1906" type="line" smooth="yes"/>
      <point x="2444" y="1933"/>
      <point x="2477" y="1933" type="qcurve" smooth="yes"/>
      <point x="2516" y="1933"/>
      <point x="2569" y="1881"/>
      <point x="2569" y="1842" type="qcurve" smooth="yes"/>
      <point x="2569" y="1802"/>
      <point x="2541" y="1775" type="qcurve" smooth="yes"/>
      <point x="2387" y="1622" type="line" smooth="yes"/>
      <point x="2357" y="1592"/>
      <point x="2284" y="1597"/>
      <point x="2262" y="1622" type="qcurve"/>
      <point x="2233" y="1646"/>
      <point x="2233" y="1685" type="qcurve" smooth="yes"/>
    </contour>
    <contour>
      <point x="2372" y="512"/>
      <point x="2446" y="512"/>
      <point x="2475" y="486" type="qcurve"/>
      <point x="2541" y="416" type="line"/>
      <point x="2569" y="392"/>
      <point x="2569" y="354" type="qcurve" smooth="yes"/>
      <point x="2569" y="315"/>
      <point x="2517" y="263"/>
      <point x="2481" y="263" type="qcurve"/>
      <point x="2479" y="265" type="line"/>
      <point x="2443" y="265"/>
      <point x="2415" y="287" type="qcurve"/>
      <point x="2346" y="354" type="line"/>
      <point x="2320" y="383"/>
      <point x="2320" y="459"/>
    </contour>
    <contour>
      <point x="2531" y="1189"/>
      <point x="2569" y="1189" type="qcurve" smooth="yes"/>
      <point x="2786" y="1189" type="line" smooth="yes"/>
      <point x="2824" y="1189"/>
      <point x="2878" y="1134"/>
      <point x="2878" y="1096" type="qcurve" smooth="yes"/>
      <point x="2878" y="1059"/>
      <point x="2824" y="1005"/>
      <point x="2786" y="1005" type="qcurve" smooth="yes"/>
      <point x="2569" y="1005" type="line" smooth="yes"/>
      <point x="2531" y="1005"/>
      <point x="2503" y="1033" type="qcurve" smooth="yes"/>
      <point x="2475" y="1058"/>
      <point x="2475" y="1134"/>
    </contour>
  </outline>
</glyph>
<glyph name="uniF009" format="2">
  <advance width="2868"/>
  <unicode hex="E309"/>
  <note>
uniF009
</note>
  <outline>
    <contour>
      <point x="0" y="715"/>
      <point x="231" y="1001"/>
      <point x="411" y="1042" type="qcurve"/>
      <point x="458" y="1260"/>
      <point x="805" y="1539"/>
      <point x="1031" y="1539" type="qcurve" smooth="yes"/>
      <point x="1195" y="1539"/>
      <point x="1322" y="1471" type="qcurve"/>
      <point x="1487" y="1648"/>
      <point x="1728" y="1648" type="qcurve" smooth="yes"/>
      <point x="1842" y="1648"/>
      <point x="2049" y="1560"/>
      <point x="2199" y="1410"/>
      <point x="2287" y="1203"/>
      <point x="2287" y="1089" type="qcurve" smooth="yes"/>
      <point x="2287" y="889"/>
      <point x="2166" y="739" type="qcurve"/>
      <point x="2210" y="644"/>
      <point x="2210" y="530" type="qcurve" smooth="yes"/>
      <point x="2210" y="389"/>
      <point x="2077" y="150"/>
      <point x="1845" y="5"/>
      <point x="1705" y="1" type="qcurve" smooth="yes"/>
      <point x="1687" y="1"/>
      <point x="1687" y="19" type="qcurve" smooth="yes"/>
      <point x="1687" y="162" type="line" smooth="yes"/>
      <point x="1687" y="181"/>
      <point x="1705" y="181" type="qcurve"/>
      <point x="1840" y="192"/>
      <point x="2031" y="394"/>
      <point x="2031" y="530" type="qcurve" smooth="yes"/>
      <point x="2031" y="670"/>
      <point x="1827" y="874"/>
      <point x="1687" y="874" type="qcurve" smooth="yes"/>
      <point x="1509" y="874" type="line" smooth="yes"/>
      <point x="1490" y="874"/>
      <point x="1490" y="893" type="qcurve"/>
      <point x="1482" y="954" type="line" smooth="yes"/>
      <point x="1466" y="1127"/>
      <point x="1206" y="1360"/>
      <point x="1031" y="1360" type="qcurve" smooth="yes"/>
      <point x="855" y="1360"/>
      <point x="596" y="1127"/>
      <point x="579" y="954" type="qcurve" smooth="yes"/>
      <point x="573" y="897" type="line"/>
      <point x="573" y="878"/>
      <point x="552" y="878" type="qcurve" smooth="yes"/>
      <point x="499" y="874" type="line" smooth="yes"/>
      <point x="364" y="858"/>
      <point x="185" y="664"/>
      <point x="185" y="530" type="qcurve" smooth="yes"/>
      <point x="185" y="391"/>
      <point x="375" y="188"/>
      <point x="511" y="181" type="qcurve" smooth="yes"/>
      <point x="529" y="181"/>
      <point x="529" y="162" type="qcurve" smooth="yes"/>
      <point x="529" y="19" type="line" smooth="yes"/>
      <point x="529" y="1"/>
      <point x="511" y="1" type="qcurve" smooth="yes"/>
      <point x="297" y="12"/>
      <point x="0" y="317"/>
      <point x="0" y="530" type="qcurve" smooth="yes"/>
    </contour>
    <contour>
      <point x="578" y="-170"/>
      <point x="579" y="-163" type="qcurve"/>
      <point x="609" y="-57" type="line"/>
      <point x="616" y="-19"/>
      <point x="680" y="19"/>
      <point x="720" y="9" type="qcurve" smooth="yes"/>
      <point x="756" y="-2"/>
      <point x="793" y="-69"/>
      <point x="782" y="-102" type="qcurve"/>
      <point x="755" y="-214" type="line" smooth="yes"/>
      <point x="743" y="-255"/>
      <point x="674" y="-290"/>
      <point x="643" y="-279" type="qcurve" smooth="yes"/>
      <point x="612" y="-269"/>
      <point x="578" y="-213"/>
      <point x="578" y="-184" type="qcurve" smooth="yes"/>
    </contour>
    <contour>
      <point x="717" y="332"/>
      <point x="720" y="345" type="qcurve" smooth="yes"/>
      <point x="752" y="454" type="line"/>
      <point x="759" y="491"/>
      <point x="823" y="528"/>
      <point x="862" y="518" type="qcurve" smooth="yes"/>
      <point x="898" y="506"/>
      <point x="934" y="440"/>
      <point x="923" y="407" type="qcurve"/>
      <point x="897" y="297" type="line" smooth="yes"/>
      <point x="886" y="258"/>
      <point x="820" y="223"/>
      <point x="785" y="235" type="qcurve" smooth="yes"/>
      <point x="717" y="258"/>
      <point x="717" y="319" type="qcurve" smooth="yes"/>
    </contour>
    <contour>
      <point x="847" y="-515"/>
      <point x="851" y="-499" type="qcurve" smooth="yes"/>
      <point x="881" y="-390" type="line" smooth="yes"/>
      <point x="891" y="-354"/>
      <point x="956" y="-317"/>
      <point x="993" y="-328" type="qcurve" smooth="yes"/>
      <point x="1029" y="-338"/>
      <point x="1066" y="-403"/>
      <point x="1055" y="-440" type="qcurve" smooth="yes"/>
      <point x="1026" y="-546" type="line" smooth="yes"/>
      <point x="1012" y="-595"/>
      <point x="982" y="-608" type="qcurve" smooth="yes"/>
      <point x="965" y="-616"/>
      <point x="943" y="-616" type="qcurve" smooth="yes"/>
      <point x="937" y="-616"/>
      <point x="918" y="-613"/>
      <point x="917" y="-613" type="qcurve"/>
      <point x="883" y="-602"/>
      <point x="847" y="-548"/>
      <point x="847" y="-522" type="qcurve" smooth="yes"/>
    </contour>
    <contour>
      <point x="896" y="1870"/>
      <point x="950" y="1923"/>
      <point x="987" y="1923" type="qcurve" smooth="yes"/>
      <point x="1025" y="1923"/>
      <point x="1051" y="1897" type="qcurve" smooth="yes"/>
      <point x="1118" y="1827" type="line" smooth="yes"/>
      <point x="1144" y="1799"/>
      <point x="1144" y="1725"/>
      <point x="1118" y="1697" type="qcurve"/>
      <point x="1047" y="1643"/>
      <point x="993" y="1697" type="qcurve" smooth="yes"/>
      <point x="923" y="1766" type="line" smooth="yes"/>
      <point x="896" y="1792"/>
      <point x="896" y="1832" type="qcurve" smooth="yes"/>
    </contour>
    <contour>
      <point x="991" y="3"/>
      <point x="993" y="9" type="qcurve" smooth="yes"/>
      <point x="1023" y="119" type="line"/>
      <point x="1030" y="156"/>
      <point x="1095" y="195"/>
      <point x="1135" y="184" type="qcurve" smooth="yes"/>
      <point x="1171" y="173"/>
      <point x="1206" y="108"/>
      <point x="1195" y="71" type="qcurve" smooth="yes"/>
      <point x="1169" y="-37" type="line" smooth="yes"/>
      <point x="1157" y="-81"/>
      <point x="1095" y="-113"/>
      <point x="1058" y="-102" type="qcurve" smooth="yes"/>
      <point x="1025" y="-92"/>
      <point x="991" y="-38"/>
      <point x="991" y="-11" type="qcurve" smooth="yes"/>
    </contour>
    <contour>
      <point x="1288" y="-191"/>
      <point x="1290" y="-184"/>
      <point x="1292" y="-174"/>
      <point x="1293" y="-170" type="qcurve" smooth="yes"/>
      <point x="1322" y="-61" type="line" smooth="yes"/>
      <point x="1333" y="-25"/>
      <point x="1399" y="12"/>
      <point x="1432" y="1" type="qcurve"/>
      <point x="1469" y="-6"/>
      <point x="1508" y="-71"/>
      <point x="1498" y="-109" type="qcurve" smooth="yes"/>
      <point x="1467" y="-217" type="line" smooth="yes"/>
      <point x="1457" y="-253"/>
      <point x="1408" y="-287"/>
      <point x="1382" y="-287" type="qcurve"/>
      <point x="1355" y="-283" type="line"/>
      <point x="1292" y="-255"/>
      <point x="1288" y="-195" type="qcurve" smooth="yes"/>
    </contour>
    <contour>
      <point x="1437" y="324"/>
      <point x="1440" y="337" type="qcurve" smooth="yes"/>
      <point x="1472" y="450" type="line" smooth="yes"/>
      <point x="1482" y="486"/>
      <point x="1545" y="521"/>
      <point x="1582" y="510" type="qcurve" smooth="yes"/>
      <point x="1618" y="500"/>
      <point x="1654" y="437"/>
      <point x="1643" y="399" type="qcurve" smooth="yes"/>
      <point x="1614" y="293" type="line"/>
      <point x="1608" y="262"/>
      <point x="1560" y="224"/>
      <point x="1529" y="224" type="qcurve"/>
      <point x="1502" y="227" type="line"/>
      <point x="1470" y="236"/>
      <point x="1437" y="287"/>
      <point x="1437" y="313" type="qcurve" smooth="yes"/>
    </contour>
    <contour>
      <point x="1608" y="1235"/>
      <point x="1651" y="1054" type="qcurve"/>
      <point x="1687" y="1054" type="line" smooth="yes"/>
      <point x="1904" y="1054"/>
      <point x="2057" y="901" type="qcurve"/>
      <point x="2107" y="999"/>
      <point x="2107" y="1089" type="qcurve" smooth="yes"/>
      <point x="2107" y="1246"/>
      <point x="1885" y="1467"/>
      <point x="1728" y="1467" type="qcurve" smooth="yes"/>
      <point x="1578" y="1467"/>
      <point x="1472" y="1365" type="qcurve"/>
    </contour>
    <contour>
      <point x="1637" y="2138" type="line" smooth="yes"/>
      <point x="1637" y="2178"/>
      <point x="1688" y="2230"/>
      <point x="1768" y="2230"/>
      <point x="1819" y="2178"/>
      <point x="1819" y="2138" type="qcurve" smooth="yes"/>
      <point x="1819" y="1923" type="line" smooth="yes"/>
      <point x="1819" y="1883"/>
      <point x="1768" y="1832"/>
      <point x="1688" y="1832"/>
      <point x="1637" y="1883"/>
      <point x="1637" y="1923" type="qcurve" smooth="yes"/>
    </contour>
    <contour>
      <point x="2229" y="1716"/>
      <point x="2253" y="1744" type="qcurve"/>
      <point x="2407" y="1897" type="line" smooth="yes"/>
      <point x="2435" y="1923"/>
      <point x="2509" y="1923"/>
      <point x="2561" y="1871"/>
      <point x="2561" y="1795"/>
      <point x="2535" y="1766" type="qcurve"/>
      <point x="2382" y="1613" type="line"/>
      <point x="2349" y="1586"/>
      <point x="2319" y="1586" type="qcurve" smooth="yes"/>
      <point x="2286" y="1586"/>
      <point x="2253" y="1613" type="qcurve"/>
      <point x="2229" y="1638"/>
      <point x="2229" y="1678" type="qcurve" smooth="yes"/>
    </contour>
    <contour>
      <point x="2367" y="506"/>
      <point x="2405" y="506" type="qcurve" smooth="yes"/>
      <point x="2440" y="506"/>
      <point x="2466" y="480" type="qcurve" smooth="yes"/>
      <point x="2535" y="410" type="line" smooth="yes"/>
      <point x="2562" y="383"/>
      <point x="2564" y="310"/>
      <point x="2535" y="281" type="qcurve" smooth="yes"/>
      <point x="2504" y="248"/>
      <point x="2473" y="248" type="qcurve" smooth="yes"/>
      <point x="2440" y="248"/>
      <point x="2407" y="281" type="qcurve" smooth="yes"/>
      <point x="2341" y="349" type="line" smooth="yes"/>
      <point x="2313" y="379"/>
      <point x="2313" y="453"/>
    </contour>
    <contour>
      <point x="2470" y="1127"/>
      <point x="2521" y="1181"/>
      <point x="2558" y="1181" type="qcurve" smooth="yes"/>
      <point x="2776" y="1181" type="line" smooth="yes"/>
      <point x="2816" y="1181"/>
      <point x="2869" y="1129"/>
      <point x="2869" y="1089" type="qcurve" smooth="yes"/>
      <point x="2869" y="1051"/>
      <point x="2817" y="1001"/>
      <point x="2776" y="1001" type="qcurve" smooth="yes"/>
      <point x="2558" y="1001" type="line" smooth="yes"/>
      <point x="2522" y="1001"/>
      <point x="2470" y="1053"/>
      <point x="2470" y="1089" type="qcurve" smooth="yes"/>
    </contour>
  </outline>
</glyph>
<glyph name="uniF00A" format="2">
  <advance width="2864"/>
  <unicode hex="E30A"/>
  <note>
uniF00A
</note>
  <outline>
    <contour>
      <point x="0" y="710"/>
      <point x="226" y="996"/>
      <point x="405" y="1040" type="qcurve"/>
      <point x="454" y="1257"/>
      <point x="802" y="1536"/>
      <point x="1027" y="1536" type="qcurve" smooth="yes"/>
      <point x="1184" y="1536"/>
      <point x="1314" y="1466" type="qcurve"/>
      <point x="1481" y="1651"/>
      <point x="1727" y="1651" type="qcurve" smooth="yes"/>
      <point x="1877" y="1651"/>
      <point x="2135" y="1501"/>
      <point x="2285" y="1244"/>
      <point x="2285" y="1094" type="qcurve" smooth="yes"/>
      <point x="2285" y="893"/>
      <point x="2159" y="742" type="qcurve"/>
      <point x="2205" y="646"/>
      <point x="2205" y="525" type="qcurve" smooth="yes"/>
      <point x="2205" y="314"/>
      <point x="1909" y="8"/>
      <point x="1697" y="1" type="qcurve" smooth="yes"/>
      <point x="1677" y="1"/>
      <point x="1677" y="19" type="qcurve" smooth="yes"/>
      <point x="1677" y="161" type="line" smooth="yes"/>
      <point x="1677" y="181"/>
      <point x="1697" y="181" type="qcurve" smooth="yes"/>
      <point x="1832" y="188"/>
      <point x="2025" y="391"/>
      <point x="2025" y="525" type="qcurve" smooth="yes"/>
      <point x="2025" y="667"/>
      <point x="1821" y="872"/>
      <point x="1677" y="872" type="qcurve" smooth="yes"/>
      <point x="1505" y="872" type="line" smooth="yes"/>
      <point x="1487" y="872"/>
      <point x="1487" y="890" type="qcurve"/>
      <point x="1479" y="952" type="line" smooth="yes"/>
      <point x="1462" y="1124"/>
      <point x="1201" y="1357"/>
      <point x="1027" y="1357" type="qcurve" smooth="yes"/>
      <point x="852" y="1357"/>
      <point x="595" y="1124"/>
      <point x="578" y="949" type="qcurve"/>
      <point x="570" y="895" type="line"/>
      <point x="570" y="875"/>
      <point x="551" y="875" type="qcurve"/>
      <point x="495" y="869" type="line" smooth="yes"/>
      <point x="362" y="853"/>
      <point x="181" y="657"/>
      <point x="181" y="525" type="qcurve" smooth="yes"/>
      <point x="181" y="391"/>
      <point x="374" y="188"/>
      <point x="510" y="181" type="qcurve" smooth="yes"/>
      <point x="528" y="181"/>
      <point x="528" y="161" type="qcurve" smooth="yes"/>
      <point x="528" y="19" type="line" smooth="yes"/>
      <point x="528" y="1"/>
      <point x="510" y="1" type="qcurve" smooth="yes"/>
      <point x="371" y="5"/>
      <point x="136" y="149"/>
      <point x="0" y="387"/>
      <point x="0" y="525" type="qcurve" smooth="yes"/>
    </contour>
    <contour>
      <point x="677" y="129"/>
      <point x="728" y="181"/>
      <point x="802" y="181"/>
      <point x="853" y="129"/>
      <point x="853" y="93" type="qcurve" smooth="yes"/>
      <point x="853" y="55"/>
      <point x="802" y="1"/>
      <point x="728" y="1"/>
      <point x="677" y="55"/>
      <point x="677" y="93" type="qcurve" smooth="yes"/>
    </contour>
    <contour>
      <point x="677" y="-256"/>
      <point x="728" y="-206"/>
      <point x="802" y="-206"/>
      <point x="853" y="-256"/>
      <point x="853" y="-294" type="qcurve" smooth="yes"/>
      <point x="853" y="-331"/>
      <point x="803" y="-381"/>
      <point x="765" y="-381" type="qcurve" smooth="yes"/>
      <point x="731" y="-381"/>
      <point x="703" y="-355" type="qcurve" smooth="yes"/>
      <point x="677" y="-327"/>
      <point x="677" y="-294" type="qcurve" smooth="yes"/>
    </contour>
    <contour>
      <point x="895" y="1870"/>
      <point x="949" y="1923"/>
      <point x="989" y="1923" type="qcurve" smooth="yes"/>
      <point x="1027" y="1923"/>
      <point x="1051" y="1896" type="qcurve"/>
      <point x="1119" y="1831" type="line"/>
      <point x="1145" y="1802"/>
      <point x="1145" y="1724"/>
      <point x="1081" y="1667"/>
      <point x="1048" y="1672" type="qcurve"/>
      <point x="1017" y="1673"/>
      <point x="991" y="1699" type="qcurve" smooth="yes"/>
      <point x="921" y="1769" type="line" smooth="yes"/>
      <point x="895" y="1793"/>
      <point x="895" y="1832" type="qcurve" smooth="yes"/>
    </contour>
    <contour>
      <point x="1016" y="-75"/>
      <point x="1068" y="-22"/>
      <point x="1104" y="-22" type="qcurve" smooth="yes"/>
      <point x="1142" y="-22"/>
      <point x="1195" y="-75"/>
      <point x="1195" y="-112" type="qcurve" smooth="yes"/>
      <point x="1195" y="-150"/>
      <point x="1142" y="-202"/>
      <point x="1104" y="-202" type="qcurve" smooth="yes"/>
      <point x="1068" y="-202"/>
      <point x="1042" y="-176" type="qcurve" smooth="yes"/>
      <point x="1016" y="-148"/>
      <point x="1016" y="-112" type="qcurve" smooth="yes"/>
    </contour>
    <contour>
      <point x="1016" y="309"/>
      <point x="1068" y="361"/>
      <point x="1104" y="361" type="qcurve" smooth="yes"/>
      <point x="1142" y="361"/>
      <point x="1195" y="309"/>
      <point x="1195" y="235"/>
      <point x="1142" y="184"/>
      <point x="1104" y="184" type="qcurve" smooth="yes"/>
      <point x="1068" y="184"/>
      <point x="1016" y="236"/>
      <point x="1016" y="272" type="qcurve" smooth="yes"/>
    </contour>
    <contour>
      <point x="1016" y="-465"/>
      <point x="1069" y="-411"/>
      <point x="1104" y="-411" type="qcurve" smooth="yes"/>
      <point x="1142" y="-411"/>
      <point x="1195" y="-464"/>
      <point x="1195" y="-540"/>
      <point x="1142" y="-590"/>
      <point x="1104" y="-590" type="qcurve" smooth="yes"/>
      <point x="1069" y="-590"/>
      <point x="1042" y="-563" type="qcurve" smooth="yes"/>
      <point x="1016" y="-537"/>
      <point x="1016" y="-502" type="qcurve" smooth="yes"/>
    </contour>
    <contour>
      <point x="1360" y="129"/>
      <point x="1412" y="181"/>
      <point x="1486" y="181"/>
      <point x="1537" y="129"/>
      <point x="1537" y="93" type="qcurve" smooth="yes"/>
      <point x="1537" y="55"/>
      <point x="1486" y="1"/>
      <point x="1412" y="1"/>
      <point x="1360" y="55"/>
      <point x="1360" y="93" type="qcurve" smooth="yes"/>
    </contour>
    <contour>
      <point x="1360" y="-257"/>
      <point x="1411" y="-206"/>
      <point x="1449" y="-206" type="qcurve" smooth="yes"/>
      <point x="1486" y="-206"/>
      <point x="1537" y="-256"/>
      <point x="1537" y="-294" type="qcurve" smooth="yes"/>
      <point x="1537" y="-331"/>
      <point x="1487" y="-381"/>
      <point x="1449" y="-381" type="qcurve" smooth="yes"/>
      <point x="1413" y="-381"/>
      <point x="1385" y="-355" type="qcurve" smooth="yes"/>
      <point x="1360" y="-328"/>
      <point x="1360" y="-294" type="qcurve" smooth="yes"/>
    </contour>
    <contour>
      <point x="1596" y="1238"/>
      <point x="1643" y="1051" type="qcurve"/>
      <point x="1677" y="1051" type="line" smooth="yes"/>
      <point x="1895" y="1051"/>
      <point x="2048" y="898" type="qcurve"/>
      <point x="2102" y="994"/>
      <point x="2102" y="1094" type="qcurve" smooth="yes"/>
      <point x="2102" y="1249"/>
      <point x="1882" y="1471"/>
      <point x="1727" y="1471" type="qcurve" smooth="yes"/>
      <point x="1574" y="1471"/>
      <point x="1464" y="1365" type="qcurve"/>
    </contour>
    <contour>
      <point x="1635" y="2139" type="line" smooth="yes"/>
      <point x="1635" y="2176"/>
      <point x="1690" y="2231"/>
      <point x="1764" y="2231"/>
      <point x="1815" y="2177"/>
      <point x="1815" y="2139" type="qcurve" smooth="yes"/>
      <point x="1815" y="1921" type="line" smooth="yes"/>
      <point x="1815" y="1884"/>
      <point x="1765" y="1834"/>
      <point x="1689" y="1834"/>
      <point x="1635" y="1884"/>
      <point x="1635" y="1921" type="qcurve" smooth="yes"/>
    </contour>
    <contour>
      <point x="2223" y="1718"/>
      <point x="2250" y="1743" type="qcurve" smooth="yes"/>
      <point x="2403" y="1899" type="line" smooth="yes"/>
      <point x="2430" y="1926"/>
      <point x="2465" y="1926" type="qcurve" smooth="yes"/>
      <point x="2502" y="1926"/>
      <point x="2557" y="1872"/>
      <point x="2557" y="1834" type="qcurve" smooth="yes"/>
      <point x="2557" y="1797"/>
      <point x="2529" y="1769" type="qcurve" smooth="yes"/>
      <point x="2376" y="1616" type="line" smooth="yes"/>
      <point x="2345" y="1586"/>
      <point x="2274" y="1591"/>
      <point x="2250" y="1616" type="qcurve" smooth="yes"/>
      <point x="2223" y="1642"/>
      <point x="2223" y="1679" type="qcurve" smooth="yes"/>
    </contour>
    <contour>
      <point x="2309" y="459"/>
      <point x="2361" y="512"/>
      <point x="2435" y="512"/>
      <point x="2463" y="486" type="qcurve"/>
      <point x="2529" y="417" type="line"/>
      <point x="2557" y="391"/>
      <point x="2557" y="355" type="qcurve" smooth="yes"/>
      <point x="2557" y="317"/>
      <point x="2504" y="262"/>
      <point x="2471" y="262" type="qcurve" smooth="yes"/>
      <point x="2442" y="262"/>
      <point x="2403" y="288" type="qcurve"/>
      <point x="2335" y="355" type="line" smooth="yes"/>
      <point x="2309" y="381"/>
      <point x="2309" y="421" type="qcurve" smooth="yes"/>
    </contour>
    <contour>
      <point x="2463" y="1131"/>
      <point x="2519" y="1185"/>
      <point x="2557" y="1185" type="qcurve" smooth="yes"/>
      <point x="2773" y="1185" type="line" smooth="yes"/>
      <point x="2810" y="1185"/>
      <point x="2864" y="1132"/>
      <point x="2864" y="1056"/>
      <point x="2810" y="1002"/>
      <point x="2773" y="1002" type="qcurve" smooth="yes"/>
      <point x="2557" y="1002" type="line" smooth="yes"/>
      <point x="2518" y="1002"/>
      <point x="2491" y="1031" type="qcurve"/>
      <point x="2463" y="1056"/>
      <point x="2463" y="1094" type="qcurve" smooth="yes"/>
    </contour>
  </outline>
</glyph>
<glyph name="uniF00B" format="2">
  <advance width="2864"/>
  <unicode hex="E30B"/>
  <note>
uniF00B
</note>
  <outline>
    <contour>
      <point x="0" y="712"/>
      <point x="229" y="998"/>
      <point x="405" y="1040" type="qcurve"/>
      <point x="454" y="1257"/>
      <point x="802" y="1536"/>
      <point x="1027" y="1536" type="qcurve" smooth="yes"/>
      <point x="1183" y="1536"/>
      <point x="1314" y="1466" type="qcurve"/>
      <point x="1479" y="1651"/>
      <point x="1727" y="1651" type="qcurve" smooth="yes"/>
      <point x="1877" y="1651"/>
      <point x="2133" y="1502"/>
      <point x="2283" y="1245"/>
      <point x="2283" y="1094" type="qcurve" smooth="yes"/>
      <point x="2283" y="894"/>
      <point x="2159" y="742" type="qcurve"/>
      <point x="2203" y="647"/>
      <point x="2203" y="529" type="qcurve" smooth="yes"/>
      <point x="2203" y="390"/>
      <point x="2069" y="150"/>
      <point x="1835" y="5"/>
      <point x="1696" y="1" type="qcurve" smooth="yes"/>
      <point x="1677" y="1"/>
      <point x="1677" y="19" type="qcurve" smooth="yes"/>
      <point x="1677" y="161" type="line" smooth="yes"/>
      <point x="1677" y="181"/>
      <point x="1696" y="181" type="qcurve" smooth="yes"/>
      <point x="1833" y="188"/>
      <point x="2025" y="391"/>
      <point x="2025" y="529" type="qcurve" smooth="yes"/>
      <point x="2025" y="668"/>
      <point x="1818" y="872"/>
      <point x="1677" y="872" type="qcurve" smooth="yes"/>
      <point x="1504" y="872" type="line" smooth="yes"/>
      <point x="1486" y="872"/>
      <point x="1486" y="890" type="qcurve"/>
      <point x="1479" y="952" type="line" smooth="yes"/>
      <point x="1460" y="1124"/>
      <point x="1199" y="1357"/>
      <point x="1027" y="1357" type="qcurve" smooth="yes"/>
      <point x="852" y="1357"/>
      <point x="595" y="1125"/>
      <point x="578" y="952" type="qcurve" smooth="yes"/>
      <point x="570" y="894" type="line"/>
      <point x="570" y="875"/>
      <point x="550" y="875" type="qcurve" smooth="yes"/>
      <point x="494" y="872" type="line"/>
      <point x="361" y="856"/>
      <point x="181" y="661"/>
      <point x="181" y="529" type="qcurve" smooth="yes"/>
      <point x="181" y="391"/>
      <point x="373" y="188"/>
      <point x="509" y="181" type="qcurve" smooth="yes"/>
      <point x="528" y="181"/>
      <point x="528" y="161" type="qcurve" smooth="yes"/>
      <point x="528" y="19" type="line" smooth="yes"/>
      <point x="528" y="1"/>
      <point x="509" y="1" type="qcurve" smooth="yes"/>
      <point x="370" y="7"/>
      <point x="136" y="151"/>
      <point x="0" y="390"/>
      <point x="0" y="529" type="qcurve" smooth="yes"/>
    </contour>
    <contour>
      <point x="630" y="476"/>
      <point x="702" y="604"/>
      <point x="745" y="650" type="qcurve" smooth="yes"/>
      <point x="783" y="693" type="line"/>
      <point x="792" y="684"/>
      <point x="826" y="648" type="qcurve" smooth="yes"/>
      <point x="858" y="610"/>
      <point x="933" y="474"/>
      <point x="933" y="435" type="qcurve" smooth="yes"/>
      <point x="933" y="373"/>
      <point x="847" y="288"/>
      <point x="783" y="288" type="qcurve" smooth="yes"/>
      <point x="720" y="288"/>
      <point x="630" y="374"/>
      <point x="630" y="435" type="qcurve" smooth="yes"/>
    </contour>
    <contour>
      <point x="895" y="1872"/>
      <point x="947" y="1926"/>
      <point x="986" y="1926" type="qcurve" smooth="yes"/>
      <point x="1021" y="1926"/>
      <point x="1051" y="1899" type="qcurve"/>
      <point x="1119" y="1830" type="line" smooth="yes"/>
      <point x="1145" y="1804"/>
      <point x="1145" y="1730"/>
      <point x="1119" y="1699" type="qcurve"/>
      <point x="1057" y="1649"/>
      <point x="990" y="1699" type="qcurve"/>
      <point x="921" y="1769" type="line" smooth="yes"/>
      <point x="895" y="1793"/>
      <point x="895" y="1834" type="qcurve" smooth="yes"/>
    </contour>
    <contour>
      <point x="947" y="104"/>
      <point x="1034" y="225" type="qcurve" smooth="yes"/>
      <point x="1113" y="330"/>
      <point x="1170" y="382" type="qcurve" smooth="yes"/>
      <point x="1195" y="406" type="line"/>
      <point x="1210" y="391"/>
      <point x="1223" y="382" type="qcurve"/>
      <point x="1285" y="320"/>
      <point x="1359" y="223" type="qcurve"/>
      <point x="1445" y="99"/>
      <point x="1445" y="13" type="qcurve" smooth="yes"/>
      <point x="1445" y="-89"/>
      <point x="1299" y="-235"/>
      <point x="1195" y="-235" type="qcurve" smooth="yes"/>
      <point x="1092" y="-235"/>
      <point x="947" y="-92"/>
      <point x="947" y="13" type="qcurve" smooth="yes"/>
    </contour>
    <contour>
      <point x="1104" y="746"/>
      <point x="1153" y="831"/>
      <point x="1182" y="863" type="qcurve" smooth="yes"/>
      <point x="1208" y="890" type="line"/>
      <point x="1307" y="785"/>
      <point x="1307" y="719" type="qcurve" smooth="yes"/>
      <point x="1307" y="679"/>
      <point x="1249" y="621"/>
      <point x="1208" y="621" type="qcurve" smooth="yes"/>
      <point x="1165" y="621"/>
      <point x="1104" y="679"/>
      <point x="1104" y="719" type="qcurve" smooth="yes"/>
    </contour>
    <contour>
      <point x="1596" y="1237"/>
      <point x="1642" y="1051" type="qcurve"/>
      <point x="1677" y="1051" type="line" smooth="yes"/>
      <point x="1892" y="1051"/>
      <point x="2047" y="898" type="qcurve"/>
      <point x="2102" y="1000"/>
      <point x="2102" y="1094" type="qcurve" smooth="yes"/>
      <point x="2102" y="1251"/>
      <point x="1883" y="1471"/>
      <point x="1727" y="1471" type="qcurve" smooth="yes"/>
      <point x="1570" y="1471"/>
      <point x="1464" y="1365" type="qcurve"/>
    </contour>
    <contour>
      <point x="1635" y="2143" type="line" smooth="yes"/>
      <point x="1635" y="2181"/>
      <point x="1689" y="2231"/>
      <point x="1765" y="2231"/>
      <point x="1814" y="2181"/>
      <point x="1814" y="2143" type="qcurve" smooth="yes"/>
      <point x="1814" y="1926" type="line" smooth="yes"/>
      <point x="1814" y="1888"/>
      <point x="1764" y="1834"/>
      <point x="1690" y="1834"/>
      <point x="1635" y="1888"/>
      <point x="1635" y="1926" type="qcurve" smooth="yes"/>
    </contour>
    <contour>
      <point x="2223" y="1719"/>
      <point x="2250" y="1746" type="qcurve" smooth="yes"/>
      <point x="2403" y="1899" type="line" smooth="yes"/>
      <point x="2430" y="1926"/>
      <point x="2465" y="1926" type="qcurve" smooth="yes"/>
      <point x="2503" y="1926"/>
      <point x="2557" y="1874"/>
      <point x="2557" y="1835" type="qcurve" smooth="yes"/>
      <point x="2557" y="1798"/>
      <point x="2528" y="1769" type="qcurve" smooth="yes"/>
      <point x="2375" y="1616" type="line"/>
      <point x="2338" y="1590"/>
      <point x="2310" y="1590" type="qcurve" smooth="yes"/>
      <point x="2278" y="1590"/>
      <point x="2250" y="1616" type="qcurve" smooth="yes"/>
      <point x="2223" y="1640"/>
      <point x="2223" y="1679" type="qcurve" smooth="yes"/>
    </contour>
    <contour>
      <point x="2309" y="460"/>
      <point x="2360" y="512"/>
      <point x="2398" y="512" type="qcurve" smooth="yes"/>
      <point x="2435" y="512"/>
      <point x="2463" y="486" type="qcurve"/>
      <point x="2528" y="417" type="line"/>
      <point x="2557" y="390"/>
      <point x="2557" y="355" type="qcurve" smooth="yes"/>
      <point x="2557" y="319"/>
      <point x="2528" y="293" type="qcurve"/>
      <point x="2505" y="264"/>
      <point x="2466" y="264" type="qcurve" smooth="yes"/>
      <point x="2426" y="264"/>
      <point x="2403" y="293" type="qcurve"/>
      <point x="2334" y="355" type="line"/>
      <point x="2309" y="383"/>
      <point x="2309" y="423" type="qcurve" smooth="yes"/>
    </contour>
    <contour>
      <point x="2463" y="1131"/>
      <point x="2519" y="1185"/>
      <point x="2557" y="1185" type="qcurve" smooth="yes"/>
      <point x="2773" y="1185" type="line" smooth="yes"/>
      <point x="2810" y="1185"/>
      <point x="2864" y="1132"/>
      <point x="2864" y="1094" type="qcurve" smooth="yes"/>
      <point x="2864" y="1057"/>
      <point x="2811" y="1006"/>
      <point x="2773" y="1006" type="qcurve" smooth="yes"/>
      <point x="2557" y="1006" type="line" smooth="yes"/>
      <point x="2518" y="1006"/>
      <point x="2490" y="1032" type="qcurve" smooth="yes"/>
      <point x="2463" y="1058"/>
      <point x="2463" y="1094" type="qcurve" smooth="yes"/>
    </contour>
  </outline>
</glyph>
<glyph name="uniF00C" format="2">
  <advance width="2541"/>
  <unicode hex="E30C"/>
  <note>
uniF00C
</note>
  <outline>
    <contour>
      <point x="0" y="946"/>
      <point x="60" y="1005"/>
      <point x="107" y="1005" type="qcurve" smooth="yes"/>
      <point x="287" y="1005" type="line" smooth="yes"/>
      <point x="331" y="1005"/>
      <point x="391" y="945"/>
      <point x="391" y="899" type="qcurve" smooth="yes"/>
      <point x="391" y="857"/>
      <point x="330" y="800"/>
      <point x="287" y="800" type="qcurve" smooth="yes"/>
      <point x="107" y="800" type="line" smooth="yes"/>
      <point x="60" y="800"/>
      <point x="0" y="856"/>
      <point x="0" y="899" type="qcurve" smooth="yes"/>
    </contour>
    <contour>
      <point x="189" y="365"/>
      <point x="334" y="559"/>
      <point x="455" y="597" type="qcurve"/>
      <point x="506" y="772"/>
      <point x="666" y="863" type="qcurve"/>
      <point x="666" y="899" type="line" smooth="yes"/>
      <point x="666" y="1073"/>
      <point x="835" y="1367"/>
      <point x="1130" y="1539"/>
      <point x="1305" y="1539" type="qcurve" smooth="yes"/>
      <point x="1434" y="1539"/>
      <point x="1671" y="1437"/>
      <point x="1842" y="1266"/>
      <point x="1944" y="1029"/>
      <point x="1944" y="899" type="qcurve" smooth="yes"/>
      <point x="1944" y="738"/>
      <point x="1789" y="455"/>
      <point x="1656" y="370" type="qcurve"/>
      <point x="1678" y="316"/>
      <point x="1678" y="239" type="qcurve" smooth="yes"/>
      <point x="1678" y="81"/>
      <point x="1457" y="-143"/>
      <point x="1302" y="-143" type="qcurve" smooth="yes"/>
      <point x="570" y="-143" type="line" smooth="yes"/>
      <point x="415" y="-143"/>
      <point x="189" y="84"/>
      <point x="189" y="239" type="qcurve" smooth="yes"/>
    </contour>
    <contour>
      <point x="355" y="1794"/>
      <point x="410" y="1854"/>
      <point x="455" y="1854" type="qcurve" smooth="yes"/>
      <point x="495" y="1854"/>
      <point x="529" y="1823" type="qcurve" smooth="yes"/>
      <point x="705" y="1648" type="line" smooth="yes"/>
      <point x="735" y="1616"/>
      <point x="735" y="1573" type="qcurve" smooth="yes"/>
      <point x="735" y="1528"/>
      <point x="705" y="1498" type="qcurve"/>
      <point x="630" y="1441"/>
      <point x="555" y="1498" type="qcurve"/>
      <point x="383" y="1678" type="line" smooth="yes"/>
      <point x="355" y="1705"/>
      <point x="355" y="1750" type="qcurve" smooth="yes"/>
    </contour>
    <contour>
      <point x="400" y="167"/>
      <point x="498" y="65"/>
      <point x="570" y="65" type="qcurve" smooth="yes"/>
      <point x="1302" y="65" type="line" smooth="yes"/>
      <point x="1371" y="65"/>
      <point x="1472" y="167"/>
      <point x="1472" y="239" type="qcurve" smooth="yes"/>
      <point x="1472" y="308"/>
      <point x="1371" y="408"/>
      <point x="1302" y="408" type="qcurve" smooth="yes"/>
      <point x="1161" y="408" type="line" smooth="yes"/>
      <point x="1145" y="408"/>
      <point x="1135" y="432" type="qcurve"/>
      <point x="1126" y="501" type="line" smooth="yes"/>
      <point x="1115" y="593"/>
      <point x="978" y="717"/>
      <point x="885" y="717" type="qcurve" smooth="yes"/>
      <point x="794" y="717"/>
      <point x="660" y="593"/>
      <point x="649" y="501" type="qcurve" smooth="yes"/>
      <point x="639" y="441" type="line"/>
      <point x="639" y="417"/>
      <point x="618" y="417" type="qcurve"/>
      <point x="552" y="408" type="line" smooth="yes"/>
      <point x="486" y="402"/>
      <point x="400" y="306"/>
      <point x="400" y="239" type="qcurve" smooth="yes"/>
    </contour>
    <contour>
      <point x="885" y="921" type="line" smooth="yes"/>
      <point x="1033" y="921"/>
      <point x="1267" y="755"/>
      <point x="1314" y="615" type="qcurve"/>
      <point x="1437" y="615"/>
      <point x="1531" y="537" type="qcurve"/>
      <point x="1624" y="596"/>
      <point x="1733" y="787"/>
      <point x="1733" y="899" type="qcurve" smooth="yes"/>
      <point x="1733" y="1080"/>
      <point x="1483" y="1334"/>
      <point x="1305" y="1334" type="qcurve" smooth="yes"/>
      <point x="1131" y="1334"/>
      <point x="883" y="1096"/>
      <point x="872" y="921" type="qcurve"/>
    </contour>
    <contour>
      <point x="1201" y="2104" type="line" smooth="yes"/>
      <point x="1201" y="2146"/>
      <point x="1262" y="2203"/>
      <point x="1305" y="2203" type="qcurve" smooth="yes"/>
      <point x="1349" y="2203"/>
      <point x="1410" y="2146"/>
      <point x="1410" y="2104" type="qcurve" smooth="yes"/>
      <point x="1410" y="1854" type="line" smooth="yes"/>
      <point x="1410" y="1810"/>
      <point x="1349" y="1749"/>
      <point x="1305" y="1749" type="qcurve" smooth="yes"/>
      <point x="1262" y="1749"/>
      <point x="1201" y="1810"/>
      <point x="1201" y="1854" type="qcurve" smooth="yes"/>
    </contour>
    <contour>
      <point x="1932" y="331"/>
      <point x="2020" y="331"/>
      <point x="2049" y="304" type="qcurve" smooth="yes"/>
      <point x="2229" y="125" type="line" smooth="yes"/>
      <point x="2257" y="97"/>
      <point x="2257" y="54" type="qcurve" smooth="yes"/>
      <point x="2257" y="9"/>
      <point x="2229" y="-18" type="qcurve"/>
      <point x="2146" y="-86"/>
      <point x="2079" y="-18" type="qcurve" smooth="yes"/>
      <point x="1904" y="155" type="line"/>
      <point x="1875" y="187"/>
      <point x="1875" y="273"/>
    </contour>
    <contour>
      <point x="1875" y="1619"/>
      <point x="1904" y="1648" type="qcurve" smooth="yes"/>
      <point x="2079" y="1823" type="line" smooth="yes"/>
      <point x="2110" y="1854"/>
      <point x="2152" y="1854" type="qcurve" smooth="yes"/>
      <point x="2196" y="1854"/>
      <point x="2257" y="1794"/>
      <point x="2257" y="1750" type="qcurve" smooth="yes"/>
      <point x="2257" y="1705"/>
      <point x="2229" y="1678" type="qcurve" smooth="yes"/>
      <point x="2049" y="1498" type="line" smooth="yes"/>
      <point x="2020" y="1469"/>
      <point x="1976" y="1469" type="qcurve" smooth="yes"/>
      <point x="1933" y="1469"/>
      <point x="1904" y="1498" type="qcurve" smooth="yes"/>
      <point x="1875" y="1530"/>
      <point x="1875" y="1575" type="qcurve" smooth="yes"/>
    </contour>
    <contour>
      <point x="2151" y="946"/>
      <point x="2211" y="1005"/>
      <point x="2258" y="1005" type="qcurve" smooth="yes"/>
      <point x="2438" y="1005" type="line" smooth="yes"/>
      <point x="2482" y="1005"/>
      <point x="2542" y="945"/>
      <point x="2542" y="899" type="qcurve" smooth="yes"/>
      <point x="2542" y="857"/>
      <point x="2481" y="800"/>
      <point x="2438" y="800" type="qcurve" smooth="yes"/>
      <point x="2258" y="800" type="line" smooth="yes"/>
      <point x="2211" y="800"/>
      <point x="2151" y="856"/>
      <point x="2151" y="899" type="qcurve" smooth="yes"/>
    </contour>
  </outline>
</glyph>
<glyph name="uniF00D" format="2">
  <advance width="2267"/>
  <unicode hex="E30D"/>
  <note>
uniF00D
</note>
  <outline>
    <contour>
      <point x="0" y="734"/>
      <point x="54" y="680"/>
      <point x="91" y="680" type="qcurve" smooth="yes"/>
      <point x="309" y="680" type="line" smooth="yes"/>
      <point x="346" y="680"/>
      <point x="395" y="733"/>
      <point x="395" y="809"/>
      <point x="346" y="863"/>
      <point x="309" y="863" type="qcurve" smooth="yes"/>
      <point x="91" y="863" type="line" smooth="yes"/>
      <point x="55" y="863"/>
      <point x="27" y="837" type="qcurve" smooth="yes"/>
      <point x="0" y="810"/>
      <point x="0" y="771" type="qcurve" smooth="yes"/>
    </contour>
    <contour>
      <point x="305" y="-4"/>
      <point x="330" y="-31" type="qcurve"/>
      <point x="396" y="-82"/>
      <point x="461" y="-31" type="qcurve"/>
      <point x="613" y="121" type="line"/>
      <point x="639" y="150"/>
      <point x="639" y="189" type="qcurve" smooth="yes"/>
      <point x="639" y="226"/>
      <point x="588" y="274"/>
      <point x="550" y="274" type="qcurve" smooth="yes"/>
      <point x="511" y="274"/>
      <point x="487" y="249" type="qcurve" smooth="yes"/>
      <point x="330" y="97" type="line"/>
      <point x="305" y="69"/>
      <point x="305" y="32" type="qcurve" smooth="yes"/>
    </contour>
    <contour>
      <point x="305" y="1470"/>
      <point x="330" y="1443" type="qcurve"/>
      <point x="487" y="1291" type="line"/>
      <point x="511" y="1265"/>
      <point x="550" y="1265" type="qcurve" smooth="yes"/>
      <point x="588" y="1265"/>
      <point x="639" y="1316"/>
      <point x="639" y="1354" type="qcurve" smooth="yes"/>
      <point x="639" y="1393"/>
      <point x="613" y="1417" type="qcurve"/>
      <point x="461" y="1574" type="line"/>
      <point x="433" y="1600"/>
      <point x="398" y="1600" type="qcurve" smooth="yes"/>
      <point x="361" y="1600"/>
      <point x="330" y="1574" type="qcurve"/>
      <point x="305" y="1546"/>
      <point x="305" y="1509" type="qcurve" smooth="yes"/>
    </contour>
    <contour>
      <point x="577" y="621"/>
      <point x="727" y="365"/>
      <point x="983" y="216"/>
      <point x="1283" y="216"/>
      <point x="1539" y="365"/>
      <point x="1688" y="621"/>
      <point x="1688" y="771" type="qcurve" smooth="yes"/>
      <point x="1688" y="883"/>
      <point x="1600" y="1089"/>
      <point x="1451" y="1238"/>
      <point x="1245" y="1327"/>
      <point x="1133" y="1327" type="qcurve" smooth="yes"/>
      <point x="984" y="1327"/>
      <point x="727" y="1177"/>
      <point x="577" y="920"/>
      <point x="577" y="771" type="qcurve" smooth="yes"/>
    </contour>
    <contour>
      <point x="758" y="925"/>
      <point x="978" y="1143"/>
      <point x="1133" y="1143" type="qcurve" smooth="yes"/>
      <point x="1289" y="1143"/>
      <point x="1510" y="925"/>
      <point x="1510" y="771" type="qcurve" smooth="yes"/>
      <point x="1510" y="615"/>
      <point x="1289" y="394"/>
      <point x="977" y="394"/>
      <point x="758" y="615"/>
      <point x="758" y="771" type="qcurve" smooth="yes"/>
    </contour>
    <contour>
      <point x="1042" y="-270" type="line" smooth="yes"/>
      <point x="1042" y="-309"/>
      <point x="1095" y="-363"/>
      <point x="1171" y="-363"/>
      <point x="1224" y="-309"/>
      <point x="1224" y="-270" type="qcurve" smooth="yes"/>
      <point x="1224" y="-58" type="line" smooth="yes"/>
      <point x="1224" y="-20"/>
      <point x="1172" y="32"/>
      <point x="1133" y="32" type="qcurve" smooth="yes"/>
      <point x="1095" y="32"/>
      <point x="1042" y="-20"/>
      <point x="1042" y="-58" type="qcurve" smooth="yes"/>
    </contour>
    <contour>
      <point x="1042" y="1558"/>
      <point x="1095" y="1509"/>
      <point x="1171" y="1509"/>
      <point x="1224" y="1558"/>
      <point x="1224" y="1595" type="qcurve" smooth="yes"/>
      <point x="1224" y="1813" type="line" smooth="yes"/>
      <point x="1224" y="1850"/>
      <point x="1170" y="1904"/>
      <point x="1096" y="1904"/>
      <point x="1042" y="1850"/>
      <point x="1042" y="1813" type="qcurve" smooth="yes"/>
      <point x="1042" y="1595" type="line" smooth="yes"/>
    </contour>
    <contour>
      <point x="1631" y="148"/>
      <point x="1655" y="121" type="qcurve"/>
      <point x="1807" y="-31" type="line"/>
      <point x="1871" y="-81"/>
      <point x="1935" y="-31" type="qcurve"/>
      <point x="1961" y="-5"/>
      <point x="1961" y="69"/>
      <point x="1935" y="97" type="qcurve"/>
      <point x="1779" y="249" type="line" smooth="yes"/>
      <point x="1754" y="274"/>
      <point x="1715" y="274" type="qcurve" smooth="yes"/>
      <point x="1679" y="274"/>
      <point x="1655" y="249" type="qcurve" smooth="yes"/>
      <point x="1631" y="226"/>
      <point x="1631" y="189" type="qcurve" smooth="yes"/>
    </contour>
    <contour>
      <point x="1631" y="1316"/>
      <point x="1679" y="1265"/>
      <point x="1715" y="1265" type="qcurve" smooth="yes"/>
      <point x="1750" y="1265"/>
      <point x="1779" y="1291" type="qcurve" smooth="yes"/>
      <point x="1935" y="1443" type="line" smooth="yes"/>
      <point x="1961" y="1469"/>
      <point x="1961" y="1509" type="qcurve" smooth="yes"/>
      <point x="1961" y="1546"/>
      <point x="1908" y="1600"/>
      <point x="1870" y="1600" type="qcurve" smooth="yes"/>
      <point x="1835" y="1600"/>
      <point x="1807" y="1574" type="qcurve"/>
      <point x="1655" y="1417" type="line" smooth="yes"/>
      <point x="1631" y="1394"/>
      <point x="1631" y="1354" type="qcurve" smooth="yes"/>
    </contour>
    <contour>
      <point x="1922" y="680"/>
      <point x="1959" y="680" type="qcurve" smooth="yes"/>
      <point x="2175" y="680" type="line" smooth="yes"/>
      <point x="2212" y="680"/>
      <point x="2267" y="734"/>
      <point x="2267" y="808"/>
      <point x="2212" y="863"/>
      <point x="2175" y="863" type="qcurve" smooth="yes"/>
      <point x="1959" y="863" type="line" smooth="yes"/>
      <point x="1924" y="863"/>
      <point x="1898" y="837" type="qcurve" smooth="yes"/>
      <point x="1872" y="809"/>
      <point x="1872" y="733"/>
    </contour>
  </outline>
</glyph>
<glyph name="uniF00E" format="2">
  <advance width="2883"/>
  <unicode hex="E30E"/>
  <note>
uniF00E
</note>
  <outline>
    <contour>
      <point x="0" y="715"/>
      <point x="231" y="1005"/>
      <point x="408" y="1046" type="qcurve"/>
      <point x="457" y="1265"/>
      <point x="808" y="1546"/>
      <point x="1035" y="1546" type="qcurve" smooth="yes"/>
      <point x="1196" y="1546"/>
      <point x="1325" y="1477" type="qcurve"/>
      <point x="1404" y="1562"/>
      <point x="1621" y="1658"/>
      <point x="1736" y="1658" type="qcurve" smooth="yes"/>
      <point x="1888" y="1658"/>
      <point x="2147" y="1507"/>
      <point x="2298" y="1248"/>
      <point x="2298" y="1096" type="qcurve" smooth="yes"/>
      <point x="2298" y="899"/>
      <point x="2176" y="745" type="qcurve"/>
      <point x="2222" y="647"/>
      <point x="2222" y="530" type="qcurve" smooth="yes"/>
      <point x="2222" y="389"/>
      <point x="2086" y="148"/>
      <point x="1851" y="3"/>
      <point x="1710" y="-1" type="qcurve" smooth="yes"/>
      <point x="1689" y="-1"/>
      <point x="1689" y="17" type="qcurve" smooth="yes"/>
      <point x="1689" y="160" type="line" smooth="yes"/>
      <point x="1689" y="179"/>
      <point x="1710" y="179" type="qcurve" smooth="yes"/>
      <point x="1847" y="186"/>
      <point x="2038" y="391"/>
      <point x="2038" y="530" type="qcurve" smooth="yes"/>
      <point x="2038" y="672"/>
      <point x="1832" y="877"/>
      <point x="1689" y="877" type="qcurve" smooth="yes"/>
      <point x="1517" y="877" type="line" smooth="yes"/>
      <point x="1498" y="877"/>
      <point x="1498" y="895" type="qcurve"/>
      <point x="1490" y="958" type="line" smooth="yes"/>
      <point x="1472" y="1131"/>
      <point x="1209" y="1366"/>
      <point x="1035" y="1366" type="qcurve" smooth="yes"/>
      <point x="859" y="1366"/>
      <point x="600" y="1131"/>
      <point x="583" y="958" type="qcurve" smooth="yes"/>
      <point x="575" y="895" type="line"/>
      <point x="570" y="880"/>
      <point x="551" y="880" type="qcurve" smooth="yes"/>
      <point x="497" y="877" type="line"/>
      <point x="362" y="861"/>
      <point x="182" y="665"/>
      <point x="182" y="530" type="qcurve" smooth="yes"/>
      <point x="182" y="409"/>
      <point x="332" y="220"/>
      <point x="447" y="191" type="qcurve"/>
      <point x="561" y="498" type="line"/>
      <point x="571" y="514"/>
      <point x="586" y="514" type="qcurve" smooth="yes"/>
      <point x="902" y="514" type="line" smooth="yes"/>
      <point x="929" y="514"/>
      <point x="917" y="491" type="qcurve" smooth="yes"/>
      <point x="651" y="-5" type="line"/>
      <point x="885" y="-5" type="line" smooth="yes"/>
      <point x="896" y="-5"/>
      <point x="904" y="-20"/>
      <point x="898" y="-27" type="qcurve" smooth="yes"/>
      <point x="433" y="-631" type="line"/>
      <point x="402" y="-631" type="line"/>
      <point x="554" y="-182" type="line"/>
      <point x="327" y="-182" type="line" smooth="yes"/>
      <point x="304" y="-182"/>
      <point x="312" y="-159" type="qcurve" smooth="yes"/>
      <point x="382" y="22" type="line"/>
      <point x="213" y="69"/>
      <point x="0" y="351"/>
      <point x="0" y="530" type="qcurve" smooth="yes"/>
    </contour>
    <contour>
      <point x="873" y="-524"/>
      <point x="878" y="-502" type="qcurve" smooth="yes"/>
      <point x="905" y="-391" type="line"/>
      <point x="917" y="-355"/>
      <point x="983" y="-317"/>
      <point x="1016" y="-328" type="qcurve"/>
      <point x="1054" y="-336"/>
      <point x="1092" y="-399"/>
      <point x="1082" y="-439" type="qcurve" smooth="yes"/>
      <point x="1053" y="-549" type="line" smooth="yes"/>
      <point x="1041" y="-597"/>
      <point x="1007" y="-610" type="qcurve" smooth="yes"/>
      <point x="990" y="-618"/>
      <point x="966" y="-618" type="qcurve" smooth="yes"/>
      <point x="957" y="-618"/>
      <point x="939" y="-614" type="qcurve" smooth="yes"/>
      <point x="907" y="-604"/>
      <point x="873" y="-552"/>
      <point x="873" y="-528" type="qcurve" smooth="yes"/>
    </contour>
    <contour>
      <point x="898" y="1879"/>
      <point x="952" y="1931"/>
      <point x="992" y="1931" type="qcurve" smooth="yes"/>
      <point x="1030" y="1931"/>
      <point x="1056" y="1905" type="qcurve" smooth="yes"/>
      <point x="1123" y="1835" type="line" smooth="yes"/>
      <point x="1150" y="1808"/>
      <point x="1150" y="1771" type="qcurve" smooth="yes"/>
      <point x="1150" y="1732"/>
      <point x="1086" y="1674"/>
      <point x="1053" y="1679" type="qcurve" smooth="yes"/>
      <point x="1019" y="1682"/>
      <point x="994" y="1707" type="qcurve" smooth="yes"/>
      <point x="925" y="1777" type="line" smooth="yes"/>
      <point x="898" y="1804"/>
      <point x="898" y="1841" type="qcurve" smooth="yes"/>
    </contour>
    <contour>
      <point x="1016" y="-12"/>
      <point x="1021" y="10" type="qcurve" smooth="yes"/>
      <point x="1047" y="122" type="line"/>
      <point x="1058" y="160"/>
      <point x="1123" y="197"/>
      <point x="1159" y="186" type="qcurve" smooth="yes"/>
      <point x="1197" y="175"/>
      <point x="1236" y="110"/>
      <point x="1225" y="75" type="qcurve" smooth="yes"/>
      <point x="1193" y="-35" type="line" smooth="yes"/>
      <point x="1181" y="-77"/>
      <point x="1116" y="-112"/>
      <point x="1082" y="-101" type="qcurve" smooth="yes"/>
      <point x="1047" y="-91"/>
      <point x="1015" y="-42"/>
      <point x="1016" y="-16" type="qcurve" smooth="yes"/>
    </contour>
    <contour>
      <point x="1318" y="-184"/>
      <point x="1321" y="-170" type="qcurve" smooth="yes"/>
      <point x="1351" y="-59" type="line" smooth="yes"/>
      <point x="1362" y="-23"/>
      <point x="1427" y="13"/>
      <point x="1464" y="2" type="qcurve" smooth="yes"/>
      <point x="1500" y="-8"/>
      <point x="1536" y="-71"/>
      <point x="1525" y="-109" type="qcurve" smooth="yes"/>
      <point x="1498" y="-217" type="line"/>
      <point x="1482" y="-269"/>
      <point x="1450" y="-281" type="qcurve"/>
      <point x="1437" y="-289"/>
      <point x="1417" y="-289" type="qcurve" smooth="yes"/>
      <point x="1405" y="-289"/>
      <point x="1387" y="-283" type="qcurve" smooth="yes"/>
      <point x="1350" y="-271"/>
      <point x="1329" y="-237" type="qcurve" smooth="yes"/>
      <point x="1318" y="-218"/>
      <point x="1318" y="-195" type="qcurve" smooth="yes"/>
    </contour>
    <contour>
      <point x="1467" y="341" type="qcurve"/>
      <point x="1498" y="454" type="line" smooth="yes"/>
      <point x="1509" y="490"/>
      <point x="1573" y="525"/>
      <point x="1609" y="514" type="qcurve"/>
      <point x="1647" y="506"/>
      <point x="1684" y="443"/>
      <point x="1674" y="403" type="qcurve" smooth="yes"/>
      <point x="1645" y="296" type="line" smooth="yes"/>
      <point x="1631" y="249"/>
      <point x="1599" y="235" type="qcurve" smooth="yes"/>
      <point x="1561" y="221"/>
      <point x="1534" y="230" type="qcurve" smooth="yes"/>
      <point x="1499" y="240"/>
      <point x="1464" y="291"/>
      <point x="1464" y="319" type="qcurve" smooth="yes"/>
      <point x="1464" y="320"/>
    </contour>
    <contour>
      <point x="1609" y="1247"/>
      <point x="1656" y="1057" type="qcurve"/>
      <point x="1689" y="1057" type="line" smooth="yes"/>
      <point x="1910" y="1057"/>
      <point x="2064" y="903" type="qcurve"/>
      <point x="2114" y="991"/>
      <point x="2114" y="1096" type="qcurve" smooth="yes"/>
      <point x="2114" y="1253"/>
      <point x="1893" y="1472"/>
      <point x="1736" y="1472" type="qcurve" smooth="yes"/>
      <point x="1582" y="1472"/>
      <point x="1475" y="1369" type="qcurve"/>
    </contour>
    <contour>
      <point x="1645" y="2151" type="line" smooth="yes"/>
      <point x="1645" y="2189"/>
      <point x="1698" y="2243"/>
      <point x="1774" y="2243"/>
      <point x="1825" y="2190"/>
      <point x="1825" y="2151" type="qcurve" smooth="yes"/>
      <point x="1825" y="1931" type="line" smooth="yes"/>
      <point x="1825" y="1892"/>
      <point x="1774" y="1839"/>
      <point x="1698" y="1839"/>
      <point x="1645" y="1893"/>
      <point x="1645" y="1931" type="qcurve" smooth="yes"/>
    </contour>
    <contour>
      <point x="2265" y="1751" type="qcurve" smooth="yes"/>
      <point x="2419" y="1905" type="line"/>
      <point x="2444" y="1933"/>
      <point x="2481" y="1933" type="qcurve" smooth="yes"/>
      <point x="2519" y="1933"/>
      <point x="2545" y="1905" type="qcurve" smooth="yes"/>
      <point x="2573" y="1879"/>
      <point x="2573" y="1803"/>
      <point x="2545" y="1777" type="qcurve" smooth="yes"/>
      <point x="2391" y="1623" type="line" smooth="yes"/>
      <point x="2360" y="1593"/>
      <point x="2287" y="1598"/>
      <point x="2265" y="1623" type="qcurve" smooth="yes"/>
      <point x="2240" y="1648"/>
      <point x="2240" y="1726"/>
    </contour>
    <contour>
      <point x="2323" y="454"/>
      <point x="2376" y="509"/>
      <point x="2414" y="509" type="qcurve" smooth="yes"/>
      <point x="2450" y="509"/>
      <point x="2479" y="480" type="qcurve" smooth="yes"/>
      <point x="2545" y="414" type="line" smooth="yes"/>
      <point x="2573" y="386"/>
      <point x="2573" y="349" type="qcurve" smooth="yes"/>
      <point x="2573" y="311"/>
      <point x="2545" y="285" type="qcurve"/>
      <point x="2522" y="256"/>
      <point x="2487" y="256" type="qcurve"/>
      <point x="2485" y="258" type="line"/>
      <point x="2448" y="258"/>
      <point x="2419" y="285" type="qcurve" smooth="yes"/>
      <point x="2350" y="352" type="line" smooth="yes"/>
      <point x="2323" y="379"/>
      <point x="2323" y="416" type="qcurve" smooth="yes"/>
    </contour>
    <contour>
      <point x="2479" y="1134"/>
      <point x="2532" y="1185"/>
      <point x="2571" y="1185" type="qcurve" smooth="yes"/>
      <point x="2791" y="1185" type="line" smooth="yes"/>
      <point x="2830" y="1185"/>
      <point x="2883" y="1134"/>
      <point x="2883" y="1058"/>
      <point x="2829" y="1005"/>
      <point x="2791" y="1005" type="qcurve" smooth="yes"/>
      <point x="2571" y="1005" type="line" smooth="yes"/>
      <point x="2532" y="1005"/>
      <point x="2507" y="1033" type="qcurve"/>
      <point x="2479" y="1057"/>
      <point x="2479" y="1096" type="qcurve" smooth="yes"/>
    </contour>
  </outline>
</glyph>
<glyph name="uniF010" format="2">
  <advance width="2875"/>
  <unicode hex="E30F"/>
  <note>
uniF010
</note>
  <outline>
    <contour>
      <point x="0" y="713"/>
      <point x="229" y="1000"/>
      <point x="406" y="1041" type="qcurve"/>
      <point x="455" y="1259"/>
      <point x="805" y="1539"/>
      <point x="1031" y="1539" type="qcurve" smooth="yes"/>
      <point x="1190" y="1539"/>
      <point x="1319" y="1470" type="qcurve"/>
      <point x="1486" y="1655"/>
      <point x="1733" y="1655" type="qcurve" smooth="yes"/>
      <point x="1884" y="1655"/>
      <point x="2142" y="1504"/>
      <point x="2293" y="1246"/>
      <point x="2293" y="1096" type="qcurve" smooth="yes"/>
      <point x="2293" y="895"/>
      <point x="2167" y="742" type="qcurve"/>
      <point x="2213" y="646"/>
      <point x="2213" y="528" type="qcurve" smooth="yes"/>
      <point x="2213" y="314"/>
      <point x="1916" y="6"/>
      <point x="1703" y="-1" type="qcurve" smooth="yes"/>
      <point x="1682" y="-1"/>
      <point x="1682" y="17" type="qcurve" smooth="yes"/>
      <point x="1682" y="163" type="line" smooth="yes"/>
      <point x="1682" y="182"/>
      <point x="1703" y="182" type="qcurve"/>
      <point x="1842" y="193"/>
      <point x="2032" y="392"/>
      <point x="2032" y="528" type="qcurve" smooth="yes"/>
      <point x="2032" y="671"/>
      <point x="1827" y="873"/>
      <point x="1682" y="873" type="qcurve" smooth="yes"/>
      <point x="1510" y="873" type="line" smooth="yes"/>
      <point x="1491" y="873"/>
      <point x="1491" y="891" type="qcurve"/>
      <point x="1485" y="953" type="line" smooth="yes"/>
      <point x="1466" y="1126"/>
      <point x="1205" y="1360"/>
      <point x="1031" y="1360" type="qcurve" smooth="yes"/>
      <point x="856" y="1360"/>
      <point x="596" y="1126"/>
      <point x="579" y="953" type="qcurve" smooth="yes"/>
      <point x="573" y="899" type="line"/>
      <point x="573" y="880"/>
      <point x="552" y="880" type="qcurve"/>
      <point x="496" y="873" type="line" smooth="yes"/>
      <point x="362" y="857"/>
      <point x="181" y="661"/>
      <point x="181" y="528" type="qcurve" smooth="yes"/>
      <point x="181" y="409"/>
      <point x="331" y="219"/>
      <point x="445" y="190" type="qcurve"/>
      <point x="559" y="497" type="line"/>
      <point x="569" y="512"/>
      <point x="584" y="512" type="qcurve" smooth="yes"/>
      <point x="898" y="512" type="line" smooth="yes"/>
      <point x="924" y="512"/>
      <point x="913" y="489" type="qcurve" smooth="yes"/>
      <point x="649" y="-5" type="line"/>
      <point x="881" y="-5" type="line" smooth="yes"/>
      <point x="892" y="-5"/>
      <point x="901" y="-20"/>
      <point x="895" y="-27" type="qcurve" smooth="yes"/>
      <point x="450" y="-602" type="line"/>
      <point x="419" y="-602" type="line"/>
      <point x="552" y="-181" type="line"/>
      <point x="326" y="-181" type="line" smooth="yes"/>
      <point x="304" y="-181"/>
      <point x="311" y="-159" type="qcurve" smooth="yes"/>
      <point x="379" y="22" type="line"/>
      <point x="210" y="73"/>
      <point x="0" y="351"/>
      <point x="0" y="528" type="qcurve" smooth="yes"/>
    </contour>
    <contour>
      <point x="863" y="-479"/>
      <point x="866" y="-466" type="qcurve" smooth="yes"/>
      <point x="1112" y="451" type="line" smooth="yes"/>
      <point x="1122" y="487"/>
      <point x="1187" y="523"/>
      <point x="1224" y="512" type="qcurve" smooth="yes"/>
      <point x="1259" y="501"/>
      <point x="1293" y="438"/>
      <point x="1283" y="401" type="qcurve" smooth="yes"/>
      <point x="1039" y="-513" type="line" smooth="yes"/>
      <point x="1030" y="-547"/>
      <point x="976" y="-579"/>
      <point x="949" y="-579" type="qcurve" smooth="yes"/>
      <point x="938" y="-579"/>
      <point x="927" y="-576" type="qcurve" smooth="yes"/>
      <point x="894" y="-564"/>
      <point x="861" y="-518"/>
      <point x="863" y="-494" type="qcurve" smooth="yes"/>
    </contour>
    <contour>
      <point x="950" y="1927"/>
      <point x="990" y="1927" type="qcurve" smooth="yes"/>
      <point x="1027" y="1927"/>
      <point x="1055" y="1901" type="qcurve"/>
      <point x="1122" y="1831" type="line"/>
      <point x="1149" y="1806"/>
      <point x="1149" y="1768" type="qcurve" smooth="yes"/>
      <point x="1149" y="1728"/>
      <point x="1119" y="1704" type="qcurve"/>
      <point x="1096" y="1676"/>
      <point x="1020" y="1677"/>
      <point x="993" y="1704" type="qcurve" smooth="yes"/>
      <point x="925" y="1774" type="line" smooth="yes"/>
      <point x="898" y="1799"/>
      <point x="898" y="1875"/>
    </contour>
    <contour>
      <point x="1306" y="-164"/>
      <point x="1310" y="-148"/>
      <point x="1310" y="-144" type="qcurve"/>
      <point x="1469" y="451" type="line" smooth="yes"/>
      <point x="1479" y="487"/>
      <point x="1542" y="523"/>
      <point x="1579" y="512" type="qcurve" smooth="yes"/>
      <point x="1615" y="501"/>
      <point x="1651" y="439"/>
      <point x="1641" y="401" type="qcurve" smooth="yes"/>
      <point x="1482" y="-191" type="line" smooth="yes"/>
      <point x="1470" y="-240"/>
      <point x="1438" y="-253" type="qcurve"/>
      <point x="1427" y="-259"/>
      <point x="1403" y="-259" type="qcurve" smooth="yes"/>
      <point x="1382" y="-259"/>
      <point x="1371" y="-254" type="qcurve" smooth="yes"/>
      <point x="1338" y="-240"/>
      <point x="1318" y="-208" type="qcurve" smooth="yes"/>
      <point x="1306" y="-187"/>
      <point x="1306" y="-168" type="qcurve" smooth="yes"/>
    </contour>
    <contour>
      <point x="1600" y="1244"/>
      <point x="1649" y="1056" type="qcurve"/>
      <point x="1682" y="1056" type="line" smooth="yes"/>
      <point x="1896" y="1056"/>
      <point x="2055" y="899" type="qcurve"/>
      <point x="2110" y="996"/>
      <point x="2110" y="1096" type="qcurve" smooth="yes"/>
      <point x="2110" y="1252"/>
      <point x="1889" y="1470"/>
      <point x="1733" y="1470" type="qcurve" smooth="yes"/>
      <point x="1576" y="1470"/>
      <point x="1469" y="1367" type="qcurve"/>
    </contour>
    <contour>
      <point x="1641" y="2146" type="line" smooth="yes"/>
      <point x="1641" y="2184"/>
      <point x="1696" y="2238"/>
      <point x="1733" y="2238" type="qcurve" smooth="yes"/>
      <point x="1771" y="2238"/>
      <point x="1821" y="2184"/>
      <point x="1821" y="2146" type="qcurve" smooth="yes"/>
      <point x="1821" y="1927" type="line" smooth="yes"/>
      <point x="1821" y="1889"/>
      <point x="1771" y="1835"/>
      <point x="1733" y="1835" type="qcurve" smooth="yes"/>
      <point x="1696" y="1835"/>
      <point x="1641" y="1890"/>
      <point x="1641" y="1927" type="qcurve" smooth="yes"/>
    </contour>
    <contour>
      <point x="2259" y="1747" type="qcurve"/>
      <point x="2413" y="1901" type="line" smooth="yes"/>
      <point x="2439" y="1929"/>
      <point x="2474" y="1929" type="qcurve" smooth="yes"/>
      <point x="2512" y="1929"/>
      <point x="2566" y="1875"/>
      <point x="2566" y="1799"/>
      <point x="2538" y="1774" type="qcurve"/>
      <point x="2384" y="1619" type="line" smooth="yes"/>
      <point x="2357" y="1592"/>
      <point x="2282" y="1592"/>
      <point x="2259" y="1619" type="qcurve"/>
      <point x="2231" y="1644"/>
      <point x="2231" y="1722"/>
    </contour>
    <contour>
      <point x="2317" y="456"/>
      <point x="2370" y="510"/>
      <point x="2407" y="510" type="qcurve" smooth="yes"/>
      <point x="2443" y="510"/>
      <point x="2469" y="481" type="qcurve"/>
      <point x="2538" y="416" type="line" smooth="yes"/>
      <point x="2566" y="388"/>
      <point x="2566" y="351" type="qcurve" smooth="yes"/>
      <point x="2566" y="313"/>
      <point x="2538" y="287" type="qcurve" smooth="yes"/>
      <point x="2512" y="259"/>
      <point x="2482" y="259" type="qcurve" smooth="yes"/>
      <point x="2480" y="259"/>
      <point x="2474" y="260"/>
      <point x="2472" y="260" type="qcurve"/>
      <point x="2471" y="261" type="line"/>
      <point x="2433" y="264"/>
      <point x="2413" y="287" type="qcurve"/>
      <point x="2343" y="354" type="line"/>
      <point x="2317" y="382"/>
      <point x="2317" y="418" type="qcurve" smooth="yes"/>
    </contour>
    <contour>
      <point x="2526" y="1184"/>
      <point x="2566" y="1184" type="qcurve" smooth="yes"/>
      <point x="2783" y="1184" type="line" smooth="yes"/>
      <point x="2821" y="1184"/>
      <point x="2875" y="1133"/>
      <point x="2875" y="1096" type="qcurve" smooth="yes"/>
      <point x="2875" y="1058"/>
      <point x="2820" y="1003"/>
      <point x="2783" y="1003" type="qcurve" smooth="yes"/>
      <point x="2566" y="1003" type="line" smooth="yes"/>
      <point x="2530" y="1003"/>
      <point x="2501" y="1032" type="qcurve" smooth="yes"/>
      <point x="2472" y="1059"/>
      <point x="2472" y="1133"/>
    </contour>
  </outline>
</glyph>
<glyph name="uniF011" format="2">
  <advance width="2428"/>
  <unicode hex="E310"/>
  <note>
uniF011
</note>
  <outline>
    <contour>
      <point x="0" y="52"/>
      <point x="54" y="-1"/>
      <point x="91" y="-1" type="qcurve" smooth="yes"/>
      <point x="669" y="-1" type="line" smooth="yes"/>
      <point x="711" y="-1"/>
      <point x="773" y="-62"/>
      <point x="773" y="-104" type="qcurve" smooth="yes"/>
      <point x="773" y="-148"/>
      <point x="711" y="-209"/>
      <point x="627" y="-209"/>
      <point x="595" y="-178" type="qcurve" smooth="yes"/>
      <point x="567" y="-152"/>
      <point x="530" y="-152" type="qcurve" smooth="yes"/>
      <point x="490" y="-152"/>
      <point x="441" y="-203"/>
      <point x="441" y="-281"/>
      <point x="466" y="-306" type="qcurve" smooth="yes"/>
      <point x="550" y="-390"/>
      <point x="788" y="-390"/>
      <point x="954" y="-223"/>
      <point x="954" y="-104" type="qcurve" smooth="yes"/>
      <point x="954" y="14"/>
      <point x="787" y="183"/>
      <point x="669" y="183" type="qcurve" smooth="yes"/>
      <point x="91" y="183" type="line" smooth="yes"/>
      <point x="55" y="183"/>
      <point x="27" y="157" type="qcurve" smooth="yes"/>
      <point x="0" y="130"/>
      <point x="0" y="90" type="qcurve" smooth="yes"/>
    </contour>
    <contour>
      <point x="0" y="377"/>
      <point x="53" y="326"/>
      <point x="91" y="326" type="qcurve" smooth="yes"/>
      <point x="1216" y="326" type="line" smooth="yes"/>
      <point x="1335" y="326"/>
      <point x="1502" y="493"/>
      <point x="1502" y="729"/>
      <point x="1335" y="895"/>
      <point x="1216" y="895" type="qcurve" smooth="yes"/>
      <point x="1092" y="895"/>
      <point x="1011" y="814" type="qcurve" smooth="yes"/>
      <point x="987" y="789"/>
      <point x="987" y="749" type="qcurve" smooth="yes"/>
      <point x="987" y="710"/>
      <point x="1036" y="661"/>
      <point x="1114" y="661"/>
      <point x="1143" y="685" type="qcurve"/>
      <point x="1172" y="715"/>
      <point x="1216" y="715" type="qcurve" smooth="yes"/>
      <point x="1258" y="715"/>
      <point x="1320" y="654"/>
      <point x="1320" y="568"/>
      <point x="1258" y="506"/>
      <point x="1216" y="506" type="qcurve" smooth="yes"/>
      <point x="91" y="506" type="line" smooth="yes"/>
      <point x="55" y="506"/>
      <point x="27" y="480" type="qcurve" smooth="yes"/>
      <point x="0" y="453"/>
      <point x="0" y="414" type="qcurve" smooth="yes"/>
    </contour>
    <contour>
      <point x="229" y="670"/>
      <point x="231" y="675" type="qcurve"/>
      <point x="231" y="679" type="line"/>
      <point x="272" y="815"/>
      <point x="484" y="1014"/>
      <point x="621" y="1046" type="qcurve"/>
      <point x="668" y="1265"/>
      <point x="1016" y="1546"/>
      <point x="1242" y="1546" type="qcurve" smooth="yes"/>
      <point x="1466" y="1546"/>
      <point x="1813" y="1274"/>
      <point x="1863" y="1061" type="qcurve"/>
      <point x="1896" y="1061" type="line" smooth="yes"/>
      <point x="2041" y="1061"/>
      <point x="2286" y="919"/>
      <point x="2429" y="675"/>
      <point x="2429" y="530" type="qcurve" smooth="yes"/>
      <point x="2429" y="386"/>
      <point x="2286" y="141"/>
      <point x="2041" y="-1"/>
      <point x="1896" y="-1" type="qcurve" smooth="yes"/>
      <point x="1159" y="-1" type="line" smooth="yes"/>
      <point x="1139" y="-1"/>
      <point x="1139" y="17" type="qcurve" smooth="yes"/>
      <point x="1139" y="165" type="line" smooth="yes"/>
      <point x="1139" y="183"/>
      <point x="1159" y="183" type="qcurve" smooth="yes"/>
      <point x="1896" y="183" type="line" smooth="yes"/>
      <point x="2041" y="183"/>
      <point x="2248" y="387"/>
      <point x="2248" y="673"/>
      <point x="2041" y="877"/>
      <point x="1896" y="877" type="qcurve" smooth="yes"/>
      <point x="1723" y="877" type="line" smooth="yes"/>
      <point x="1705" y="877"/>
      <point x="1705" y="895" type="qcurve"/>
      <point x="1697" y="958" type="line" smooth="yes"/>
      <point x="1679" y="1133"/>
      <point x="1419" y="1366"/>
      <point x="1242" y="1366" type="qcurve" smooth="yes"/>
      <point x="1066" y="1366"/>
      <point x="807" y="1131"/>
      <point x="790" y="958" type="qcurve"/>
      <point x="782" y="903" type="line"/>
      <point x="782" y="885"/>
      <point x="761" y="885" type="qcurve"/>
      <point x="705" y="877" type="line"/>
      <point x="611" y="870"/>
      <point x="459" y="756"/>
      <point x="423" y="669" type="qcurve"/>
      <point x="413" y="653"/>
      <point x="400" y="653" type="qcurve" smooth="yes"/>
      <point x="246" y="653" type="line" smooth="yes"/>
      <point x="229" y="653"/>
      <point x="229" y="666" type="qcurve" smooth="yes"/>
    </contour>
  </outline>
</glyph>
<glyph name="uniF012" format="2">
  <advance width="2539"/>
  <unicode hex="E311"/>
  <note>
uniF012
</note>
  <outline>
    <contour>
      <point x="0" y="49"/>
      <point x="54" y="-2"/>
      <point x="94" y="-2" type="qcurve" smooth="yes"/>
      <point x="1051" y="-2" type="line" smooth="yes"/>
      <point x="1088" y="-2"/>
      <point x="1139" y="49"/>
      <point x="1139" y="87" type="qcurve" smooth="yes"/>
      <point x="1139" y="127"/>
      <point x="1089" y="178"/>
      <point x="1051" y="178" type="qcurve" smooth="yes"/>
      <point x="94" y="178" type="line" smooth="yes"/>
      <point x="54" y="178"/>
      <point x="0" y="126"/>
      <point x="0" y="87" type="qcurve" smooth="yes"/>
    </contour>
    <contour>
      <point x="281" y="376"/>
      <point x="336" y="321"/>
      <point x="373" y="321" type="qcurve" smooth="yes"/>
      <point x="1333" y="321" type="line" smooth="yes"/>
      <point x="1370" y="321"/>
      <point x="1419" y="375"/>
      <point x="1419" y="451"/>
      <point x="1370" y="501"/>
      <point x="1333" y="501" type="qcurve" smooth="yes"/>
      <point x="373" y="501" type="line" smooth="yes"/>
      <point x="333" y="501"/>
      <point x="310" y="477" type="qcurve" smooth="yes"/>
      <point x="281" y="451"/>
      <point x="281" y="413" type="qcurve" smooth="yes"/>
    </contour>
    <contour>
      <point x="347" y="666"/>
      <point x="349" y="670" type="qcurve"/>
      <point x="349" y="672" type="line"/>
      <point x="390" y="810"/>
      <point x="598" y="1007"/>
      <point x="736" y="1038" type="qcurve"/>
      <point x="783" y="1258"/>
      <point x="1132" y="1541"/>
      <point x="1359" y="1541" type="qcurve" smooth="yes"/>
      <point x="1579" y="1541"/>
      <point x="1924" y="1268"/>
      <point x="1976" y="1053" type="qcurve"/>
      <point x="2009" y="1053" type="line" smooth="yes"/>
      <point x="2154" y="1053"/>
      <point x="2398" y="912"/>
      <point x="2539" y="669"/>
      <point x="2539" y="525" type="qcurve" smooth="yes"/>
      <point x="2539" y="418"/>
      <point x="2455" y="223"/>
      <point x="2314" y="81"/>
      <point x="2117" y="-2"/>
      <point x="2009" y="-2" type="qcurve" smooth="yes"/>
      <point x="1274" y="-2" type="line" smooth="yes"/>
      <point x="1255" y="-2"/>
      <point x="1255" y="17" type="qcurve" smooth="yes"/>
      <point x="1255" y="160" type="line" smooth="yes"/>
      <point x="1255" y="178"/>
      <point x="1274" y="178" type="qcurve" smooth="yes"/>
      <point x="2009" y="178" type="line" smooth="yes"/>
      <point x="2151" y="178"/>
      <point x="2359" y="385"/>
      <point x="2359" y="525" type="qcurve" smooth="yes"/>
      <point x="2359" y="670"/>
      <point x="2154" y="874"/>
      <point x="2009" y="874" type="qcurve" smooth="yes"/>
      <point x="1838" y="874" type="line" smooth="yes"/>
      <point x="1819" y="874"/>
      <point x="1819" y="891" type="qcurve"/>
      <point x="1811" y="954" type="line" smooth="yes"/>
      <point x="1789" y="1128"/>
      <point x="1533" y="1357"/>
      <point x="1359" y="1357" type="qcurve" smooth="yes"/>
      <point x="1183" y="1357"/>
      <point x="922" y="1125"/>
      <point x="904" y="951" type="qcurve" smooth="yes"/>
      <point x="897" y="896" type="line"/>
      <point x="897" y="877"/>
      <point x="879" y="877" type="qcurve"/>
      <point x="821" y="870" type="line" smooth="yes"/>
      <point x="728" y="863"/>
      <point x="578" y="749"/>
      <point x="542" y="662" type="qcurve"/>
      <point x="532" y="647"/>
      <point x="517" y="647" type="qcurve" smooth="yes"/>
      <point x="365" y="647" type="line" smooth="yes"/>
      <point x="347" y="647"/>
      <point x="347" y="662" type="qcurve" smooth="yes"/>
    </contour>
    <contour>
      <point x="469" y="-281"/>
      <point x="523" y="-335"/>
      <point x="560" y="-335" type="qcurve" smooth="yes"/>
      <point x="1519" y="-335" type="line" smooth="yes"/>
      <point x="1557" y="-335"/>
      <point x="1611" y="-281"/>
      <point x="1611" y="-205"/>
      <point x="1558" y="-154"/>
      <point x="1519" y="-154" type="qcurve" smooth="yes"/>
      <point x="560" y="-154" type="line" smooth="yes"/>
      <point x="521" y="-154"/>
      <point x="497" y="-179" type="qcurve" smooth="yes"/>
      <point x="469" y="-204"/>
      <point x="469" y="-243" type="qcurve" smooth="yes"/>
    </contour>
  </outline>
</glyph>
<glyph name="uniF013" format="2">
  <advance width="2370"/>
  <unicode hex="E312"/>
  <note>
uniF013
</note>
  <outline>
    <contour>
      <point x="0" y="362"/>
      <point x="72" y="193"/>
      <point x="194" y="71"/>
      <point x="363" y="-1"/>
      <point x="455" y="-1" type="qcurve" smooth="yes"/>
      <point x="1445" y="-1" type="line" smooth="yes"/>
      <point x="1633" y="-1"/>
      <point x="1899" y="266"/>
      <point x="1899" y="642"/>
      <point x="1633" y="907"/>
      <point x="1445" y="907" type="qcurve" smooth="yes"/>
      <point x="1416" y="907" type="line"/>
      <point x="1372" y="1089"/>
      <point x="1075" y="1322"/>
      <point x="886" y="1322" type="qcurve" smooth="yes"/>
      <point x="692" y="1322"/>
      <point x="394" y="1083"/>
      <point x="353" y="895" type="qcurve"/>
      <point x="198" y="860"/>
      <point x="0" y="613"/>
      <point x="0" y="454" type="qcurve" smooth="yes"/>
    </contour>
    <contour>
      <point x="155" y="570"/>
      <point x="311" y="740"/>
      <point x="426" y="750" type="qcurve"/>
      <point x="474" y="757" type="line"/>
      <point x="491" y="757"/>
      <point x="491" y="773" type="qcurve"/>
      <point x="498" y="818" type="line"/>
      <point x="512" y="968"/>
      <point x="735" y="1168"/>
      <point x="1037" y="1168"/>
      <point x="1258" y="969"/>
      <point x="1274" y="818" type="qcurve" smooth="yes"/>
      <point x="1281" y="766" type="line"/>
      <point x="1281" y="750"/>
      <point x="1297" y="750" type="qcurve" smooth="yes"/>
      <point x="1445" y="750" type="line" smooth="yes"/>
      <point x="1569" y="750"/>
      <point x="1745" y="576"/>
      <point x="1745" y="332"/>
      <point x="1569" y="157"/>
      <point x="1445" y="157" type="qcurve" smooth="yes"/>
      <point x="455" y="157" type="line" smooth="yes"/>
      <point x="331" y="157"/>
      <point x="155" y="332"/>
      <point x="155" y="454" type="qcurve" smooth="yes"/>
    </contour>
    <contour>
      <point x="1246" y="1553"/>
      <point x="1472" y="1553" type="qcurve" smooth="yes"/>
      <point x="1637" y="1553"/>
      <point x="1904" y="1346"/>
      <point x="1946" y="1186" type="qcurve"/>
      <point x="1962" y="1186" type="line" smooth="yes"/>
      <point x="2131" y="1186"/>
      <point x="2370" y="947"/>
      <point x="2370" y="778" type="qcurve" smooth="yes"/>
      <point x="2370" y="618"/>
      <point x="2148" y="384"/>
      <point x="1987" y="374" type="qcurve" smooth="yes"/>
      <point x="1971" y="374"/>
      <point x="1971" y="391" type="qcurve" smooth="yes"/>
      <point x="1971" y="512" type="line" smooth="yes"/>
      <point x="1971" y="529"/>
      <point x="1987" y="529" type="qcurve"/>
      <point x="2084" y="540"/>
      <point x="2216" y="682"/>
      <point x="2216" y="778" type="qcurve" smooth="yes"/>
      <point x="2216" y="881"/>
      <point x="2066" y="1030"/>
      <point x="1962" y="1030" type="qcurve" smooth="yes"/>
      <point x="1811" y="1030" type="line"/>
      <point x="1801" y="1098" type="line"/>
      <point x="1790" y="1225"/>
      <point x="1601" y="1398"/>
      <point x="1343" y="1398"/>
      <point x="1246" y="1306" type="qcurve"/>
      <point x="1240" y="1298"/>
      <point x="1222" y="1303" type="qcurve"/>
      <point x="1176" y="1332"/>
      <point x="1107" y="1362" type="qcurve"/>
      <point x="1083" y="1369"/>
      <point x="1099" y="1384" type="qcurve"/>
    </contour>
  </outline>
</glyph>
<glyph name="uniF014" format="2">
  <advance width="2641"/>
  <unicode hex="E313"/>
  <note>
uniF014
</note>
  <outline>
    <contour>
      <point x="0" y="49"/>
      <point x="54" y="-1"/>
      <point x="94" y="-1" type="qcurve" smooth="yes"/>
      <point x="2085" y="-1" type="line" smooth="yes"/>
      <point x="2123" y="-1"/>
      <point x="2176" y="49"/>
      <point x="2176" y="86" type="qcurve" smooth="yes"/>
      <point x="2176" y="126"/>
      <point x="2125" y="177"/>
      <point x="2085" y="177" type="qcurve" smooth="yes"/>
      <point x="94" y="177" type="line" smooth="yes"/>
      <point x="54" y="177"/>
      <point x="0" y="125"/>
      <point x="0" y="86" type="qcurve" smooth="yes"/>
    </contour>
    <contour>
      <point x="279" y="384"/>
      <point x="332" y="330"/>
      <point x="370" y="330" type="qcurve" smooth="yes"/>
      <point x="2362" y="330" type="line" smooth="yes"/>
      <point x="2399" y="330"/>
      <point x="2449" y="383"/>
      <point x="2449" y="421" type="qcurve" smooth="yes"/>
      <point x="2449" y="458"/>
      <point x="2399" y="509"/>
      <point x="2362" y="509" type="qcurve" smooth="yes"/>
      <point x="370" y="509" type="line" smooth="yes"/>
      <point x="331" y="509"/>
      <point x="307" y="485" type="qcurve" smooth="yes"/>
      <point x="279" y="460"/>
      <point x="279" y="421" type="qcurve" smooth="yes"/>
    </contour>
    <contour>
      <point x="293" y="682"/>
      <point x="294" y="685" type="qcurve"/>
      <point x="294" y="681" type="line"/>
      <point x="334" y="816"/>
      <point x="539" y="1010"/>
      <point x="675" y="1042" type="qcurve"/>
      <point x="724" y="1260"/>
      <point x="1072" y="1541"/>
      <point x="1296" y="1541" type="qcurve" smooth="yes"/>
      <point x="1515" y="1541"/>
      <point x="1856" y="1270"/>
      <point x="1909" y="1057" type="qcurve"/>
      <point x="1943" y="1057" type="line" smooth="yes"/>
      <point x="2121" y="1057"/>
      <point x="2399" y="849"/>
      <point x="2446" y="685" type="qcurve"/>
      <point x="2450" y="661"/>
      <point x="2431" y="661" type="qcurve" smooth="yes"/>
      <point x="2278" y="661" type="line" smooth="yes"/>
      <point x="2267" y="661"/>
      <point x="2256" y="678" type="qcurve"/>
      <point x="2215" y="769"/>
      <point x="2046" y="879"/>
      <point x="1943" y="879" type="qcurve" smooth="yes"/>
      <point x="1773" y="879" type="line" smooth="yes"/>
      <point x="1752" y="879"/>
      <point x="1752" y="897" type="qcurve"/>
      <point x="1744" y="958" type="line" smooth="yes"/>
      <point x="1726" y="1130"/>
      <point x="1469" y="1358"/>
      <point x="1296" y="1358" type="qcurve" smooth="yes"/>
      <point x="1122" y="1358"/>
      <point x="863" y="1127"/>
      <point x="846" y="954" type="qcurve" smooth="yes"/>
      <point x="839" y="901" type="line"/>
      <point x="839" y="882"/>
      <point x="821" y="882" type="qcurve"/>
      <point x="762" y="874" type="line"/>
      <point x="672" y="867"/>
      <point x="521" y="761"/>
      <point x="483" y="678" type="qcurve"/>
      <point x="472" y="661"/>
      <point x="462" y="661" type="qcurve" smooth="yes"/>
      <point x="309" y="661" type="line" smooth="yes"/>
      <point x="293" y="661"/>
      <point x="293" y="675" type="qcurve" smooth="yes"/>
    </contour>
    <contour>
      <point x="465" y="-278"/>
      <point x="520" y="-333"/>
      <point x="557" y="-333" type="qcurve" smooth="yes"/>
      <point x="2550" y="-333" type="line" smooth="yes"/>
      <point x="2587" y="-333"/>
      <point x="2641" y="-279"/>
      <point x="2641" y="-241" type="qcurve" smooth="yes"/>
      <point x="2641" y="-204"/>
      <point x="2588" y="-154"/>
      <point x="2550" y="-154" type="qcurve" smooth="yes"/>
      <point x="557" y="-154" type="line" smooth="yes"/>
      <point x="517" y="-154"/>
      <point x="493" y="-178" type="qcurve" smooth="yes"/>
      <point x="465" y="-203"/>
      <point x="465" y="-241" type="qcurve" smooth="yes"/>
    </contour>
  </outline>
</glyph>
<glyph name="uniF015" format="2">
  <advance width="2210"/>
  <unicode hex="E314"/>
  <note>
uniF015
</note>
  <outline>
    <contour>
      <point x="0" y="712"/>
      <point x="229" y="999"/>
      <point x="406" y="1040" type="qcurve"/>
      <point x="455" y="1258"/>
      <point x="805" y="1537"/>
      <point x="1030" y="1537" type="qcurve" smooth="yes"/>
      <point x="1250" y="1537"/>
      <point x="1595" y="1265"/>
      <point x="1647" y="1051" type="qcurve"/>
      <point x="1681" y="1051" type="line" smooth="yes"/>
      <point x="1824" y="1051"/>
      <point x="2068" y="912"/>
      <point x="2210" y="671"/>
      <point x="2210" y="528" type="qcurve" smooth="yes"/>
      <point x="2210" y="388"/>
      <point x="2075" y="147"/>
      <point x="1841" y="3"/>
      <point x="1702" y="-1" type="qcurve" smooth="yes"/>
      <point x="1681" y="-1"/>
      <point x="1681" y="17" type="qcurve" smooth="yes"/>
      <point x="1681" y="160" type="line" smooth="yes"/>
      <point x="1681" y="178"/>
      <point x="1702" y="178" type="qcurve" smooth="yes"/>
      <point x="1838" y="185"/>
      <point x="2031" y="389"/>
      <point x="2031" y="528" type="qcurve" smooth="yes"/>
      <point x="2031" y="668"/>
      <point x="1823" y="872"/>
      <point x="1681" y="872" type="qcurve" smooth="yes"/>
      <point x="1509" y="872" type="line" smooth="yes"/>
      <point x="1490" y="872"/>
      <point x="1490" y="890" type="qcurve"/>
      <point x="1482" y="952" type="line" smooth="yes"/>
      <point x="1464" y="1125"/>
      <point x="1204" y="1358"/>
      <point x="1030" y="1358" type="qcurve" smooth="yes"/>
      <point x="855" y="1358"/>
      <point x="596" y="1125"/>
      <point x="579" y="952" type="qcurve" smooth="yes"/>
      <point x="573" y="895" type="line"/>
      <point x="573" y="875"/>
      <point x="552" y="875" type="qcurve" smooth="yes"/>
      <point x="495" y="872" type="line"/>
      <point x="362" y="856"/>
      <point x="182" y="660"/>
      <point x="182" y="528" type="qcurve" smooth="yes"/>
      <point x="182" y="389"/>
      <point x="374" y="185"/>
      <point x="511" y="178" type="qcurve" smooth="yes"/>
      <point x="529" y="178"/>
      <point x="529" y="160" type="qcurve" smooth="yes"/>
      <point x="529" y="17" type="line" smooth="yes"/>
      <point x="529" y="-1"/>
      <point x="511" y="-1" type="qcurve" smooth="yes"/>
      <point x="297" y="9"/>
      <point x="0" y="315"/>
      <point x="0" y="528" type="qcurve" smooth="yes"/>
    </contour>
    <contour>
      <point x="568" y="-201"/>
      <point x="583" y="-175" type="qcurve"/>
      <point x="599" y="-139"/>
      <point x="666" y="-111"/>
      <point x="698" y="-128" type="qcurve"/>
      <point x="733" y="-141"/>
      <point x="760" y="-208"/>
      <point x="744" y="-243" type="qcurve" smooth="yes"/>
      <point x="731" y="-277"/>
      <point x="662" y="-305"/>
      <point x="630" y="-289" type="qcurve" smooth="yes"/>
      <point x="596" y="-274"/>
      <point x="581" y="-240" type="qcurve"/>
    </contour>
    <contour>
      <point x="648" y="66"/>
      <point x="653" y="89" type="qcurve" smooth="yes"/>
      <point x="747" y="451" type="line"/>
      <point x="757" y="482"/>
      <point x="806" y="514"/>
      <point x="832" y="514" type="qcurve" smooth="yes"/>
      <point x="845" y="514"/>
      <point x="858" y="511" type="qcurve" smooth="yes"/>
      <point x="896" y="504"/>
      <point x="933" y="441"/>
      <point x="923" y="401" type="qcurve" smooth="yes"/>
      <point x="827" y="40" type="line" smooth="yes"/>
      <point x="815" y="-7"/>
      <point x="745" y="-40"/>
      <point x="714" y="-22" type="qcurve"/>
      <point x="681" y="-11"/>
      <point x="648" y="36"/>
      <point x="648" y="61" type="qcurve" smooth="yes"/>
    </contour>
    <contour>
      <point x="847" y="-512"/>
      <point x="874" y="-462"/>
      <point x="904" y="-449" type="qcurve" smooth="yes"/>
      <point x="939" y="-435"/>
      <point x="1002" y="-463"/>
      <point x="1034" y="-533"/>
      <point x="1003" y="-603"/>
      <point x="968" y="-616" type="qcurve"/>
      <point x="946" y="-622"/>
      <point x="936" y="-622" type="qcurve" smooth="yes"/>
      <point x="916" y="-622"/>
      <point x="901" y="-614" type="qcurve"/>
      <point x="867" y="-601"/>
      <point x="853" y="-566" type="qcurve" smooth="yes"/>
      <point x="847" y="-554"/>
      <point x="847" y="-535" type="qcurve" smooth="yes"/>
    </contour>
    <contour>
      <point x="925" y="-247"/>
      <point x="929" y="-225" type="qcurve"/>
      <point x="1111" y="451" type="line"/>
      <point x="1117" y="482"/>
      <point x="1168" y="514"/>
      <point x="1194" y="514" type="qcurve" smooth="yes"/>
      <point x="1210" y="514"/>
      <point x="1223" y="511" type="qcurve" smooth="yes"/>
      <point x="1259" y="501"/>
      <point x="1292" y="439"/>
      <point x="1282" y="401" type="qcurve" smooth="yes"/>
      <point x="1104" y="-270" type="line" smooth="yes"/>
      <point x="1092" y="-318"/>
      <point x="1059" y="-331" type="qcurve" smooth="yes"/>
      <point x="1042" y="-339"/>
      <point x="1018" y="-339" type="qcurve" smooth="yes"/>
      <point x="1010" y="-339"/>
      <point x="992" y="-335" type="qcurve" smooth="yes"/>
      <point x="925" y="-316"/>
      <point x="925" y="-257" type="qcurve" smooth="yes"/>
    </contour>
    <contour>
      <point x="1291" y="-190"/>
      <point x="1299" y="-175" type="qcurve" smooth="yes"/>
      <point x="1315" y="-139"/>
      <point x="1382" y="-111"/>
      <point x="1418" y="-128" type="qcurve" smooth="yes"/>
      <point x="1450" y="-144"/>
      <point x="1476" y="-208"/>
      <point x="1464" y="-243" type="qcurve"/>
      <point x="1449" y="-277"/>
      <point x="1415" y="-290" type="qcurve"/>
      <point x="1393" y="-296"/>
      <point x="1383" y="-296" type="qcurve" smooth="yes"/>
      <point x="1364" y="-296"/>
      <point x="1346" y="-289" type="qcurve" smooth="yes"/>
      <point x="1312" y="-273"/>
      <point x="1299" y="-242" type="qcurve"/>
      <point x="1291" y="-227"/>
      <point x="1291" y="-208" type="qcurve" smooth="yes"/>
    </contour>
    <contour>
      <point x="1371" y="93" type="line"/>
      <point x="1467" y="451" type="line" smooth="yes"/>
      <point x="1476" y="483"/>
      <point x="1524" y="514"/>
      <point x="1550" y="514" type="qcurve" smooth="yes"/>
      <point x="1564" y="514"/>
      <point x="1578" y="511" type="qcurve" smooth="yes"/>
      <point x="1610" y="502"/>
      <point x="1643" y="454"/>
      <point x="1643" y="429" type="qcurve" smooth="yes"/>
      <point x="1643" y="428"/>
      <point x="1640" y="401" type="qcurve"/>
      <point x="1544" y="45" type="line" smooth="yes"/>
      <point x="1533" y="4"/>
      <point x="1501" y="-11" type="qcurve" smooth="yes"/>
      <point x="1477" y="-22"/>
      <point x="1462" y="-22" type="qcurve" smooth="yes"/>
      <point x="1458" y="-22"/>
      <point x="1433" y="-17" type="qcurve"/>
      <point x="1402" y="-7"/>
      <point x="1368" y="43"/>
      <point x="1368" y="66" type="qcurve"/>
    </contour>
  </outline>
</glyph>
<glyph name="uniF016" format="2">
  <advance width="1502"/>
  <unicode hex="E315"/>
  <note>
uniF016
</note>
  <outline>
    <contour>
      <point x="335" y="605" type="line"/>
      <point x="42" y="605" type="line" smooth="yes"/>
      <point x="18" y="605"/>
      <point x="22" y="634" type="qcurve"/>
      <point x="318" y="1423" type="line"/>
      <point x="332" y="1442"/>
      <point x="349" y="1442" type="qcurve" smooth="yes"/>
      <point x="755" y="1442" type="line" smooth="yes"/>
      <point x="790" y="1442"/>
      <point x="776" y="1413" type="qcurve"/>
      <point x="457" y="832" type="line"/>
      <point x="760" y="832" type="line" smooth="yes"/>
      <point x="791" y="832"/>
      <point x="776" y="803" type="qcurve"/>
      <point x="42" y="-283" type="line"/>
      <point x="0" y="-283" type="line"/>
    </contour>
    <contour>
      <point x="1162" y="1066" type="line"/>
      <point x="944" y="1066" type="line" smooth="yes"/>
      <point x="930" y="1066"/>
      <point x="918" y="1082"/>
      <point x="923" y="1096" type="qcurve" smooth="yes"/>
      <point x="1145" y="1681" type="line"/>
      <point x="1156" y="1701"/>
      <point x="1177" y="1701" type="qcurve" smooth="yes"/>
      <point x="1469" y="1701" type="line" smooth="yes"/>
      <point x="1507" y="1701"/>
      <point x="1488" y="1669" type="qcurve" smooth="yes"/>
      <point x="1255" y="1239" type="line"/>
      <point x="1479" y="1239" type="line" smooth="yes"/>
      <point x="1493" y="1239"/>
      <point x="1501" y="1223"/>
      <point x="1493" y="1210" type="qcurve" smooth="yes"/>
      <point x="936" y="392" type="line"/>
      <point x="907" y="392" type="line"/>
    </contour>
  </outline>
</glyph>
<glyph name="uniF017" format="2">
  <advance width="2209"/>
  <unicode hex="E316"/>
  <note>
uniF017
</note>
  <outline>
    <contour>
      <point x="0" y="708"/>
      <point x="226" y="993"/>
      <point x="406" y="1039" type="qcurve"/>
      <point x="455" y="1256"/>
      <point x="805" y="1536"/>
      <point x="1030" y="1536" type="qcurve" smooth="yes"/>
      <point x="1250" y="1536"/>
      <point x="1594" y="1263"/>
      <point x="1647" y="1049" type="qcurve"/>
      <point x="1680" y="1049" type="line" smooth="yes"/>
      <point x="1823" y="1049"/>
      <point x="2067" y="908"/>
      <point x="2209" y="665"/>
      <point x="2209" y="522" type="qcurve" smooth="yes"/>
      <point x="2209" y="310"/>
      <point x="1914" y="5"/>
      <point x="1701" y="-2" type="qcurve" smooth="yes"/>
      <point x="1680" y="-2"/>
      <point x="1680" y="16" type="qcurve" smooth="yes"/>
      <point x="1680" y="158" type="line" smooth="yes"/>
      <point x="1680" y="177"/>
      <point x="1701" y="177" type="qcurve" smooth="yes"/>
      <point x="1837" y="184"/>
      <point x="2030" y="387"/>
      <point x="2030" y="522" type="qcurve" smooth="yes"/>
      <point x="2030" y="664"/>
      <point x="1824" y="870"/>
      <point x="1680" y="870" type="qcurve" smooth="yes"/>
      <point x="1509" y="870" type="line" smooth="yes"/>
      <point x="1489" y="870"/>
      <point x="1489" y="889" type="qcurve"/>
      <point x="1482" y="951" type="line" smooth="yes"/>
      <point x="1463" y="1123"/>
      <point x="1203" y="1357"/>
      <point x="1030" y="1357" type="qcurve" smooth="yes"/>
      <point x="854" y="1357"/>
      <point x="595" y="1121"/>
      <point x="579" y="946" type="qcurve"/>
      <point x="571" y="893" type="line"/>
      <point x="571" y="874"/>
      <point x="551" y="874" type="qcurve"/>
      <point x="495" y="866" type="line"/>
      <point x="362" y="855"/>
      <point x="181" y="656"/>
      <point x="181" y="522" type="qcurve" smooth="yes"/>
      <point x="181" y="387"/>
      <point x="375" y="184"/>
      <point x="510" y="177" type="qcurve" smooth="yes"/>
      <point x="529" y="177"/>
      <point x="529" y="158" type="qcurve" smooth="yes"/>
      <point x="529" y="16" type="line" smooth="yes"/>
      <point x="529" y="-2"/>
      <point x="510" y="-2" type="qcurve" smooth="yes"/>
      <point x="298" y="5"/>
      <point x="0" y="311"/>
      <point x="0" y="522" type="qcurve" smooth="yes"/>
    </contour>
    <contour>
      <point x="577" y="-213"/>
      <point x="579" y="-207" type="qcurve" smooth="yes"/>
      <point x="594" y="-144" type="line" smooth="yes"/>
      <point x="604" y="-106"/>
      <point x="669" y="-68"/>
      <point x="705" y="-79" type="qcurve" smooth="yes"/>
      <point x="742" y="-90"/>
      <point x="778" y="-153"/>
      <point x="770" y="-189" type="qcurve" smooth="yes"/>
      <point x="755" y="-254" type="line" smooth="yes"/>
      <point x="744" y="-299"/>
      <point x="682" y="-329"/>
      <point x="645" y="-318" type="qcurve" smooth="yes"/>
      <point x="612" y="-308"/>
      <point x="577" y="-254"/>
      <point x="577" y="-227" type="qcurve" smooth="yes"/>
    </contour>
    <contour>
      <point x="658" y="120"/>
      <point x="708" y="170"/>
      <point x="745" y="170" type="qcurve" smooth="yes"/>
      <point x="783" y="170"/>
      <point x="835" y="119"/>
      <point x="835" y="45"/>
      <point x="783" y="-6"/>
      <point x="745" y="-6" type="qcurve" smooth="yes"/>
      <point x="710" y="-6"/>
      <point x="685" y="21" type="qcurve" smooth="yes"/>
      <point x="658" y="48"/>
      <point x="658" y="82" type="qcurve" smooth="yes"/>
    </contour>
    <contour>
      <point x="723" y="331"/>
      <point x="727" y="350"/>
      <point x="727" y="353" type="qcurve"/>
      <point x="753" y="451" type="line" smooth="yes"/>
      <point x="764" y="486"/>
      <point x="829" y="522"/>
      <point x="864" y="511" type="qcurve" smooth="yes"/>
      <point x="903" y="500"/>
      <point x="941" y="439"/>
      <point x="929" y="400" type="qcurve" smooth="yes"/>
      <point x="899" y="304" type="line" smooth="yes"/>
      <point x="888" y="267"/>
      <point x="822" y="232"/>
      <point x="789" y="242" type="qcurve" smooth="yes"/>
      <point x="754" y="253"/>
      <point x="721" y="300"/>
      <point x="723" y="325" type="qcurve" smooth="yes"/>
    </contour>
    <contour>
      <point x="847" y="-550"/>
      <point x="850" y="-536" type="qcurve" smooth="yes"/>
      <point x="865" y="-473" type="line" smooth="yes"/>
      <point x="876" y="-437"/>
      <point x="942" y="-400"/>
      <point x="976" y="-411" type="qcurve"/>
      <point x="1013" y="-418"/>
      <point x="1051" y="-482"/>
      <point x="1041" y="-523" type="qcurve" smooth="yes"/>
      <point x="1026" y="-586" type="line" smooth="yes"/>
      <point x="1010" y="-651"/>
      <point x="942" y="-651" type="qcurve" smooth="yes"/>
      <point x="928" y="-651"/>
      <point x="915" y="-648" type="qcurve" smooth="yes"/>
      <point x="880" y="-638"/>
      <point x="847" y="-588"/>
      <point x="847" y="-560" type="qcurve" smooth="yes"/>
    </contour>
    <contour>
      <point x="930" y="-213"/>
      <point x="980" y="-163"/>
      <point x="1056" y="-163"/>
      <point x="1106" y="-213"/>
      <point x="1106" y="-250" type="qcurve" smooth="yes"/>
      <point x="1106" y="-288"/>
      <point x="1056" y="-338"/>
      <point x="1018" y="-338" type="qcurve" smooth="yes"/>
      <point x="983" y="-338"/>
      <point x="957" y="-312" type="qcurve" smooth="yes"/>
      <point x="930" y="-285"/>
      <point x="930" y="-250" type="qcurve" smooth="yes"/>
    </contour>
    <contour>
      <point x="997" y="8"/>
      <point x="1000" y="21" type="qcurve" smooth="yes"/>
      <point x="1024" y="117" type="line" smooth="yes"/>
      <point x="1035" y="154"/>
      <point x="1101" y="193"/>
      <point x="1136" y="182" type="qcurve" smooth="yes"/>
      <point x="1174" y="171"/>
      <point x="1211" y="107"/>
      <point x="1200" y="72" type="qcurve" smooth="yes"/>
      <point x="1171" y="-24" type="line" smooth="yes"/>
      <point x="1158" y="-68"/>
      <point x="1096" y="-100"/>
      <point x="1059" y="-90" type="qcurve" smooth="yes"/>
      <point x="1027" y="-84"/>
      <point x="995" y="-32"/>
      <point x="997" y="-8" type="qcurve" smooth="yes"/>
    </contour>
    <contour>
      <point x="1291" y="-232"/>
      <point x="1295" y="-214"/>
      <point x="1295" y="-210" type="qcurve"/>
      <point x="1305" y="-147" type="line"/>
      <point x="1316" y="-109"/>
      <point x="1381" y="-72"/>
      <point x="1421" y="-82" type="qcurve" smooth="yes"/>
      <point x="1457" y="-93"/>
      <point x="1493" y="-159"/>
      <point x="1482" y="-193" type="qcurve"/>
      <point x="1467" y="-257" type="line" smooth="yes"/>
      <point x="1451" y="-327"/>
      <point x="1386" y="-327" type="qcurve" smooth="yes"/>
      <point x="1381" y="-327"/>
      <point x="1362" y="-323"/>
      <point x="1357" y="-323" type="qcurve"/>
      <point x="1324" y="-313"/>
      <point x="1291" y="-263"/>
      <point x="1291" y="-237" type="qcurve" smooth="yes"/>
    </contour>
    <contour>
      <point x="1370" y="116"/>
      <point x="1420" y="166"/>
      <point x="1496" y="166"/>
      <point x="1546" y="116"/>
      <point x="1546" y="78" type="qcurve" smooth="yes"/>
      <point x="1546" y="41"/>
      <point x="1496" y="-9"/>
      <point x="1458" y="-9" type="qcurve" smooth="yes"/>
      <point x="1421" y="-9"/>
      <point x="1397" y="17" type="qcurve" smooth="yes"/>
      <point x="1370" y="42"/>
      <point x="1370" y="78" type="qcurve" smooth="yes"/>
    </contour>
    <contour>
      <point x="1435" y="329"/>
      <point x="1439" y="346"/>
      <point x="1439" y="350" type="qcurve"/>
      <point x="1469" y="447" type="line" smooth="yes"/>
      <point x="1480" y="484"/>
      <point x="1542" y="518"/>
      <point x="1579" y="507" type="qcurve" smooth="yes"/>
      <point x="1615" y="496"/>
      <point x="1651" y="433"/>
      <point x="1641" y="397" type="qcurve" smooth="yes"/>
      <point x="1615" y="301" type="line" smooth="yes"/>
      <point x="1605" y="263"/>
      <point x="1571" y="245" type="qcurve" smooth="yes"/>
      <point x="1549" y="235"/>
      <point x="1533" y="235" type="qcurve" smooth="yes"/>
      <point x="1528" y="235"/>
      <point x="1508" y="239"/>
      <point x="1505" y="239" type="qcurve"/>
      <point x="1470" y="249"/>
      <point x="1435" y="298"/>
      <point x="1435" y="325" type="qcurve" smooth="yes"/>
    </contour>
  </outline>
</glyph>
<glyph name="uniF018" format="2">
  <advance width="2213"/>
  <unicode hex="E317"/>
  <note>
uniF018
</note>
  <outline>
    <contour>
      <point x="0" y="711"/>
      <point x="227" y="998"/>
      <point x="407" y="1038" type="qcurve"/>
      <point x="438" y="1183"/>
      <point x="618" y="1410"/>
      <point x="881" y="1537"/>
      <point x="1030" y="1537" type="qcurve" smooth="yes"/>
      <point x="1253" y="1537"/>
      <point x="1600" y="1266"/>
      <point x="1653" y="1054" type="qcurve"/>
      <point x="1687" y="1054" type="line" smooth="yes"/>
      <point x="1795" y="1054"/>
      <point x="1990" y="970"/>
      <point x="2131" y="829"/>
      <point x="2214" y="633"/>
      <point x="2214" y="525" type="qcurve" smooth="yes"/>
      <point x="2214" y="322"/>
      <point x="1940" y="18"/>
      <point x="1741" y="-2" type="qcurve"/>
      <point x="1515" y="-262" type="line"/>
      <point x="1492" y="-299"/>
      <point x="1450" y="-299" type="qcurve" smooth="yes"/>
      <point x="1407" y="-299"/>
      <point x="1390" y="-279" type="qcurve"/>
      <point x="1362" y="-256"/>
      <point x="1351" y="-180"/>
      <point x="1374" y="-151" type="qcurve" smooth="yes"/>
      <point x="1626" y="147" type="line"/>
      <point x="1639" y="168"/>
      <point x="1670" y="171" type="qcurve" smooth="yes"/>
      <point x="1703" y="177"/>
      <point x="1722" y="177" type="qcurve"/>
      <point x="1853" y="193"/>
      <point x="2033" y="392"/>
      <point x="2033" y="525" type="qcurve" smooth="yes"/>
      <point x="2033" y="668"/>
      <point x="1831" y="870"/>
      <point x="1687" y="870" type="qcurve" smooth="yes"/>
      <point x="1514" y="870" type="line" smooth="yes"/>
      <point x="1495" y="870"/>
      <point x="1491" y="888" type="qcurve"/>
      <point x="1483" y="950" type="line" smooth="yes"/>
      <point x="1467" y="1124"/>
      <point x="1206" y="1357"/>
      <point x="1030" y="1357" type="qcurve" smooth="yes"/>
      <point x="855" y="1357"/>
      <point x="598" y="1126"/>
      <point x="578" y="950" type="qcurve" smooth="yes"/>
      <point x="570" y="891" type="line"/>
      <point x="570" y="877"/>
      <point x="553" y="877" type="qcurve"/>
      <point x="497" y="870" type="line" smooth="yes"/>
      <point x="363" y="859"/>
      <point x="183" y="660"/>
      <point x="183" y="525" type="qcurve" smooth="yes"/>
      <point x="183" y="381"/>
      <point x="385" y="177"/>
      <point x="527" y="177" type="qcurve"/>
      <point x="403" y="24" type="line"/>
      <point x="391" y="13"/>
      <point x="377" y="16" type="qcurve"/>
      <point x="209" y="67"/>
      <point x="0" y="346"/>
      <point x="0" y="525" type="qcurve" smooth="yes"/>
    </contour>
    <contour>
      <point x="361" y="-312"/>
      <point x="369" y="-295" type="qcurve" smooth="yes"/>
      <point x="385" y="-259"/>
      <point x="451" y="-231"/>
      <point x="487" y="-248" type="qcurve"/>
      <point x="522" y="-260"/>
      <point x="550" y="-328"/>
      <point x="534" y="-363" type="qcurve" smooth="yes"/>
      <point x="521" y="-397"/>
      <point x="449" y="-425"/>
      <point x="414" y="-409" type="qcurve" smooth="yes"/>
      <point x="381" y="-396"/>
      <point x="367" y="-362" type="qcurve"/>
      <point x="361" y="-340"/>
      <point x="361" y="-330" type="qcurve" smooth="yes"/>
    </contour>
    <contour>
      <point x="558" y="-36"/>
      <point x="578" y="-13" type="qcurve" smooth="yes"/>
      <point x="830" y="283" type="line" smooth="yes"/>
      <point x="853" y="311"/>
      <point x="890" y="318" type="qcurve" smooth="yes"/>
      <point x="896" y="319"/>
      <point x="905" y="319" type="qcurve" smooth="yes"/>
      <point x="935" y="319"/>
      <point x="986" y="273"/>
      <point x="990" y="239" type="qcurve" smooth="yes"/>
      <point x="992" y="197"/>
      <point x="969" y="169" type="qcurve" smooth="yes"/>
      <point x="721" y="-126" type="line" smooth="yes"/>
      <point x="692" y="-161"/>
      <point x="656" y="-161" type="qcurve" smooth="yes"/>
      <point x="626" y="-161"/>
      <point x="590" y="-141" type="qcurve"/>
      <point x="561" y="-117"/>
      <point x="558" y="-81" type="qcurve" smooth="yes"/>
      <point x="558" y="-70" type="line" smooth="yes"/>
    </contour>
    <contour>
      <point x="648" y="-539" type="qcurve"/>
      <point x="660" y="-505"/>
      <point x="733" y="-477"/>
      <point x="768" y="-493" type="qcurve" smooth="yes"/>
      <point x="802" y="-506"/>
      <point x="829" y="-578"/>
      <point x="813" y="-613" type="qcurve" smooth="yes"/>
      <point x="800" y="-642"/>
      <point x="763" y="-657" type="qcurve"/>
      <point x="750" y="-665"/>
      <point x="730" y="-665" type="qcurve" smooth="yes"/>
      <point x="712" y="-665"/>
      <point x="695" y="-657" type="qcurve" smooth="yes"/>
      <point x="661" y="-641"/>
      <point x="648" y="-607" type="qcurve"/>
      <point x="640" y="-592"/>
      <point x="640" y="-554"/>
    </contour>
    <contour>
      <point x="818" y="-293"/>
      <point x="837" y="-265" type="qcurve"/>
      <point x="1301" y="290" type="line"/>
      <point x="1323" y="321"/>
      <point x="1360" y="323" type="qcurve" smooth="yes"/>
      <point x="1374" y="323" type="line" smooth="yes"/>
      <point x="1405" y="323"/>
      <point x="1455" y="281"/>
      <point x="1459" y="245" type="qcurve"/>
      <point x="1459" y="232" type="line" smooth="yes"/>
      <point x="1459" y="197"/>
      <point x="1441" y="177" type="qcurve" smooth="yes"/>
      <point x="977" y="-382" type="line" smooth="yes"/>
      <point x="946" y="-417"/>
      <point x="910" y="-417" type="qcurve" smooth="yes"/>
      <point x="880" y="-417"/>
      <point x="822" y="-370"/>
      <point x="818" y="-335" type="qcurve"/>
      <point x="818" y="-323" type="line" smooth="yes"/>
    </contour>
    <contour>
      <point x="1193" y="-427"/>
      <point x="1201" y="-408" type="qcurve" smooth="yes"/>
      <point x="1214" y="-374"/>
      <point x="1249" y="-361" type="qcurve"/>
      <point x="1269" y="-356"/>
      <point x="1283" y="-353" type="qcurve"/>
      <point x="1321" y="-363" type="line"/>
      <point x="1355" y="-377"/>
      <point x="1368" y="-410" type="qcurve" smooth="yes"/>
      <point x="1382" y="-454"/>
      <point x="1366" y="-481" type="qcurve"/>
      <point x="1353" y="-512"/>
      <point x="1317" y="-526" type="qcurve"/>
      <point x="1304" y="-534"/>
      <point x="1281" y="-534" type="qcurve" smooth="yes"/>
      <point x="1270" y="-534"/>
      <point x="1248" y="-528" type="qcurve"/>
      <point x="1213" y="-513"/>
      <point x="1199" y="-478" type="qcurve" smooth="yes"/>
      <point x="1193" y="-460"/>
      <point x="1193" y="-446" type="qcurve" smooth="yes"/>
    </contour>
  </outline>
</glyph>
<glyph name="uniF019" format="2">
  <advance width="2211"/>
  <unicode hex="E318"/>
  <note>
uniF019
</note>
  <outline>
    <contour>
      <point x="0" y="314"/>
      <point x="297" y="8"/>
      <point x="511" y="-2" type="qcurve" smooth="yes"/>
      <point x="529" y="-2"/>
      <point x="529" y="16" type="qcurve" smooth="yes"/>
      <point x="529" y="158" type="line" smooth="yes"/>
      <point x="529" y="177"/>
      <point x="511" y="177" type="qcurve" smooth="yes"/>
      <point x="374" y="184"/>
      <point x="182" y="388"/>
      <point x="182" y="527" type="qcurve" smooth="yes"/>
      <point x="182" y="659"/>
      <point x="363" y="855"/>
      <point x="496" y="871" type="qcurve"/>
      <point x="552" y="874" type="line" smooth="yes"/>
      <point x="573" y="874"/>
      <point x="573" y="894" type="qcurve"/>
      <point x="581" y="951" type="line"/>
      <point x="597" y="1124"/>
      <point x="856" y="1357"/>
      <point x="1031" y="1357" type="qcurve" smooth="yes"/>
      <point x="1204" y="1357"/>
      <point x="1465" y="1124"/>
      <point x="1483" y="951" type="qcurve" smooth="yes"/>
      <point x="1491" y="889" type="line"/>
      <point x="1491" y="871"/>
      <point x="1510" y="871" type="qcurve" smooth="yes"/>
      <point x="1682" y="871" type="line" smooth="yes"/>
      <point x="1824" y="871"/>
      <point x="2032" y="666"/>
      <point x="2032" y="388"/>
      <point x="1839" y="184"/>
      <point x="1703" y="177" type="qcurve" smooth="yes"/>
      <point x="1682" y="177"/>
      <point x="1682" y="158" type="qcurve" smooth="yes"/>
      <point x="1682" y="16" type="line" smooth="yes"/>
      <point x="1682" y="-2"/>
      <point x="1703" y="-2" type="qcurve" smooth="yes"/>
      <point x="1842" y="2"/>
      <point x="2076" y="146"/>
      <point x="2211" y="387"/>
      <point x="2211" y="527" type="qcurve" smooth="yes"/>
      <point x="2211" y="670"/>
      <point x="2069" y="911"/>
      <point x="1825" y="1050"/>
      <point x="1682" y="1050" type="qcurve" smooth="yes"/>
      <point x="1648" y="1050" type="line"/>
      <point x="1596" y="1264"/>
      <point x="1251" y="1537"/>
      <point x="1031" y="1537" type="qcurve" smooth="yes"/>
      <point x="806" y="1537"/>
      <point x="456" y="1257"/>
      <point x="406" y="1039" type="qcurve"/>
      <point x="230" y="998"/>
      <point x="0" y="711"/>
      <point x="0" y="527" type="qcurve" smooth="yes"/>
    </contour>
    <contour>
      <point x="571" y="-213"/>
      <point x="605" y="-264"/>
      <point x="640" y="-274" type="qcurve"/>
      <point x="642" y="-274"/>
      <point x="651" y="-277" type="qcurve" smooth="yes"/>
      <point x="657" y="-279"/>
      <point x="663" y="-279" type="qcurve" smooth="yes"/>
      <point x="731" y="-279"/>
      <point x="751" y="-211" type="qcurve" smooth="yes"/>
      <point x="925" y="400" type="line" smooth="yes"/>
      <point x="936" y="439"/>
      <point x="897" y="503"/>
      <point x="859" y="510" type="qcurve" smooth="yes"/>
      <point x="844" y="513"/>
      <point x="833" y="513" type="qcurve" smooth="yes"/>
      <point x="808" y="513"/>
      <point x="759" y="481"/>
      <point x="749" y="450" type="qcurve" smooth="yes"/>
      <point x="575" y="-165" type="line" smooth="yes"/>
      <point x="571" y="-179"/>
      <point x="571" y="-186" type="qcurve" smooth="yes"/>
    </contour>
    <contour>
      <point x="839" y="-527"/>
      <point x="857" y="-555" type="qcurve" smooth="yes"/>
      <point x="880" y="-589"/>
      <point x="912" y="-597" type="qcurve"/>
      <point x="924" y="-602"/>
      <point x="939" y="-602" type="qcurve" smooth="yes"/>
      <point x="968" y="-602"/>
      <point x="1018" y="-564"/>
      <point x="1024" y="-537" type="qcurve"/>
      <point x="1283" y="400" type="line" smooth="yes"/>
      <point x="1293" y="437"/>
      <point x="1259" y="500"/>
      <point x="1224" y="510" type="qcurve" smooth="yes"/>
      <point x="1209" y="513"/>
      <point x="1195" y="513" type="qcurve" smooth="yes"/>
      <point x="1168" y="513"/>
      <point x="1118" y="481"/>
      <point x="1111" y="450" type="qcurve"/>
      <point x="851" y="-486" type="line" smooth="yes"/>
    </contour>
    <contour>
      <point x="1291" y="-214"/>
      <point x="1325" y="-265"/>
      <point x="1357" y="-274" type="qcurve" smooth="yes"/>
      <point x="1383" y="-279" type="line"/>
      <point x="1413" y="-279"/>
      <point x="1461" y="-242"/>
      <point x="1467" y="-211" type="qcurve"/>
      <point x="1641" y="400" type="line"/>
      <point x="1641" y="403"/>
      <point x="1645" y="422"/>
      <point x="1645" y="427" type="qcurve" smooth="yes"/>
      <point x="1645" y="453"/>
      <point x="1612" y="501"/>
      <point x="1579" y="510" type="qcurve" smooth="yes"/>
      <point x="1564" y="513"/>
      <point x="1551" y="513" type="qcurve" smooth="yes"/>
      <point x="1525" y="513"/>
      <point x="1478" y="481"/>
      <point x="1469" y="450" type="qcurve" smooth="yes"/>
      <point x="1295" y="-165" type="line" smooth="yes"/>
      <point x="1291" y="-183"/>
      <point x="1291" y="-189" type="qcurve" smooth="yes"/>
    </contour>
  </outline>
</glyph>
<glyph name="uniF01A" format="2">
  <advance width="2218"/>
  <unicode hex="E319"/>
  <note>
uniF01A
</note>
  <outline>
    <contour>
      <point x="0" y="420"/>
      <point x="80" y="229"/>
      <point x="217" y="89"/>
      <point x="407" y="3"/>
      <point x="512" y="-2" type="qcurve" smooth="yes"/>
      <point x="531" y="-2"/>
      <point x="531" y="16" type="qcurve" smooth="yes"/>
      <point x="531" y="159" type="line" smooth="yes"/>
      <point x="531" y="177"/>
      <point x="512" y="177" type="qcurve" smooth="yes"/>
      <point x="375" y="185"/>
      <point x="186" y="386"/>
      <point x="186" y="525" type="qcurve" smooth="yes"/>
      <point x="186" y="661"/>
      <point x="367" y="859"/>
      <point x="502" y="870" type="qcurve"/>
      <point x="558" y="878" type="line"/>
      <point x="575" y="878"/>
      <point x="575" y="893" type="qcurve"/>
      <point x="582" y="951" type="line" smooth="yes"/>
      <point x="599" y="1125"/>
      <point x="858" y="1358"/>
      <point x="1034" y="1358" type="qcurve" smooth="yes"/>
      <point x="1150" y="1358"/>
      <point x="1350" y="1253"/>
      <point x="1477" y="1068"/>
      <point x="1488" y="954" type="qcurve" smooth="yes"/>
      <point x="1496" y="893" type="line"/>
      <point x="1500" y="874"/>
      <point x="1519" y="874" type="qcurve" smooth="yes"/>
      <point x="1693" y="874" type="line" smooth="yes"/>
      <point x="1835" y="874"/>
      <point x="2039" y="668"/>
      <point x="2039" y="525" type="qcurve" smooth="yes"/>
      <point x="2039" y="389"/>
      <point x="1847" y="188"/>
      <point x="1712" y="177" type="qcurve"/>
      <point x="1693" y="177"/>
      <point x="1693" y="159" type="qcurve" smooth="yes"/>
      <point x="1693" y="16" type="line" smooth="yes"/>
      <point x="1693" y="-2"/>
      <point x="1712" y="-2" type="qcurve" smooth="yes"/>
      <point x="1925" y="5"/>
      <point x="2218" y="311"/>
      <point x="2218" y="525" type="qcurve" smooth="yes"/>
      <point x="2218" y="669"/>
      <point x="2079" y="913"/>
      <point x="1837" y="1054"/>
      <point x="1693" y="1054" type="qcurve" smooth="yes"/>
      <point x="1657" y="1054" type="line"/>
      <point x="1604" y="1270"/>
      <point x="1257" y="1542"/>
      <point x="1034" y="1542" type="qcurve" smooth="yes"/>
      <point x="808" y="1542"/>
      <point x="460" y="1259"/>
      <point x="413" y="1039" type="qcurve"/>
      <point x="232" y="998"/>
      <point x="0" y="710"/>
      <point x="0" y="525" type="qcurve" smooth="yes"/>
    </contour>
    <contour>
      <point x="578" y="-222"/>
      <point x="612" y="-275"/>
      <point x="646" y="-285" type="qcurve"/>
      <point x="650" y="-285"/>
      <point x="663" y="-287"/>
      <point x="674" y="-288"/>
      <point x="678" y="-288" type="qcurve" smooth="yes"/>
      <point x="738" y="-288"/>
      <point x="759" y="-218" type="qcurve"/>
      <point x="785" y="-110" type="line" smooth="yes"/>
      <point x="796" y="-73"/>
      <point x="758" y="-10"/>
      <point x="722" y="1" type="qcurve" smooth="yes"/>
      <point x="685" y="12"/>
      <point x="622" y="-25"/>
      <point x="611" y="-61" type="qcurve" smooth="yes"/>
      <point x="582" y="-171" type="line"/>
      <point x="582" y="-174"/>
      <point x="578" y="-192"/>
      <point x="578" y="-197" type="qcurve" smooth="yes"/>
    </contour>
    <contour>
      <point x="719" y="291"/>
      <point x="754" y="239"/>
      <point x="789" y="229" type="qcurve"/>
      <point x="826" y="213"/>
      <point x="890" y="250"/>
      <point x="901" y="294" type="qcurve" smooth="yes"/>
      <point x="927" y="401" type="line" smooth="yes"/>
      <point x="938" y="438"/>
      <point x="901" y="501"/>
      <point x="865" y="512" type="qcurve"/>
      <point x="862" y="512"/>
      <point x="851" y="514"/>
      <point x="842" y="515"/>
      <point x="838" y="515" type="qcurve" smooth="yes"/>
      <point x="812" y="515"/>
      <point x="764" y="482"/>
      <point x="754" y="451" type="qcurve" smooth="yes"/>
      <point x="722" y="339" type="line"/>
      <point x="722" y="337"/>
      <point x="719" y="321"/>
      <point x="719" y="317" type="qcurve" smooth="yes"/>
    </contour>
    <contour>
      <point x="850" y="-559"/>
      <point x="885" y="-612"/>
      <point x="920" y="-618" type="qcurve" smooth="yes"/>
      <point x="938" y="-622"/>
      <point x="946" y="-622" type="qcurve" smooth="yes"/>
      <point x="1014" y="-622"/>
      <point x="1031" y="-557" type="qcurve" smooth="yes"/>
      <point x="1058" y="-446" type="line" smooth="yes"/>
      <point x="1069" y="-409"/>
      <point x="1033" y="-344"/>
      <point x="997" y="-333" type="qcurve" smooth="yes"/>
      <point x="960" y="-322"/>
      <point x="895" y="-361"/>
      <point x="885" y="-399" type="qcurve" smooth="yes"/>
      <point x="854" y="-505" type="line"/>
      <point x="854" y="-509"/>
      <point x="850" y="-526"/>
      <point x="850" y="-531" type="qcurve" smooth="yes"/>
    </contour>
    <contour>
      <point x="993" y="-50"/>
      <point x="1028" y="-99"/>
      <point x="1063" y="-106" type="qcurve" smooth="yes"/>
      <point x="1089" y="-112"/>
      <point x="1096" y="-112" type="qcurve" smooth="yes"/>
      <point x="1153" y="-112"/>
      <point x="1173" y="-40" type="qcurve" smooth="yes"/>
      <point x="1199" y="66" type="line"/>
      <point x="1211" y="104"/>
      <point x="1175" y="167"/>
      <point x="1139" y="177" type="qcurve" smooth="yes"/>
      <point x="1102" y="188"/>
      <point x="1037" y="151"/>
      <point x="1026" y="115" type="qcurve" smooth="yes"/>
      <point x="997" y="5" type="line" smooth="yes"/>
      <point x="993" y="-13"/>
      <point x="993" y="-22" type="qcurve" smooth="yes"/>
    </contour>
    <contour>
      <point x="1295" y="-229"/>
      <point x="1329" y="-282"/>
      <point x="1361" y="-288" type="qcurve" smooth="yes"/>
      <point x="1374" y="-291"/>
      <point x="1389" y="-291" type="qcurve" smooth="yes"/>
      <point x="1457" y="-291"/>
      <point x="1473" y="-226" type="qcurve" smooth="yes"/>
      <point x="1504" y="-113" type="line" smooth="yes"/>
      <point x="1514" y="-78"/>
      <point x="1475" y="-13"/>
      <point x="1438" y="-2" type="qcurve" smooth="yes"/>
      <point x="1403" y="8"/>
      <point x="1338" y="-31"/>
      <point x="1327" y="-69" type="qcurve" smooth="yes"/>
      <point x="1297" y="-175" type="line"/>
      <point x="1294" y="-190"/>
      <point x="1294" y="-201" type="qcurve" smooth="yes"/>
    </contour>
    <contour>
      <point x="1441" y="281"/>
      <point x="1474" y="234"/>
      <point x="1507" y="224" type="qcurve" smooth="yes"/>
      <point x="1533" y="218"/>
      <point x="1543" y="218" type="qcurve" smooth="yes"/>
      <point x="1603" y="218"/>
      <point x="1624" y="287" type="qcurve"/>
      <point x="1650" y="397" type="line" smooth="yes"/>
      <point x="1661" y="439"/>
      <point x="1642" y="466" type="qcurve" smooth="yes"/>
      <point x="1622" y="499"/>
      <point x="1587" y="507" type="qcurve" smooth="yes"/>
      <point x="1568" y="511"/>
      <point x="1561" y="510" type="qcurve"/>
      <point x="1534" y="512"/>
      <point x="1484" y="479"/>
      <point x="1478" y="445" type="qcurve"/>
      <point x="1446" y="335" type="line"/>
      <point x="1441" y="312"/>
      <point x="1441" y="307" type="qcurve" smooth="yes"/>
    </contour>
  </outline>
</glyph>
